solid OpenSCAD_Model
  facet normal 0.368037 0.929597 -0.0199626
    outer loop
      vertex 3.03695 7.17014 0
      vertex 3.03552 7.19839 1.28915
      vertex 3.32108 7.05765 0
    endloop
  endfacet
  facet normal 0.368059 0.929588 -0.0199547
    outer loop
      vertex 2.78946 7.31965 2.4
      vertex 2.42516 7.46389 2.4
      vertex 2.43505 7.49432 4
    endloop
  endfacet
  facet normal -0.587671 -0.808854 -0.0199544
    outer loop
      vertex -4.22231 -6.6533 4
      vertex -4.97191 -6.01 0
      vertex -4.17945 -6.58576 0
    endloop
  endfacet
  facet normal -0.125314 -0.991916 -0.0199541
    outer loop
      vertex -0.881503 -7.78341 2.4
      vertex -1.47656 -7.74042 4
      vertex -1.47057 -7.70899 2.4
    endloop
  endfacet
  facet normal -0.125312 -0.991917 -0.0199532
    outer loop
      vertex -1.47656 -7.74042 4
      vertex -0.881503 -7.78341 2.4
      vertex -0.494789 -7.86445 4
    endloop
  endfacet
  facet normal 0.997828 0.0627819 -0.0199566
    outer loop
      vertex 7.88 0 4
      vertex 7.8 0 0
      vertex 7.81786 0.987625 4
    endloop
  endfacet
  facet normal 0.997828 0.0627828 -0.0199568
    outer loop
      vertex 7.8 0 0
      vertex 7.73849 0.977599 0
      vertex 7.81786 0.987625 4
    endloop
  endfacet
  facet normal 0.950869 -0.308951 -0.0199561
    outer loop
      vertex 7.32664 -2.90082 4
      vertex 7.25226 -2.87137 0
      vertex 7.63243 -1.95968 4
    endloop
  endfacet
  facet normal -0.248642 0.96839 -0.0199539
    outer loop
      vertex -1.85007 7.61155 2.4
      vertex -2.43505 7.49432 4
      vertex -1.47656 7.74042 4
    endloop
  endfacet
  facet normal -0.248644 0.96839 -0.0199545
    outer loop
      vertex -2.43505 7.49432 4
      vertex -1.85007 7.61155 2.4
      vertex -2.42516 7.46389 2.4
    endloop
  endfacet
  facet normal 0.12529 -0.991919 -0.0199585
    outer loop
      vertex 0.494789 -7.86445 4
      vertex 0.49278 -7.83251 2.4
      vertex 0.881503 -7.78341 2.4
    endloop
  endfacet
  facet normal -0.368059 0.929588 -0.0199547
    outer loop
      vertex -2.42516 7.46389 2.4
      vertex -2.78946 7.31965 2.4
      vertex -2.43505 7.49432 4
    endloop
  endfacet
  facet normal -0.368037 0.929597 -0.0199626
    outer loop
      vertex -3.03695 7.17014 0
      vertex -3.32108 7.05765 0
      vertex -3.03552 7.19839 1.28915
    endloop
  endfacet
  facet normal 0.684407 0.728827 -0.0199546
    outer loop
      vertex 5.68596 5.33947 0
      vertex 4.97191 6.01 0
      vertex 5.74427 5.39423 4
    endloop
  endfacet
  facet normal 0 -0.999801 -0.0199585
    outer loop
      vertex -0.49278 -7.83251 2.4
      vertex 0.494789 -7.86445 4
      vertex -0.494789 -7.86445 4
    endloop
  endfacet
  facet normal 0 -0.999801 -0.0199585
    outer loop
      vertex 0.494789 -7.86445 4
      vertex -0.49278 -7.83251 2.4
      vertex 0.49278 -7.83251 2.4
    endloop
  endfacet
  facet normal 0.844157 -0.535725 -0.0199572
    outer loop
      vertex 6.37505 -4.63175 4
      vertex 6.31033 -4.58472 0
      vertex 6.9053 -3.79622 4
    endloop
  endfacet
  facet normal 0.904648 -0.425692 -0.0199561
    outer loop
      vertex 7.32664 -2.90082 4
      vertex 6.9053 -3.79622 4
      vertex 7.25226 -2.87137 0
    endloop
  endfacet
  facet normal -0.368035 -0.929598 -0.0199555
    outer loop
      vertex -2.78946 -7.31965 2.4
      vertex -3.35514 -7.13004 4
      vertex -3.03429 -7.22272 2.4
    endloop
  endfacet
  facet normal -0.368042 -0.929595 -0.0199572
    outer loop
      vertex -3.32108 -7.05765 0
      vertex -3.03429 -7.22272 2.4
      vertex -3.35514 -7.13004 4
    endloop
  endfacet
  facet normal -0.368076 -0.929582 -0.0199523
    outer loop
      vertex -3.03429 -7.22272 2.4
      vertex -3.32108 -7.05765 0
      vertex -3.03552 -7.19839 1.28915
    endloop
  endfacet
  facet normal -0.368043 -0.929595 -0.0199588
    outer loop
      vertex -3.35514 -7.13004 4
      vertex -2.78946 -7.31965 2.4
      vertex -2.43505 -7.49432 4
    endloop
  endfacet
  facet normal -0.12529 -0.991919 -0.0199585
    outer loop
      vertex -0.494789 -7.86445 4
      vertex -0.881503 -7.78341 2.4
      vertex -0.49278 -7.83251 2.4
    endloop
  endfacet
  facet normal -0.368059 -0.929588 -0.0199547
    outer loop
      vertex -2.43505 -7.49432 4
      vertex -2.78946 -7.31965 2.4
      vertex -2.42516 -7.46389 2.4
    endloop
  endfacet
  facet normal -0.368037 -0.929597 -0.0199626
    outer loop
      vertex -3.03552 -7.19839 1.28915
      vertex -3.32108 -7.05765 0
      vertex -3.03695 -7.17014 0
    endloop
  endfacet
  facet normal 0.997828 -0.0627828 -0.0199568
    outer loop
      vertex 7.81786 -0.987625 4
      vertex 7.73849 -0.977599 0
      vertex 7.8 0 0
    endloop
  endfacet
  facet normal -0.12529 0.991919 -0.0199585
    outer loop
      vertex -0.49278 7.83251 2.4
      vertex -0.881503 7.78341 2.4
      vertex -0.494789 7.86445 4
    endloop
  endfacet
  facet normal 0.997828 -0.0627819 -0.0199566
    outer loop
      vertex 7.81786 -0.987625 4
      vertex 7.8 0 0
      vertex 7.88 0 4
    endloop
  endfacet
  facet normal 0.125312 -0.991917 -0.0199532
    outer loop
      vertex 0.881503 -7.78341 2.4
      vertex 1.47656 -7.74042 4
      vertex 0.494789 -7.86445 4
    endloop
  endfacet
  facet normal 0.125314 -0.991916 -0.0199541
    outer loop
      vertex 1.47656 -7.74042 4
      vertex 0.881503 -7.78341 2.4
      vertex 1.47057 -7.70899 2.4
    endloop
  endfacet
  facet normal -0.68441 -0.728824 -0.0199557
    outer loop
      vertex -5.0229 -6.07164 4
      vertex -5.74427 -5.39423 4
      vertex -4.97191 -6.01 0
    endloop
  endfacet
  facet normal -0.904645 0.425698 -0.0199578
    outer loop
      vertex -6.83519 3.75768 0
      vertex -7.25226 2.87137 0
      vertex -6.9053 3.79622 4
    endloop
  endfacet
  facet normal -0.997828 -0.0627819 -0.0199566
    outer loop
      vertex -7.81786 -0.987625 4
      vertex -7.88 0 4
      vertex -7.8 0 0
    endloop
  endfacet
  facet normal 0.587666 0.808857 -0.0199558
    outer loop
      vertex 4.97191 6.01 0
      vertex 4.22231 6.6533 4
      vertex 5.0229 6.07164 4
    endloop
  endfacet
  facet normal -0.587666 -0.808857 -0.0199558
    outer loop
      vertex -4.22231 -6.6533 4
      vertex -5.0229 -6.07164 4
      vertex -4.97191 -6.01 0
    endloop
  endfacet
  facet normal 0.368035 0.929598 -0.0199555
    outer loop
      vertex 2.78946 7.31965 2.4
      vertex 3.35514 7.13004 4
      vertex 3.03429 7.22272 2.4
    endloop
  endfacet
  facet normal 0.368042 0.929595 -0.0199572
    outer loop
      vertex 3.32108 7.05765 0
      vertex 3.03429 7.22272 2.4
      vertex 3.35514 7.13004 4
    endloop
  endfacet
  facet normal 0.368076 0.929582 -0.0199523
    outer loop
      vertex 3.03429 7.22272 2.4
      vertex 3.32108 7.05765 0
      vertex 3.03552 7.19839 1.28915
    endloop
  endfacet
  facet normal 0.368043 0.929595 -0.0199588
    outer loop
      vertex 3.35514 7.13004 4
      vertex 2.78946 7.31965 2.4
      vertex 2.43505 7.49432 4
    endloop
  endfacet
  facet normal -0.770359 -0.637298 -0.0199545
    outer loop
      vertex -5.74427 -5.39423 4
      vertex -6.37505 -4.63175 4
      vertex -5.68596 -5.33947 0
    endloop
  endfacet
  facet normal 0.950868 -0.308954 -0.0199554
    outer loop
      vertex 7.63243 -1.95968 4
      vertex 7.25226 -2.87137 0
      vertex 7.55495 -1.93978 0
    endloop
  endfacet
  facet normal 0.248643 0.96839 -0.0199537
    outer loop
      vertex 1.85007 7.61155 2.4
      vertex 1.47057 7.70899 2.4
      vertex 1.47656 7.74042 4
    endloop
  endfacet
  facet normal -0.904645 -0.425698 -0.0199578
    outer loop
      vertex -6.9053 -3.79622 4
      vertex -7.25226 -2.87137 0
      vertex -6.83519 -3.75768 0
    endloop
  endfacet
  facet normal 0 0.999801 -0.0199585
    outer loop
      vertex 0.49278 7.83251 2.4
      vertex -0.494789 7.86445 4
      vertex 0.494789 7.86445 4
    endloop
  endfacet
  facet normal 0 0.999801 -0.0199585
    outer loop
      vertex -0.494789 7.86445 4
      vertex 0.49278 7.83251 2.4
      vertex -0.49278 7.83251 2.4
    endloop
  endfacet
  facet normal 0.248643 -0.96839 -0.0199537
    outer loop
      vertex 1.47656 -7.74042 4
      vertex 1.47057 -7.70899 2.4
      vertex 1.85007 -7.61155 2.4
    endloop
  endfacet
  facet normal 0.982092 -0.187345 -0.0199567
    outer loop
      vertex 7.81786 -0.987625 4
      vertex 7.63243 -1.95968 4
      vertex 7.73849 -0.977599 0
    endloop
  endfacet
  facet normal 0.68441 0.728824 -0.0199557
    outer loop
      vertex 5.74427 5.39423 4
      vertex 4.97191 6.01 0
      vertex 5.0229 6.07164 4
    endloop
  endfacet
  facet normal -0.844157 0.535725 -0.0199572
    outer loop
      vertex -6.31033 4.58472 0
      vertex -6.9053 3.79622 4
      vertex -6.37505 4.63175 4
    endloop
  endfacet
  facet normal -0.481655 0.876133 -0.0199545
    outer loop
      vertex -4.17945 6.58576 0
      vertex -4.22231 6.6533 4
      vertex -3.32108 7.05765 0
    endloop
  endfacet
  facet normal 0.770367 -0.637289 -0.0199575
    outer loop
      vertex 6.37505 -4.63175 4
      vertex 5.68596 -5.33947 0
      vertex 6.31033 -4.58472 0
    endloop
  endfacet
  facet normal 0.587671 -0.808854 -0.0199544
    outer loop
      vertex 4.22231 -6.6533 4
      vertex 4.17945 -6.58576 0
      vertex 4.97191 -6.01 0
    endloop
  endfacet
  facet normal -0.982092 0.187345 -0.0199567
    outer loop
      vertex -7.73849 0.977599 0
      vertex -7.81786 0.987625 4
      vertex -7.63243 1.95968 4
    endloop
  endfacet
  facet normal -0.844158 -0.535723 -0.0199577
    outer loop
      vertex -6.31033 -4.58472 0
      vertex -6.9053 -3.79622 4
      vertex -6.83519 -3.75768 0
    endloop
  endfacet
  facet normal 0.982093 -0.187338 -0.0199551
    outer loop
      vertex 7.63243 -1.95968 4
      vertex 7.55495 -1.93978 0
      vertex 7.73849 -0.977599 0
    endloop
  endfacet
  facet normal 0.904645 -0.425698 -0.0199578
    outer loop
      vertex 6.9053 -3.79622 4
      vertex 6.83519 -3.75768 0
      vertex 7.25226 -2.87137 0
    endloop
  endfacet
  facet normal 0.248642 -0.96839 -0.0199539
    outer loop
      vertex 1.85007 -7.61155 2.4
      vertex 2.43505 -7.49432 4
      vertex 1.47656 -7.74042 4
    endloop
  endfacet
  facet normal 0.248644 -0.96839 -0.0199545
    outer loop
      vertex 2.43505 -7.49432 4
      vertex 1.85007 -7.61155 2.4
      vertex 2.42516 -7.46389 2.4
    endloop
  endfacet
  facet normal -0.982092 -0.187345 -0.0199567
    outer loop
      vertex -7.63243 -1.95968 4
      vertex -7.81786 -0.987625 4
      vertex -7.73849 -0.977599 0
    endloop
  endfacet
  facet normal -0.248644 -0.96839 -0.0199545
    outer loop
      vertex -1.85007 -7.61155 2.4
      vertex -2.43505 -7.49432 4
      vertex -2.42516 -7.46389 2.4
    endloop
  endfacet
  facet normal -0.248642 -0.96839 -0.0199539
    outer loop
      vertex -2.43505 -7.49432 4
      vertex -1.85007 -7.61155 2.4
      vertex -1.47656 -7.74042 4
    endloop
  endfacet
  facet normal -0.481665 0.876128 -0.0199571
    outer loop
      vertex -3.32108 7.05765 0
      vertex -4.22231 6.6533 4
      vertex -3.35514 7.13004 4
    endloop
  endfacet
  facet normal 0.770359 -0.637298 -0.0199545
    outer loop
      vertex 5.74427 -5.39423 4
      vertex 5.68596 -5.33947 0
      vertex 6.37505 -4.63175 4
    endloop
  endfacet
  facet normal -0.982093 -0.187338 -0.0199551
    outer loop
      vertex -7.63243 -1.95968 4
      vertex -7.73849 -0.977599 0
      vertex -7.55495 -1.93978 0
    endloop
  endfacet
  facet normal 0.368043 -0.929595 -0.0199588
    outer loop
      vertex 2.78946 -7.31965 2.4
      vertex 3.35514 -7.13004 4
      vertex 2.43505 -7.49432 4
    endloop
  endfacet
  facet normal 0.368035 -0.929598 -0.0199555
    outer loop
      vertex 3.03429 -7.22272 2.4
      vertex 3.35514 -7.13004 4
      vertex 2.78946 -7.31965 2.4
    endloop
  endfacet
  facet normal 0.368076 -0.929582 -0.0199523
    outer loop
      vertex 3.32108 -7.05765 0
      vertex 3.03429 -7.22272 2.4
      vertex 3.03552 -7.19839 1.28915
    endloop
  endfacet
  facet normal 0.368042 -0.929595 -0.0199572
    outer loop
      vertex 3.03429 -7.22272 2.4
      vertex 3.32108 -7.05765 0
      vertex 3.35514 -7.13004 4
    endloop
  endfacet
  facet normal -0.950868 -0.308954 -0.0199554
    outer loop
      vertex -7.25226 -2.87137 0
      vertex -7.63243 -1.95968 4
      vertex -7.55495 -1.93978 0
    endloop
  endfacet
  facet normal 0.950868 0.308954 -0.0199554
    outer loop
      vertex 7.55495 1.93978 0
      vertex 7.25226 2.87137 0
      vertex 7.63243 1.95968 4
    endloop
  endfacet
  facet normal -0.125312 0.991917 -0.0199532
    outer loop
      vertex -0.881503 7.78341 2.4
      vertex -1.47656 7.74042 4
      vertex -0.494789 7.86445 4
    endloop
  endfacet
  facet normal -0.125314 0.991916 -0.0199541
    outer loop
      vertex -1.47656 7.74042 4
      vertex -0.881503 7.78341 2.4
      vertex -1.47057 7.70899 2.4
    endloop
  endfacet
  facet normal -0.68441 0.728824 -0.0199557
    outer loop
      vertex -4.97191 6.01 0
      vertex -5.74427 5.39423 4
      vertex -5.0229 6.07164 4
    endloop
  endfacet
  facet normal 0.481665 -0.876128 -0.0199571
    outer loop
      vertex 3.35514 -7.13004 4
      vertex 3.32108 -7.05765 0
      vertex 4.22231 -6.6533 4
    endloop
  endfacet
  facet normal -0.770367 -0.637289 -0.0199575
    outer loop
      vertex -5.68596 -5.33947 0
      vertex -6.37505 -4.63175 4
      vertex -6.31033 -4.58472 0
    endloop
  endfacet
  facet normal -0.997828 -0.0627828 -0.0199568
    outer loop
      vertex -7.73849 -0.977599 0
      vertex -7.81786 -0.987625 4
      vertex -7.8 0 0
    endloop
  endfacet
  facet normal 0.481665 0.876128 -0.0199571
    outer loop
      vertex 4.22231 6.6533 4
      vertex 3.32108 7.05765 0
      vertex 3.35514 7.13004 4
    endloop
  endfacet
  facet normal -0.684407 -0.728827 -0.0199546
    outer loop
      vertex -4.97191 -6.01 0
      vertex -5.74427 -5.39423 4
      vertex -5.68596 -5.33947 0
    endloop
  endfacet
  facet normal 0.481655 -0.876133 -0.0199545
    outer loop
      vertex 4.22231 -6.6533 4
      vertex 3.32108 -7.05765 0
      vertex 4.17945 -6.58576 0
    endloop
  endfacet
  facet normal -0.481665 -0.876128 -0.0199571
    outer loop
      vertex -3.35514 -7.13004 4
      vertex -4.22231 -6.6533 4
      vertex -3.32108 -7.05765 0
    endloop
  endfacet
  facet normal 0.587666 -0.808857 -0.0199558
    outer loop
      vertex 5.0229 -6.07164 4
      vertex 4.22231 -6.6533 4
      vertex 4.97191 -6.01 0
    endloop
  endfacet
  facet normal -0.982093 0.187338 -0.0199551
    outer loop
      vertex -7.55495 1.93978 0
      vertex -7.73849 0.977599 0
      vertex -7.63243 1.95968 4
    endloop
  endfacet
  facet normal 0.844158 -0.535723 -0.0199577
    outer loop
      vertex 6.9053 -3.79622 4
      vertex 6.31033 -4.58472 0
      vertex 6.83519 -3.75768 0
    endloop
  endfacet
  facet normal -0.684407 0.728827 -0.0199546
    outer loop
      vertex -5.68596 5.33947 0
      vertex -5.74427 5.39423 4
      vertex -4.97191 6.01 0
    endloop
  endfacet
  facet normal 0.68441 -0.728824 -0.0199557
    outer loop
      vertex 5.0229 -6.07164 4
      vertex 4.97191 -6.01 0
      vertex 5.74427 -5.39423 4
    endloop
  endfacet
  facet normal 0.684407 -0.728827 -0.0199546
    outer loop
      vertex 5.74427 -5.39423 4
      vertex 4.97191 -6.01 0
      vertex 5.68596 -5.33947 0
    endloop
  endfacet
  facet normal -0.770359 0.637298 -0.0199545
    outer loop
      vertex -5.68596 5.33947 0
      vertex -6.37505 4.63175 4
      vertex -5.74427 5.39423 4
    endloop
  endfacet
  facet normal 0.368059 -0.929588 -0.0199547
    outer loop
      vertex 2.43505 -7.49432 4
      vertex 2.42516 -7.46389 2.4
      vertex 2.78946 -7.31965 2.4
    endloop
  endfacet
  facet normal 0.368037 -0.929597 -0.0199626
    outer loop
      vertex 3.32108 -7.05765 0
      vertex 3.03552 -7.19839 1.28915
      vertex 3.03695 -7.17014 0
    endloop
  endfacet
  facet normal -0.248643 0.96839 -0.0199537
    outer loop
      vertex -1.47057 7.70899 2.4
      vertex -1.85007 7.61155 2.4
      vertex -1.47656 7.74042 4
    endloop
  endfacet
  facet normal -0.997828 0.0627819 -0.0199566
    outer loop
      vertex -7.8 0 0
      vertex -7.88 0 4
      vertex -7.81786 0.987625 4
    endloop
  endfacet
  facet normal -0.950869 0.308951 -0.0199561
    outer loop
      vertex -7.25226 2.87137 0
      vertex -7.63243 1.95968 4
      vertex -7.32664 2.90082 4
    endloop
  endfacet
  facet normal 0.12529 0.991919 -0.0199585
    outer loop
      vertex 0.881503 7.78341 2.4
      vertex 0.49278 7.83251 2.4
      vertex 0.494789 7.86445 4
    endloop
  endfacet
  facet normal -0.770367 0.637289 -0.0199575
    outer loop
      vertex -6.31033 4.58472 0
      vertex -6.37505 4.63175 4
      vertex -5.68596 5.33947 0
    endloop
  endfacet
  facet normal 0.982092 0.187345 -0.0199567
    outer loop
      vertex 7.73849 0.977599 0
      vertex 7.63243 1.95968 4
      vertex 7.81786 0.987625 4
    endloop
  endfacet
  facet normal -0.248643 -0.96839 -0.0199537
    outer loop
      vertex -1.47656 -7.74042 4
      vertex -1.85007 -7.61155 2.4
      vertex -1.47057 -7.70899 2.4
    endloop
  endfacet
  facet normal -0.904648 -0.425692 -0.0199561
    outer loop
      vertex -6.9053 -3.79622 4
      vertex -7.32664 -2.90082 4
      vertex -7.25226 -2.87137 0
    endloop
  endfacet
  facet normal -0.950869 -0.308951 -0.0199561
    outer loop
      vertex -7.32664 -2.90082 4
      vertex -7.63243 -1.95968 4
      vertex -7.25226 -2.87137 0
    endloop
  endfacet
  facet normal -0.844157 -0.535725 -0.0199572
    outer loop
      vertex -6.37505 -4.63175 4
      vertex -6.9053 -3.79622 4
      vertex -6.31033 -4.58472 0
    endloop
  endfacet
  facet normal -0.481655 -0.876133 -0.0199545
    outer loop
      vertex -3.32108 -7.05765 0
      vertex -4.22231 -6.6533 4
      vertex -4.17945 -6.58576 0
    endloop
  endfacet
  facet normal 0.904645 0.425698 -0.0199578
    outer loop
      vertex 7.25226 2.87137 0
      vertex 6.83519 3.75768 0
      vertex 6.9053 3.79622 4
    endloop
  endfacet
  facet normal 0.904648 0.425692 -0.0199561
    outer loop
      vertex 7.25226 2.87137 0
      vertex 6.9053 3.79622 4
      vertex 7.32664 2.90082 4
    endloop
  endfacet
  facet normal -0.904648 0.425692 -0.0199561
    outer loop
      vertex -7.25226 2.87137 0
      vertex -7.32664 2.90082 4
      vertex -6.9053 3.79622 4
    endloop
  endfacet
  facet normal -0.997828 0.0627828 -0.0199568
    outer loop
      vertex -7.8 0 0
      vertex -7.81786 0.987625 4
      vertex -7.73849 0.977599 0
    endloop
  endfacet
  facet normal 0.125314 0.991916 -0.0199541
    outer loop
      vertex 0.881503 7.78341 2.4
      vertex 1.47656 7.74042 4
      vertex 1.47057 7.70899 2.4
    endloop
  endfacet
  facet normal 0.125312 0.991917 -0.0199532
    outer loop
      vertex 1.47656 7.74042 4
      vertex 0.881503 7.78341 2.4
      vertex 0.494789 7.86445 4
    endloop
  endfacet
  facet normal -0.368043 0.929595 -0.0199588
    outer loop
      vertex -2.78946 7.31965 2.4
      vertex -3.35514 7.13004 4
      vertex -2.43505 7.49432 4
    endloop
  endfacet
  facet normal -0.368035 0.929598 -0.0199555
    outer loop
      vertex -3.03429 7.22272 2.4
      vertex -3.35514 7.13004 4
      vertex -2.78946 7.31965 2.4
    endloop
  endfacet
  facet normal -0.368076 0.929582 -0.0199523
    outer loop
      vertex -3.32108 7.05765 0
      vertex -3.03429 7.22272 2.4
      vertex -3.03552 7.19839 1.28915
    endloop
  endfacet
  facet normal -0.368042 0.929595 -0.0199572
    outer loop
      vertex -3.03429 7.22272 2.4
      vertex -3.32108 7.05765 0
      vertex -3.35514 7.13004 4
    endloop
  endfacet
  facet normal 0.950869 0.308951 -0.0199561
    outer loop
      vertex 7.63243 1.95968 4
      vertex 7.25226 2.87137 0
      vertex 7.32664 2.90082 4
    endloop
  endfacet
  facet normal 0.481655 0.876133 -0.0199545
    outer loop
      vertex 4.17945 6.58576 0
      vertex 3.32108 7.05765 0
      vertex 4.22231 6.6533 4
    endloop
  endfacet
  facet normal -0.950868 0.308954 -0.0199554
    outer loop
      vertex -7.55495 1.93978 0
      vertex -7.63243 1.95968 4
      vertex -7.25226 2.87137 0
    endloop
  endfacet
  facet normal -0.587671 0.808854 -0.0199544
    outer loop
      vertex -4.17945 6.58576 0
      vertex -4.97191 6.01 0
      vertex -4.22231 6.6533 4
    endloop
  endfacet
  facet normal 0.587671 0.808854 -0.0199544
    outer loop
      vertex 4.97191 6.01 0
      vertex 4.17945 6.58576 0
      vertex 4.22231 6.6533 4
    endloop
  endfacet
  facet normal 0.248644 0.96839 -0.0199545
    outer loop
      vertex 1.85007 7.61155 2.4
      vertex 2.43505 7.49432 4
      vertex 2.42516 7.46389 2.4
    endloop
  endfacet
  facet normal 0.248642 0.96839 -0.0199539
    outer loop
      vertex 2.43505 7.49432 4
      vertex 1.85007 7.61155 2.4
      vertex 1.47656 7.74042 4
    endloop
  endfacet
  facet normal -0.587666 0.808857 -0.0199558
    outer loop
      vertex -4.97191 6.01 0
      vertex -5.0229 6.07164 4
      vertex -4.22231 6.6533 4
    endloop
  endfacet
  facet normal 0 0 1
    outer loop
      vertex 3 0 4
      vertex 7.88 0 4
      vertex 7.81786 0.987625 4
    endloop
  endfacet
  facet normal 0 0 1
    outer loop
      vertex 2.97634 0.375999 4
      vertex 7.81786 0.987625 4
      vertex 7.63243 1.95968 4
    endloop
  endfacet
  facet normal 0 0 1
    outer loop
      vertex 7.88 0 4
      vertex 3 0 4
      vertex 7.81786 -0.987625 4
    endloop
  endfacet
  facet normal 0 0 1
    outer loop
      vertex 2.90575 0.746069 4
      vertex 7.63243 1.95968 4
      vertex 7.32664 2.90082 4
    endloop
  endfacet
  facet normal -0 0 1
    outer loop
      vertex 2.97634 -0.375999 4
      vertex 7.81786 -0.987625 4
      vertex 3 0 4
    endloop
  endfacet
  facet normal 0 0 1
    outer loop
      vertex 2.78933 1.10437 4
      vertex 7.32664 2.90082 4
      vertex 6.9053 3.79622 4
    endloop
  endfacet
  facet normal 0 0 1
    outer loop
      vertex 7.81786 -0.987625 4
      vertex 2.97634 -0.375999 4
      vertex 7.63243 -1.95968 4
    endloop
  endfacet
  facet normal 0 0 1
    outer loop
      vertex 2.62892 1.44526 4
      vertex 6.9053 3.79622 4
      vertex 6.37505 4.63175 4
    endloop
  endfacet
  facet normal -0 0 1
    outer loop
      vertex 2.90575 -0.746069 4
      vertex 7.63243 -1.95968 4
      vertex 2.97634 -0.375999 4
    endloop
  endfacet
  facet normal 0 0 1
    outer loop
      vertex 2.42705 1.76336 4
      vertex 6.37505 4.63175 4
      vertex 5.74427 5.39423 4
    endloop
  endfacet
  facet normal 0 0 1
    outer loop
      vertex 7.63243 -1.95968 4
      vertex 2.90575 -0.746069 4
      vertex 7.32664 -2.90082 4
    endloop
  endfacet
  facet normal 0 0 1
    outer loop
      vertex 2.18691 2.05364 4
      vertex 5.74427 5.39423 4
      vertex 5.0229 6.07164 4
    endloop
  endfacet
  facet normal -0 0 1
    outer loop
      vertex 2.78933 -1.10437 4
      vertex 7.32664 -2.90082 4
      vertex 2.90575 -0.746069 4
    endloop
  endfacet
  facet normal 0 0 1
    outer loop
      vertex 1.91227 2.31154 4
      vertex 5.0229 6.07164 4
      vertex 4.22231 6.6533 4
    endloop
  endfacet
  facet normal 0 0 1
    outer loop
      vertex 7.32664 -2.90082 4
      vertex 2.78933 -1.10437 4
      vertex 6.9053 -3.79622 4
    endloop
  endfacet
  facet normal 0 0 1
    outer loop
      vertex 1.60748 2.53298 4
      vertex 4.22231 6.6533 4
      vertex 3.35514 7.13004 4
    endloop
  endfacet
  facet normal -0 0 1
    outer loop
      vertex 2.62892 -1.44526 4
      vertex 6.9053 -3.79622 4
      vertex 2.78933 -1.10437 4
    endloop
  endfacet
  facet normal 0 0 1
    outer loop
      vertex 6.9053 -3.79622 4
      vertex 2.62892 -1.44526 4
      vertex 6.37505 -4.63175 4
    endloop
  endfacet
  facet normal 0 0 1
    outer loop
      vertex 7.81786 0.987625 4
      vertex 2.97634 0.375999 4
      vertex 3 0 4
    endloop
  endfacet
  facet normal 0 0 1
    outer loop
      vertex 7.63243 1.95968 4
      vertex 2.90575 0.746069 4
      vertex 2.97634 0.375999 4
    endloop
  endfacet
  facet normal 0 0 1
    outer loop
      vertex 7.32664 2.90082 4
      vertex 2.78933 1.10437 4
      vertex 2.90575 0.746069 4
    endloop
  endfacet
  facet normal 0 0 1
    outer loop
      vertex 6.9053 3.79622 4
      vertex 2.62892 1.44526 4
      vertex 2.78933 1.10437 4
    endloop
  endfacet
  facet normal 0 0 1
    outer loop
      vertex 1.27734 2.71448 4
      vertex 3.35514 7.13004 4
      vertex 2.43505 7.49432 4
    endloop
  endfacet
  facet normal 0 0 1
    outer loop
      vertex 6.37505 4.63175 4
      vertex 2.42705 1.76336 4
      vertex 2.62892 1.44526 4
    endloop
  endfacet
  facet normal 0 0 1
    outer loop
      vertex 5.74427 5.39423 4
      vertex 2.18691 2.05364 4
      vertex 2.42705 1.76336 4
    endloop
  endfacet
  facet normal 0 0 1
    outer loop
      vertex 5.0229 6.07164 4
      vertex 1.91227 2.31154 4
      vertex 2.18691 2.05364 4
    endloop
  endfacet
  facet normal 0 0 1
    outer loop
      vertex 4.22231 6.6533 4
      vertex 1.60748 2.53298 4
      vertex 1.91227 2.31154 4
    endloop
  endfacet
  facet normal 0 0 1
    outer loop
      vertex 0.927051 2.85317 4
      vertex 2.43505 7.49432 4
      vertex 1.47656 7.74042 4
    endloop
  endfacet
  facet normal 0 0 1
    outer loop
      vertex 3.35514 7.13004 4
      vertex 1.27734 2.71448 4
      vertex 1.60748 2.53298 4
    endloop
  endfacet
  facet normal 0 0 1
    outer loop
      vertex 2.43505 7.49432 4
      vertex 0.927051 2.85317 4
      vertex 1.27734 2.71448 4
    endloop
  endfacet
  facet normal 0 0 1
    outer loop
      vertex 1.47656 7.74042 4
      vertex 0.562143 2.94686 4
      vertex 0.927051 2.85317 4
    endloop
  endfacet
  facet normal 0 0 1
    outer loop
      vertex 0.494789 7.86445 4
      vertex 0.562143 2.94686 4
      vertex 1.47656 7.74042 4
    endloop
  endfacet
  facet normal 0 0 1
    outer loop
      vertex 0.494789 7.86445 4
      vertex 0.188371 2.99408 4
      vertex 0.562143 2.94686 4
    endloop
  endfacet
  facet normal 0 0 1
    outer loop
      vertex 0.494789 7.86445 4
      vertex -0.188371 2.99408 4
      vertex 0.188371 2.99408 4
    endloop
  endfacet
  facet normal -0 0 1
    outer loop
      vertex -0.494789 7.86445 4
      vertex -0.188371 2.99408 4
      vertex 0.494789 7.86445 4
    endloop
  endfacet
  facet normal 0 0 1
    outer loop
      vertex -0.494789 7.86445 4
      vertex -0.562143 2.94686 4
      vertex -0.188371 2.99408 4
    endloop
  endfacet
  facet normal -0 0 1
    outer loop
      vertex -1.47656 7.74042 4
      vertex -0.562143 2.94686 4
      vertex -0.494789 7.86445 4
    endloop
  endfacet
  facet normal 0 0 1
    outer loop
      vertex -0.562143 2.94686 4
      vertex -1.47656 7.74042 4
      vertex -0.927051 2.85317 4
    endloop
  endfacet
  facet normal -0 0 1
    outer loop
      vertex -2.43505 7.49432 4
      vertex -0.927051 2.85317 4
      vertex -1.47656 7.74042 4
    endloop
  endfacet
  facet normal 0 0 1
    outer loop
      vertex -0.927051 2.85317 4
      vertex -2.43505 7.49432 4
      vertex -1.27734 2.71448 4
    endloop
  endfacet
  facet normal -0 0 1
    outer loop
      vertex -3.35514 7.13004 4
      vertex -1.27734 2.71448 4
      vertex -2.43505 7.49432 4
    endloop
  endfacet
  facet normal 0 0 1
    outer loop
      vertex -1.27734 2.71448 4
      vertex -3.35514 7.13004 4
      vertex -1.60748 2.53298 4
    endloop
  endfacet
  facet normal -0 0 1
    outer loop
      vertex -4.22231 6.6533 4
      vertex -1.60748 2.53298 4
      vertex -3.35514 7.13004 4
    endloop
  endfacet
  facet normal 0 0 1
    outer loop
      vertex -1.60748 2.53298 4
      vertex -4.22231 6.6533 4
      vertex -1.91227 2.31154 4
    endloop
  endfacet
  facet normal -0 0 1
    outer loop
      vertex -5.0229 6.07164 4
      vertex -1.91227 2.31154 4
      vertex -4.22231 6.6533 4
    endloop
  endfacet
  facet normal 0 0 1
    outer loop
      vertex -1.91227 2.31154 4
      vertex -5.0229 6.07164 4
      vertex -2.18691 2.05364 4
    endloop
  endfacet
  facet normal -0 0 1
    outer loop
      vertex -5.74427 5.39423 4
      vertex -2.18691 2.05364 4
      vertex -5.0229 6.07164 4
    endloop
  endfacet
  facet normal 0 0 1
    outer loop
      vertex -2.18691 2.05364 4
      vertex -5.74427 5.39423 4
      vertex -2.42705 1.76336 4
    endloop
  endfacet
  facet normal 0 0 1
    outer loop
      vertex -2.42705 1.76336 4
      vertex -6.37505 4.63175 4
      vertex -2.62892 1.44526 4
    endloop
  endfacet
  facet normal -0 0 1
    outer loop
      vertex -6.37505 4.63175 4
      vertex -2.42705 1.76336 4
      vertex -5.74427 5.39423 4
    endloop
  endfacet
  facet normal -0 0 1
    outer loop
      vertex 2.42705 -1.76336 4
      vertex 6.37505 -4.63175 4
      vertex 2.62892 -1.44526 4
    endloop
  endfacet
  facet normal 0 0 1
    outer loop
      vertex 6.37505 -4.63175 4
      vertex 2.42705 -1.76336 4
      vertex 5.74427 -5.39423 4
    endloop
  endfacet
  facet normal -0 0 1
    outer loop
      vertex 2.18691 -2.05364 4
      vertex 5.74427 -5.39423 4
      vertex 2.42705 -1.76336 4
    endloop
  endfacet
  facet normal 0 0 1
    outer loop
      vertex 5.74427 -5.39423 4
      vertex 2.18691 -2.05364 4
      vertex 5.0229 -6.07164 4
    endloop
  endfacet
  facet normal -0 0 1
    outer loop
      vertex 1.91227 -2.31154 4
      vertex 5.0229 -6.07164 4
      vertex 2.18691 -2.05364 4
    endloop
  endfacet
  facet normal 0 0 1
    outer loop
      vertex 5.0229 -6.07164 4
      vertex 1.91227 -2.31154 4
      vertex 4.22231 -6.6533 4
    endloop
  endfacet
  facet normal -0 0 1
    outer loop
      vertex 1.60748 -2.53298 4
      vertex 4.22231 -6.6533 4
      vertex 1.91227 -2.31154 4
    endloop
  endfacet
  facet normal 0 0 1
    outer loop
      vertex 4.22231 -6.6533 4
      vertex 1.60748 -2.53298 4
      vertex 3.35514 -7.13004 4
    endloop
  endfacet
  facet normal -0 0 1
    outer loop
      vertex 1.27734 -2.71448 4
      vertex 3.35514 -7.13004 4
      vertex 1.60748 -2.53298 4
    endloop
  endfacet
  facet normal 0 0 1
    outer loop
      vertex 3.35514 -7.13004 4
      vertex 1.27734 -2.71448 4
      vertex 2.43505 -7.49432 4
    endloop
  endfacet
  facet normal -0 0 1
    outer loop
      vertex 0.927051 -2.85317 4
      vertex 2.43505 -7.49432 4
      vertex 1.27734 -2.71448 4
    endloop
  endfacet
  facet normal 0 0 1
    outer loop
      vertex 2.43505 -7.49432 4
      vertex 0.927051 -2.85317 4
      vertex 1.47656 -7.74042 4
    endloop
  endfacet
  facet normal -0 0 1
    outer loop
      vertex 0.562143 -2.94686 4
      vertex 1.47656 -7.74042 4
      vertex 0.927051 -2.85317 4
    endloop
  endfacet
  facet normal 0 0 1
    outer loop
      vertex 0.562143 -2.94686 4
      vertex 0.494789 -7.86445 4
      vertex 1.47656 -7.74042 4
    endloop
  endfacet
  facet normal -0 0 1
    outer loop
      vertex 0.188371 -2.99408 4
      vertex 0.494789 -7.86445 4
      vertex 0.562143 -2.94686 4
    endloop
  endfacet
  facet normal -0 0 1
    outer loop
      vertex -0.188371 -2.99408 4
      vertex 0.494789 -7.86445 4
      vertex 0.188371 -2.99408 4
    endloop
  endfacet
  facet normal 0 0 1
    outer loop
      vertex -0.188371 -2.99408 4
      vertex -0.494789 -7.86445 4
      vertex 0.494789 -7.86445 4
    endloop
  endfacet
  facet normal 0 0 1
    outer loop
      vertex -0.562143 -2.94686 4
      vertex -0.494789 -7.86445 4
      vertex -0.188371 -2.99408 4
    endloop
  endfacet
  facet normal 0 0 1
    outer loop
      vertex -1.47656 -7.74042 4
      vertex -0.562143 -2.94686 4
      vertex -0.927051 -2.85317 4
    endloop
  endfacet
  facet normal 0 0 1
    outer loop
      vertex -2.43505 -7.49432 4
      vertex -0.927051 -2.85317 4
      vertex -1.27734 -2.71448 4
    endloop
  endfacet
  facet normal 0 0 1
    outer loop
      vertex -0.562143 -2.94686 4
      vertex -1.47656 -7.74042 4
      vertex -0.494789 -7.86445 4
    endloop
  endfacet
  facet normal 0 0 1
    outer loop
      vertex -3.35514 -7.13004 4
      vertex -1.27734 -2.71448 4
      vertex -1.60748 -2.53298 4
    endloop
  endfacet
  facet normal 0 0 1
    outer loop
      vertex -4.22231 -6.6533 4
      vertex -1.60748 -2.53298 4
      vertex -1.91227 -2.31154 4
    endloop
  endfacet
  facet normal 0 0 1
    outer loop
      vertex -5.0229 -6.07164 4
      vertex -1.91227 -2.31154 4
      vertex -2.18691 -2.05364 4
    endloop
  endfacet
  facet normal 0 0 1
    outer loop
      vertex -5.74427 -5.39423 4
      vertex -2.18691 -2.05364 4
      vertex -2.42705 -1.76336 4
    endloop
  endfacet
  facet normal 0 0 1
    outer loop
      vertex -0.927051 -2.85317 4
      vertex -2.43505 -7.49432 4
      vertex -1.47656 -7.74042 4
    endloop
  endfacet
  facet normal 0 0 1
    outer loop
      vertex -6.37505 -4.63175 4
      vertex -2.42705 -1.76336 4
      vertex -2.62892 -1.44526 4
    endloop
  endfacet
  facet normal 0 0 1
    outer loop
      vertex -6.9053 -3.79622 4
      vertex -2.62892 -1.44526 4
      vertex -2.78933 -1.10437 4
    endloop
  endfacet
  facet normal 0 0 1
    outer loop
      vertex -7.32664 -2.90082 4
      vertex -2.78933 -1.10437 4
      vertex -2.90575 -0.746069 4
    endloop
  endfacet
  facet normal 0 0 1
    outer loop
      vertex -7.63243 -1.95968 4
      vertex -2.90575 -0.746069 4
      vertex -2.97634 -0.375999 4
    endloop
  endfacet
  facet normal 0 0 1
    outer loop
      vertex -1.27734 -2.71448 4
      vertex -3.35514 -7.13004 4
      vertex -2.43505 -7.49432 4
    endloop
  endfacet
  facet normal 0 0 1
    outer loop
      vertex -7.81786 -0.987625 4
      vertex -2.97634 -0.375999 4
      vertex -3 0 4
    endloop
  endfacet
  facet normal -0 0 1
    outer loop
      vertex -6.9053 3.79622 4
      vertex -2.62892 1.44526 4
      vertex -6.37505 4.63175 4
    endloop
  endfacet
  facet normal 0 0 1
    outer loop
      vertex -2.62892 1.44526 4
      vertex -6.9053 3.79622 4
      vertex -2.78933 1.10437 4
    endloop
  endfacet
  facet normal 0 0 1
    outer loop
      vertex -1.60748 -2.53298 4
      vertex -4.22231 -6.6533 4
      vertex -3.35514 -7.13004 4
    endloop
  endfacet
  facet normal -0 0 1
    outer loop
      vertex -7.32664 2.90082 4
      vertex -2.78933 1.10437 4
      vertex -6.9053 3.79622 4
    endloop
  endfacet
  facet normal 0 0 1
    outer loop
      vertex -1.91227 -2.31154 4
      vertex -5.0229 -6.07164 4
      vertex -4.22231 -6.6533 4
    endloop
  endfacet
  facet normal 0 0 1
    outer loop
      vertex -2.78933 1.10437 4
      vertex -7.32664 2.90082 4
      vertex -2.90575 0.746069 4
    endloop
  endfacet
  facet normal 0 0 1
    outer loop
      vertex -2.18691 -2.05364 4
      vertex -5.74427 -5.39423 4
      vertex -5.0229 -6.07164 4
    endloop
  endfacet
  facet normal -0 0 1
    outer loop
      vertex -7.63243 1.95968 4
      vertex -2.90575 0.746069 4
      vertex -7.32664 2.90082 4
    endloop
  endfacet
  facet normal 0 0 1
    outer loop
      vertex -2.42705 -1.76336 4
      vertex -6.37505 -4.63175 4
      vertex -5.74427 -5.39423 4
    endloop
  endfacet
  facet normal 0 0 1
    outer loop
      vertex -2.90575 0.746069 4
      vertex -7.63243 1.95968 4
      vertex -2.97634 0.375999 4
    endloop
  endfacet
  facet normal 0 0 1
    outer loop
      vertex -2.62892 -1.44526 4
      vertex -6.9053 -3.79622 4
      vertex -6.37505 -4.63175 4
    endloop
  endfacet
  facet normal -0 0 1
    outer loop
      vertex -7.81786 0.987625 4
      vertex -2.97634 0.375999 4
      vertex -7.63243 1.95968 4
    endloop
  endfacet
  facet normal 0 0 1
    outer loop
      vertex -2.78933 -1.10437 4
      vertex -7.32664 -2.90082 4
      vertex -6.9053 -3.79622 4
    endloop
  endfacet
  facet normal 0 0 1
    outer loop
      vertex -2.97634 0.375999 4
      vertex -7.81786 0.987625 4
      vertex -3 0 4
    endloop
  endfacet
  facet normal 0 0 1
    outer loop
      vertex -2.90575 -0.746069 4
      vertex -7.63243 -1.95968 4
      vertex -7.32664 -2.90082 4
    endloop
  endfacet
  facet normal 0 0 1
    outer loop
      vertex -7.88 0 4
      vertex -3 0 4
      vertex -7.81786 0.987625 4
    endloop
  endfacet
  facet normal 0 0 1
    outer loop
      vertex -2.97634 -0.375999 4
      vertex -7.81786 -0.987625 4
      vertex -7.63243 -1.95968 4
    endloop
  endfacet
  facet normal 0 0 1
    outer loop
      vertex -3 0 4
      vertex -7.88 0 4
      vertex -7.81786 -0.987625 4
    endloop
  endfacet
  facet normal 0.982093 0.187338 -0.0199551
    outer loop
      vertex 7.73849 0.977599 0
      vertex 7.55495 1.93978 0
      vertex 7.63243 1.95968 4
    endloop
  endfacet
  facet normal 0.844157 0.535725 -0.0199572
    outer loop
      vertex 6.9053 3.79622 4
      vertex 6.31033 4.58472 0
      vertex 6.37505 4.63175 4
    endloop
  endfacet
  facet normal 0.844158 0.535723 -0.0199577
    outer loop
      vertex 6.83519 3.75768 0
      vertex 6.31033 4.58472 0
      vertex 6.9053 3.79622 4
    endloop
  endfacet
  facet normal 0.770367 0.637289 -0.0199575
    outer loop
      vertex 6.31033 4.58472 0
      vertex 5.68596 5.33947 0
      vertex 6.37505 4.63175 4
    endloop
  endfacet
  facet normal -0.844158 0.535723 -0.0199577
    outer loop
      vertex -6.83519 3.75768 0
      vertex -6.9053 3.79622 4
      vertex -6.31033 4.58472 0
    endloop
  endfacet
  facet normal 0 0 -1
    outer loop
      vertex -3.32108 -7.05765 0
      vertex -3.31122 -1.7533 0
      vertex -3.03695 -7.17014 0
    endloop
  endfacet
  facet normal 0 0 -1
    outer loop
      vertex -4.17945 -6.58576 0
      vertex -3.31122 -1.7533 0
      vertex -3.32108 -7.05765 0
    endloop
  endfacet
  facet normal 0 0 -1
    outer loop
      vertex -4.97191 -6.01 0
      vertex -3.31122 -1.7533 0
      vertex -4.17945 -6.58576 0
    endloop
  endfacet
  facet normal 0 0 -1
    outer loop
      vertex -5.68596 -5.33947 0
      vertex -3.31122 -1.7533 0
      vertex -4.97191 -6.01 0
    endloop
  endfacet
  facet normal 0 0 -1
    outer loop
      vertex -6.31033 -4.58472 0
      vertex -3.31122 -1.7533 0
      vertex -5.68596 -5.33947 0
    endloop
  endfacet
  facet normal 0 0 -1
    outer loop
      vertex -6.83519 -3.75768 0
      vertex -3.31122 -1.7533 0
      vertex -6.31033 -4.58472 0
    endloop
  endfacet
  facet normal 0 0 -1
    outer loop
      vertex -3.31122 1.7533 0
      vertex -3.32108 7.05765 0
      vertex -3.03695 7.17014 0
    endloop
  endfacet
  facet normal 0 0 -1
    outer loop
      vertex -7.25226 2.87137 0
      vertex -3.31122 1.7533 0
      vertex -3.48666 1.38047 0
    endloop
  endfacet
  facet normal 0 0 -1
    outer loop
      vertex -7.25226 2.87137 0
      vertex -3.48666 1.38047 0
      vertex -3.63219 0.932587 0
    endloop
  endfacet
  facet normal 0 0 -1
    outer loop
      vertex -7.55495 1.93978 0
      vertex -3.63219 0.932587 0
      vertex -3.72043 0.469999 0
    endloop
  endfacet
  facet normal 0 0 -1
    outer loop
      vertex -7.73849 0.977599 0
      vertex -3.72043 0.469999 0
      vertex -3.75 0 0
    endloop
  endfacet
  facet normal 0 0 -1
    outer loop
      vertex -7.25226 -2.87137 0
      vertex -3.31122 -1.7533 0
      vertex -6.83519 -3.75768 0
    endloop
  endfacet
  facet normal 0 0 -1
    outer loop
      vertex -3.31122 1.7533 0
      vertex -4.17945 6.58576 0
      vertex -3.32108 7.05765 0
    endloop
  endfacet
  facet normal -0 0 -1
    outer loop
      vertex -3.31122 -1.7533 0
      vertex -7.25226 -2.87137 0
      vertex -3.48666 -1.38047 0
    endloop
  endfacet
  facet normal 0 0 -1
    outer loop
      vertex -3.31122 1.7533 0
      vertex -4.97191 6.01 0
      vertex -4.17945 6.58576 0
    endloop
  endfacet
  facet normal -0 0 -1
    outer loop
      vertex -3.48666 -1.38047 0
      vertex -7.25226 -2.87137 0
      vertex -3.63219 -0.932587 0
    endloop
  endfacet
  facet normal 0 0 -1
    outer loop
      vertex -3.31122 1.7533 0
      vertex -5.68596 5.33947 0
      vertex -4.97191 6.01 0
    endloop
  endfacet
  facet normal 0 0 -1
    outer loop
      vertex -7.55495 -1.93978 0
      vertex -3.63219 -0.932587 0
      vertex -7.25226 -2.87137 0
    endloop
  endfacet
  facet normal 0 0 -1
    outer loop
      vertex -3.31122 1.7533 0
      vertex -6.31033 4.58472 0
      vertex -5.68596 5.33947 0
    endloop
  endfacet
  facet normal -0 0 -1
    outer loop
      vertex -3.63219 -0.932587 0
      vertex -7.55495 -1.93978 0
      vertex -3.72043 -0.469999 0
    endloop
  endfacet
  facet normal 0 0 -1
    outer loop
      vertex -3.31122 1.7533 0
      vertex -6.83519 3.75768 0
      vertex -6.31033 4.58472 0
    endloop
  endfacet
  facet normal 0 0 -1
    outer loop
      vertex -7.73849 -0.977599 0
      vertex -3.72043 -0.469999 0
      vertex -7.55495 -1.93978 0
    endloop
  endfacet
  facet normal 0 0 -1
    outer loop
      vertex -3.31122 1.7533 0
      vertex -7.25226 2.87137 0
      vertex -6.83519 3.75768 0
    endloop
  endfacet
  facet normal -0 0 -1
    outer loop
      vertex -3.72043 -0.469999 0
      vertex -7.73849 -0.977599 0
      vertex -3.75 0 0
    endloop
  endfacet
  facet normal 0 0 -1
    outer loop
      vertex -3.63219 0.932587 0
      vertex -7.55495 1.93978 0
      vertex -7.25226 2.87137 0
    endloop
  endfacet
  facet normal 0 0 -1
    outer loop
      vertex -7.8 0 0
      vertex -3.75 0 0
      vertex -7.73849 -0.977599 0
    endloop
  endfacet
  facet normal 0 0 -1
    outer loop
      vertex -3.72043 0.469999 0
      vertex -7.73849 0.977599 0
      vertex -7.55495 1.93978 0
    endloop
  endfacet
  facet normal 0 0 -1
    outer loop
      vertex -3.75 0 0
      vertex -7.8 0 0
      vertex -7.73849 0.977599 0
    endloop
  endfacet
  facet normal 0 0 -1
    outer loop
      vertex 3.75 0 0
      vertex 7.8 0 0
      vertex 7.73849 -0.977599 0
    endloop
  endfacet
  facet normal 0 0 -1
    outer loop
      vertex 3.72043 -0.469999 0
      vertex 7.73849 -0.977599 0
      vertex 7.55495 -1.93978 0
    endloop
  endfacet
  facet normal 0 0 -1
    outer loop
      vertex 7.8 0 0
      vertex 3.75 0 0
      vertex 7.73849 0.977599 0
    endloop
  endfacet
  facet normal 0 0 -1
    outer loop
      vertex 3.63219 -0.932587 0
      vertex 7.55495 -1.93978 0
      vertex 7.25226 -2.87137 0
    endloop
  endfacet
  facet normal 0 0 -1
    outer loop
      vertex 3.72043 0.469999 0
      vertex 7.73849 0.977599 0
      vertex 3.75 0 0
    endloop
  endfacet
  facet normal 0 0 -1
    outer loop
      vertex 3.31122 -1.7533 0
      vertex 7.25226 -2.87137 0
      vertex 6.83519 -3.75768 0
    endloop
  endfacet
  facet normal -0 0 -1
    outer loop
      vertex 7.73849 0.977599 0
      vertex 3.72043 0.469999 0
      vertex 7.55495 1.93978 0
    endloop
  endfacet
  facet normal 0 0 -1
    outer loop
      vertex 3.31122 -1.7533 0
      vertex 6.83519 -3.75768 0
      vertex 6.31033 -4.58472 0
    endloop
  endfacet
  facet normal 0 0 -1
    outer loop
      vertex 3.63219 0.932587 0
      vertex 7.55495 1.93978 0
      vertex 3.72043 0.469999 0
    endloop
  endfacet
  facet normal 0 0 -1
    outer loop
      vertex 3.31122 -1.7533 0
      vertex 6.31033 -4.58472 0
      vertex 5.68596 -5.33947 0
    endloop
  endfacet
  facet normal -0 0 -1
    outer loop
      vertex 7.55495 1.93978 0
      vertex 3.63219 0.932587 0
      vertex 7.25226 2.87137 0
    endloop
  endfacet
  facet normal 0 0 -1
    outer loop
      vertex 3.31122 -1.7533 0
      vertex 5.68596 -5.33947 0
      vertex 4.97191 -6.01 0
    endloop
  endfacet
  facet normal 0 0 -1
    outer loop
      vertex 3.48666 1.38047 0
      vertex 7.25226 2.87137 0
      vertex 3.63219 0.932587 0
    endloop
  endfacet
  facet normal 0 0 -1
    outer loop
      vertex 3.31122 -1.7533 0
      vertex 4.97191 -6.01 0
      vertex 4.17945 -6.58576 0
    endloop
  endfacet
  facet normal 0 0 -1
    outer loop
      vertex 3.31122 1.7533 0
      vertex 7.25226 2.87137 0
      vertex 3.48666 1.38047 0
    endloop
  endfacet
  facet normal -0 0 -1
    outer loop
      vertex 7.25226 2.87137 0
      vertex 3.31122 1.7533 0
      vertex 6.83519 3.75768 0
    endloop
  endfacet
  facet normal 0 0 -1
    outer loop
      vertex 7.73849 -0.977599 0
      vertex 3.72043 -0.469999 0
      vertex 3.75 0 0
    endloop
  endfacet
  facet normal 0 0 -1
    outer loop
      vertex 7.55495 -1.93978 0
      vertex 3.63219 -0.932587 0
      vertex 3.72043 -0.469999 0
    endloop
  endfacet
  facet normal 0 0 -1
    outer loop
      vertex 7.25226 -2.87137 0
      vertex 3.48666 -1.38047 0
      vertex 3.63219 -0.932587 0
    endloop
  endfacet
  facet normal 0 0 -1
    outer loop
      vertex 3.31122 -1.7533 0
      vertex 4.17945 -6.58576 0
      vertex 3.32108 -7.05765 0
    endloop
  endfacet
  facet normal 0 0 -1
    outer loop
      vertex 7.25226 -2.87137 0
      vertex 3.31122 -1.7533 0
      vertex 3.48666 -1.38047 0
    endloop
  endfacet
  facet normal 0 -0 -1
    outer loop
      vertex 3.31122 -1.7533 0
      vertex 3.32108 -7.05765 0
      vertex 3.03695 -7.17014 0
    endloop
  endfacet
  facet normal -0 0 -1
    outer loop
      vertex 6.83519 3.75768 0
      vertex 3.31122 1.7533 0
      vertex 6.31033 4.58472 0
    endloop
  endfacet
  facet normal -0 0 -1
    outer loop
      vertex 6.31033 4.58472 0
      vertex 3.31122 1.7533 0
      vertex 5.68596 5.33947 0
    endloop
  endfacet
  facet normal -0 0 -1
    outer loop
      vertex 5.68596 5.33947 0
      vertex 3.31122 1.7533 0
      vertex 4.97191 6.01 0
    endloop
  endfacet
  facet normal -0 0 -1
    outer loop
      vertex 4.97191 6.01 0
      vertex 3.31122 1.7533 0
      vertex 4.17945 6.58576 0
    endloop
  endfacet
  facet normal -0 0 -1
    outer loop
      vertex 4.17945 6.58576 0
      vertex 3.31122 1.7533 0
      vertex 3.32108 7.05765 0
    endloop
  endfacet
  facet normal -0 0 -1
    outer loop
      vertex 3.32108 7.05765 0
      vertex 3.31122 1.7533 0
      vertex 3.03695 7.17014 0
    endloop
  endfacet
  facet normal 0.770359 0.637298 -0.0199545
    outer loop
      vertex 6.37505 4.63175 4
      vertex 5.68596 5.33947 0
      vertex 5.74427 5.39423 4
    endloop
  endfacet
  facet normal 0.98229 0.187369 0
    outer loop
      vertex 2.97634 0.375999 9.2
      vertex 2.90575 0.746069 4
      vertex 2.90575 0.746069 9.2
    endloop
  endfacet
  facet normal 0.98229 0.187369 0
    outer loop
      vertex 2.90575 0.746069 4
      vertex 2.97634 0.375999 9.2
      vertex 2.97634 0.375999 4
    endloop
  endfacet
  facet normal 0.998026 0.0628015 0
    outer loop
      vertex 3 0 9.2
      vertex 2.97634 0.375999 4
      vertex 2.97634 0.375999 9.2
    endloop
  endfacet
  facet normal 0.998026 0.0628015 0
    outer loop
      vertex 2.97634 0.375999 4
      vertex 3 0 9.2
      vertex 3 0 4
    endloop
  endfacet
  facet normal -0.951056 -0.309019 0
    outer loop
      vertex -2.78933 -1.10437 4
      vertex -2.90575 -0.746069 9.2
      vertex -2.90575 -0.746069 4
    endloop
  endfacet
  facet normal -0.951056 -0.309019 0
    outer loop
      vertex -2.90575 -0.746069 9.2
      vertex -2.78933 -1.10437 4
      vertex -2.78933 -1.10437 9.2
    endloop
  endfacet
  facet normal 0.684541 0.728974 -0
    outer loop
      vertex 2.18691 2.05364 4
      vertex 1.91227 2.31154 9.2
      vertex 2.18691 2.05364 9.2
    endloop
  endfacet
  facet normal 0.684541 0.728974 0
    outer loop
      vertex 1.91227 2.31154 9.2
      vertex 2.18691 2.05364 4
      vertex 1.91227 2.31154 4
    endloop
  endfacet
  facet normal -0.125337 -0.992114 0
    outer loop
      vertex -0.562143 -2.94686 4
      vertex -0.188371 -2.99408 9.2
      vertex -0.562143 -2.94686 9.2
    endloop
  endfacet
  facet normal -0.125337 -0.992114 -0
    outer loop
      vertex -0.188371 -2.99408 9.2
      vertex -0.562143 -2.94686 4
      vertex -0.188371 -2.99408 4
    endloop
  endfacet
  facet normal 0.368126 -0.929776 0
    outer loop
      vertex 0.927051 -2.85317 4
      vertex 1.27734 -2.71448 9.2
      vertex 0.927051 -2.85317 9.2
    endloop
  endfacet
  facet normal 0.368126 -0.929776 0
    outer loop
      vertex 1.27734 -2.71448 9.2
      vertex 0.927051 -2.85317 4
      vertex 1.27734 -2.71448 4
    endloop
  endfacet
  facet normal 0.904828 -0.425778 0
    outer loop
      vertex 2.62892 -1.44526 9.2
      vertex 2.78933 -1.10437 4
      vertex 2.78933 -1.10437 9.2
    endloop
  endfacet
  facet normal 0.904828 -0.425778 0
    outer loop
      vertex 2.78933 -1.10437 4
      vertex 2.62892 -1.44526 9.2
      vertex 2.62892 -1.44526 4
    endloop
  endfacet
  facet normal 0 -1 0
    outer loop
      vertex -0.188371 -2.99408 4
      vertex 0.188371 -2.99408 9.2
      vertex -0.188371 -2.99408 9.2
    endloop
  endfacet
  facet normal 0 -1 -0
    outer loop
      vertex 0.188371 -2.99408 9.2
      vertex -0.188371 -2.99408 4
      vertex 0.188371 -2.99408 4
    endloop
  endfacet
  facet normal 0.248684 0.968585 -0
    outer loop
      vertex 0.927051 2.85317 4
      vertex 0.562143 2.94686 9.2
      vertex 0.927051 2.85317 9.2
    endloop
  endfacet
  facet normal 0.248684 0.968585 0
    outer loop
      vertex 0.562143 2.94686 9.2
      vertex 0.927051 2.85317 4
      vertex 0.562143 2.94686 4
    endloop
  endfacet
  facet normal 0.58778 -0.809021 0
    outer loop
      vertex 1.60748 -2.53298 4
      vertex 1.91227 -2.31154 9.2
      vertex 1.60748 -2.53298 9.2
    endloop
  endfacet
  facet normal 0.58778 -0.809021 0
    outer loop
      vertex 1.91227 -2.31154 9.2
      vertex 1.60748 -2.53298 4
      vertex 1.91227 -2.31154 4
    endloop
  endfacet
  facet normal 0.770514 -0.637423 0
    outer loop
      vertex 2.18691 -2.05364 9.2
      vertex 2.42705 -1.76336 4
      vertex 2.42705 -1.76336 9.2
    endloop
  endfacet
  facet normal 0.770514 -0.637423 0
    outer loop
      vertex 2.42705 -1.76336 4
      vertex 2.18691 -2.05364 9.2
      vertex 2.18691 -2.05364 4
    endloop
  endfacet
  facet normal -0.98229 0.187369 0
    outer loop
      vertex -2.97634 0.375999 4
      vertex -2.90575 0.746069 9.2
      vertex -2.90575 0.746069 4
    endloop
  endfacet
  facet normal -0.98229 0.187369 0
    outer loop
      vertex -2.90575 0.746069 9.2
      vertex -2.97634 0.375999 4
      vertex -2.97634 0.375999 9.2
    endloop
  endfacet
  facet normal -0.684541 -0.728974 0
    outer loop
      vertex -2.18691 -2.05364 4
      vertex -1.91227 -2.31154 9.2
      vertex -2.18691 -2.05364 9.2
    endloop
  endfacet
  facet normal -0.684541 -0.728974 -0
    outer loop
      vertex -1.91227 -2.31154 9.2
      vertex -2.18691 -2.05364 4
      vertex -1.91227 -2.31154 4
    endloop
  endfacet
  facet normal -0.58778 0.809021 0
    outer loop
      vertex -1.60748 2.53298 4
      vertex -1.91227 2.31154 9.2
      vertex -1.60748 2.53298 9.2
    endloop
  endfacet
  facet normal -0.58778 0.809021 0
    outer loop
      vertex -1.91227 2.31154 9.2
      vertex -1.60748 2.53298 4
      vertex -1.91227 2.31154 4
    endloop
  endfacet
  facet normal 0.481762 0.876302 -0
    outer loop
      vertex 1.60748 2.53298 4
      vertex 1.27734 2.71448 9.2
      vertex 1.60748 2.53298 9.2
    endloop
  endfacet
  facet normal 0.481762 0.876302 0
    outer loop
      vertex 1.27734 2.71448 9.2
      vertex 1.60748 2.53298 4
      vertex 1.27734 2.71448 4
    endloop
  endfacet
  facet normal -0.770514 -0.637423 0
    outer loop
      vertex -2.18691 -2.05364 4
      vertex -2.42705 -1.76336 9.2
      vertex -2.42705 -1.76336 4
    endloop
  endfacet
  facet normal -0.770514 -0.637423 0
    outer loop
      vertex -2.42705 -1.76336 9.2
      vertex -2.18691 -2.05364 4
      vertex -2.18691 -2.05364 9.2
    endloop
  endfacet
  facet normal -0.58778 -0.809021 0
    outer loop
      vertex -1.91227 -2.31154 4
      vertex -1.60748 -2.53298 9.2
      vertex -1.91227 -2.31154 9.2
    endloop
  endfacet
  facet normal -0.58778 -0.809021 -0
    outer loop
      vertex -1.60748 -2.53298 9.2
      vertex -1.91227 -2.31154 4
      vertex -1.60748 -2.53298 4
    endloop
  endfacet
  facet normal 0.904828 0.425778 0
    outer loop
      vertex 2.78933 1.10437 9.2
      vertex 2.62892 1.44526 4
      vertex 2.62892 1.44526 9.2
    endloop
  endfacet
  facet normal 0.904828 0.425778 0
    outer loop
      vertex 2.62892 1.44526 4
      vertex 2.78933 1.10437 9.2
      vertex 2.78933 1.10437 4
    endloop
  endfacet
  facet normal 0.998026 -0.0628015 0
    outer loop
      vertex 2.97634 -0.375999 9.2
      vertex 3 0 4
      vertex 3 0 9.2
    endloop
  endfacet
  facet normal 0.998026 -0.0628015 0
    outer loop
      vertex 3 0 4
      vertex 2.97634 -0.375999 9.2
      vertex 2.97634 -0.375999 4
    endloop
  endfacet
  facet normal 0.125337 -0.992114 0
    outer loop
      vertex 0.188371 -2.99408 4
      vertex 0.562143 -2.94686 9.2
      vertex 0.188371 -2.99408 9.2
    endloop
  endfacet
  facet normal 0.125337 -0.992114 0
    outer loop
      vertex 0.562143 -2.94686 9.2
      vertex 0.188371 -2.99408 4
      vertex 0.562143 -2.94686 4
    endloop
  endfacet
  facet normal -0.951056 0.309019 0
    outer loop
      vertex -2.90575 0.746069 4
      vertex -2.78933 1.10437 9.2
      vertex -2.78933 1.10437 4
    endloop
  endfacet
  facet normal -0.951056 0.309019 0
    outer loop
      vertex -2.78933 1.10437 9.2
      vertex -2.90575 0.746069 4
      vertex -2.90575 0.746069 9.2
    endloop
  endfacet
  facet normal 0.844331 0.535822 0
    outer loop
      vertex 2.62892 1.44526 9.2
      vertex 2.42705 1.76336 4
      vertex 2.42705 1.76336 9.2
    endloop
  endfacet
  facet normal 0.844331 0.535822 0
    outer loop
      vertex 2.42705 1.76336 4
      vertex 2.62892 1.44526 9.2
      vertex 2.62892 1.44526 4
    endloop
  endfacet
  facet normal 0.951056 -0.309019 0
    outer loop
      vertex 2.78933 -1.10437 9.2
      vertex 2.90575 -0.746069 4
      vertex 2.90575 -0.746069 9.2
    endloop
  endfacet
  facet normal 0.951056 -0.309019 0
    outer loop
      vertex 2.90575 -0.746069 4
      vertex 2.78933 -1.10437 9.2
      vertex 2.78933 -1.10437 4
    endloop
  endfacet
  facet normal -0.684541 0.728974 0
    outer loop
      vertex -1.91227 2.31154 4
      vertex -2.18691 2.05364 9.2
      vertex -1.91227 2.31154 9.2
    endloop
  endfacet
  facet normal -0.684541 0.728974 0
    outer loop
      vertex -2.18691 2.05364 9.2
      vertex -1.91227 2.31154 4
      vertex -2.18691 2.05364 4
    endloop
  endfacet
  facet normal 0.844331 -0.535822 0
    outer loop
      vertex 2.42705 -1.76336 9.2
      vertex 2.62892 -1.44526 4
      vertex 2.62892 -1.44526 9.2
    endloop
  endfacet
  facet normal 0.844331 -0.535822 0
    outer loop
      vertex 2.62892 -1.44526 4
      vertex 2.42705 -1.76336 9.2
      vertex 2.42705 -1.76336 4
    endloop
  endfacet
  facet normal 0.248684 -0.968585 0
    outer loop
      vertex 0.562143 -2.94686 4
      vertex 0.927051 -2.85317 9.2
      vertex 0.562143 -2.94686 9.2
    endloop
  endfacet
  facet normal 0.248684 -0.968585 0
    outer loop
      vertex 0.927051 -2.85317 9.2
      vertex 0.562143 -2.94686 4
      vertex 0.927051 -2.85317 4
    endloop
  endfacet
  facet normal 0.125337 0.992114 -0
    outer loop
      vertex 0.562143 2.94686 4
      vertex 0.188371 2.99408 9.2
      vertex 0.562143 2.94686 9.2
    endloop
  endfacet
  facet normal 0.125337 0.992114 0
    outer loop
      vertex 0.188371 2.99408 9.2
      vertex 0.562143 2.94686 4
      vertex 0.188371 2.99408 4
    endloop
  endfacet
  facet normal 0.98229 -0.187369 0
    outer loop
      vertex 2.90575 -0.746069 9.2
      vertex 2.97634 -0.375999 4
      vertex 2.97634 -0.375999 9.2
    endloop
  endfacet
  facet normal 0.98229 -0.187369 0
    outer loop
      vertex 2.97634 -0.375999 4
      vertex 2.90575 -0.746069 9.2
      vertex 2.90575 -0.746069 4
    endloop
  endfacet
  facet normal -0.481762 0.876302 0
    outer loop
      vertex -1.27734 2.71448 4
      vertex -1.60748 2.53298 9.2
      vertex -1.27734 2.71448 9.2
    endloop
  endfacet
  facet normal -0.481762 0.876302 0
    outer loop
      vertex -1.60748 2.53298 9.2
      vertex -1.27734 2.71448 4
      vertex -1.60748 2.53298 4
    endloop
  endfacet
  facet normal 0.58778 0.809021 -0
    outer loop
      vertex 1.91227 2.31154 4
      vertex 1.60748 2.53298 9.2
      vertex 1.91227 2.31154 9.2
    endloop
  endfacet
  facet normal 0.58778 0.809021 0
    outer loop
      vertex 1.60748 2.53298 9.2
      vertex 1.91227 2.31154 4
      vertex 1.60748 2.53298 4
    endloop
  endfacet
  facet normal 0.481762 -0.876302 0
    outer loop
      vertex 1.27734 -2.71448 4
      vertex 1.60748 -2.53298 9.2
      vertex 1.27734 -2.71448 9.2
    endloop
  endfacet
  facet normal 0.481762 -0.876302 0
    outer loop
      vertex 1.60748 -2.53298 9.2
      vertex 1.27734 -2.71448 4
      vertex 1.60748 -2.53298 4
    endloop
  endfacet
  facet normal -0.368126 0.929776 0
    outer loop
      vertex -0.927051 2.85317 4
      vertex -1.27734 2.71448 9.2
      vertex -0.927051 2.85317 9.2
    endloop
  endfacet
  facet normal -0.368126 0.929776 0
    outer loop
      vertex -1.27734 2.71448 9.2
      vertex -0.927051 2.85317 4
      vertex -1.27734 2.71448 4
    endloop
  endfacet
  facet normal -0.904828 0.425778 0
    outer loop
      vertex -2.78933 1.10437 4
      vertex -2.62892 1.44526 9.2
      vertex -2.62892 1.44526 4
    endloop
  endfacet
  facet normal -0.904828 0.425778 0
    outer loop
      vertex -2.62892 1.44526 9.2
      vertex -2.78933 1.10437 4
      vertex -2.78933 1.10437 9.2
    endloop
  endfacet
  facet normal 0.684541 -0.728974 0
    outer loop
      vertex 1.91227 -2.31154 4
      vertex 2.18691 -2.05364 9.2
      vertex 1.91227 -2.31154 9.2
    endloop
  endfacet
  facet normal 0.684541 -0.728974 0
    outer loop
      vertex 2.18691 -2.05364 9.2
      vertex 1.91227 -2.31154 4
      vertex 2.18691 -2.05364 4
    endloop
  endfacet
  facet normal 0.368126 0.929776 -0
    outer loop
      vertex 1.27734 2.71448 4
      vertex 0.927051 2.85317 9.2
      vertex 1.27734 2.71448 9.2
    endloop
  endfacet
  facet normal 0.368126 0.929776 0
    outer loop
      vertex 0.927051 2.85317 9.2
      vertex 1.27734 2.71448 4
      vertex 0.927051 2.85317 4
    endloop
  endfacet
  facet normal -0.904828 -0.425778 0
    outer loop
      vertex -2.62892 -1.44526 4
      vertex -2.78933 -1.10437 9.2
      vertex -2.78933 -1.10437 4
    endloop
  endfacet
  facet normal -0.904828 -0.425778 0
    outer loop
      vertex -2.78933 -1.10437 9.2
      vertex -2.62892 -1.44526 4
      vertex -2.62892 -1.44526 9.2
    endloop
  endfacet
  facet normal -0.844331 -0.535822 0
    outer loop
      vertex -2.42705 -1.76336 4
      vertex -2.62892 -1.44526 9.2
      vertex -2.62892 -1.44526 4
    endloop
  endfacet
  facet normal -0.844331 -0.535822 0
    outer loop
      vertex -2.62892 -1.44526 9.2
      vertex -2.42705 -1.76336 4
      vertex -2.42705 -1.76336 9.2
    endloop
  endfacet
  facet normal -0.368126 -0.929776 0
    outer loop
      vertex -1.27734 -2.71448 4
      vertex -0.927051 -2.85317 9.2
      vertex -1.27734 -2.71448 9.2
    endloop
  endfacet
  facet normal -0.368126 -0.929776 -0
    outer loop
      vertex -0.927051 -2.85317 9.2
      vertex -1.27734 -2.71448 4
      vertex -0.927051 -2.85317 4
    endloop
  endfacet
  facet normal 0.770514 0.637423 0
    outer loop
      vertex 2.42705 1.76336 9.2
      vertex 2.18691 2.05364 4
      vertex 2.18691 2.05364 9.2
    endloop
  endfacet
  facet normal 0.770514 0.637423 0
    outer loop
      vertex 2.18691 2.05364 4
      vertex 2.42705 1.76336 9.2
      vertex 2.42705 1.76336 4
    endloop
  endfacet
  facet normal 0.951056 0.309019 0
    outer loop
      vertex 2.90575 0.746069 9.2
      vertex 2.78933 1.10437 4
      vertex 2.78933 1.10437 9.2
    endloop
  endfacet
  facet normal 0.951056 0.309019 0
    outer loop
      vertex 2.78933 1.10437 4
      vertex 2.90575 0.746069 9.2
      vertex 2.90575 0.746069 4
    endloop
  endfacet
  facet normal -0.248684 0.968585 0
    outer loop
      vertex -0.562143 2.94686 4
      vertex -0.927051 2.85317 9.2
      vertex -0.562143 2.94686 9.2
    endloop
  endfacet
  facet normal -0.248684 0.968585 0
    outer loop
      vertex -0.927051 2.85317 9.2
      vertex -0.562143 2.94686 4
      vertex -0.927051 2.85317 4
    endloop
  endfacet
  facet normal 0 0 1
    outer loop
      vertex 2.97634 0.375999 9.2
      vertex 2.97634 -0.375999 9.2
      vertex 3 0 9.2
    endloop
  endfacet
  facet normal 0 0 1
    outer loop
      vertex 2.90575 0.746069 9.2
      vertex 2.97634 -0.375999 9.2
      vertex 2.97634 0.375999 9.2
    endloop
  endfacet
  facet normal 0 0 1
    outer loop
      vertex 2.90575 0.746069 9.2
      vertex 2.90575 -0.746069 9.2
      vertex 2.97634 -0.375999 9.2
    endloop
  endfacet
  facet normal 0 0 1
    outer loop
      vertex 2.78933 1.10437 9.2
      vertex 2.90575 -0.746069 9.2
      vertex 2.90575 0.746069 9.2
    endloop
  endfacet
  facet normal 0 0 1
    outer loop
      vertex 2.78933 1.10437 9.2
      vertex 2.78933 -1.10437 9.2
      vertex 2.90575 -0.746069 9.2
    endloop
  endfacet
  facet normal 0 0 1
    outer loop
      vertex 2.62892 1.44526 9.2
      vertex 2.78933 -1.10437 9.2
      vertex 2.78933 1.10437 9.2
    endloop
  endfacet
  facet normal 0 0 1
    outer loop
      vertex 2.62892 1.44526 9.2
      vertex 2.62892 -1.44526 9.2
      vertex 2.78933 -1.10437 9.2
    endloop
  endfacet
  facet normal 0 0 1
    outer loop
      vertex 2.42705 1.76336 9.2
      vertex 2.62892 -1.44526 9.2
      vertex 2.62892 1.44526 9.2
    endloop
  endfacet
  facet normal 0 0 1
    outer loop
      vertex 2.42705 1.76336 9.2
      vertex 2.42705 -1.76336 9.2
      vertex 2.62892 -1.44526 9.2
    endloop
  endfacet
  facet normal 0 0 1
    outer loop
      vertex 2.18691 2.05364 9.2
      vertex 2.42705 -1.76336 9.2
      vertex 2.42705 1.76336 9.2
    endloop
  endfacet
  facet normal 0 0 1
    outer loop
      vertex 2.18691 2.05364 9.2
      vertex 2.18691 -2.05364 9.2
      vertex 2.42705 -1.76336 9.2
    endloop
  endfacet
  facet normal 0 0 1
    outer loop
      vertex 1.91227 2.31154 9.2
      vertex 2.18691 -2.05364 9.2
      vertex 2.18691 2.05364 9.2
    endloop
  endfacet
  facet normal 0 0 1
    outer loop
      vertex 1.91227 2.31154 9.2
      vertex 1.91227 -2.31154 9.2
      vertex 2.18691 -2.05364 9.2
    endloop
  endfacet
  facet normal 0 0 1
    outer loop
      vertex 1.60748 2.53298 9.2
      vertex 1.91227 -2.31154 9.2
      vertex 1.91227 2.31154 9.2
    endloop
  endfacet
  facet normal 0 0 1
    outer loop
      vertex 1.60748 2.53298 9.2
      vertex 1.60748 -2.53298 9.2
      vertex 1.91227 -2.31154 9.2
    endloop
  endfacet
  facet normal 0 0 1
    outer loop
      vertex 1.27734 2.71448 9.2
      vertex 1.60748 -2.53298 9.2
      vertex 1.60748 2.53298 9.2
    endloop
  endfacet
  facet normal 0 0 1
    outer loop
      vertex 1.27734 2.71448 9.2
      vertex 1.27734 -2.71448 9.2
      vertex 1.60748 -2.53298 9.2
    endloop
  endfacet
  facet normal 0 0 1
    outer loop
      vertex 0.927051 2.85317 9.2
      vertex 1.27734 -2.71448 9.2
      vertex 1.27734 2.71448 9.2
    endloop
  endfacet
  facet normal 0 0 1
    outer loop
      vertex 0.927051 2.85317 9.2
      vertex 0.927051 -2.85317 9.2
      vertex 1.27734 -2.71448 9.2
    endloop
  endfacet
  facet normal 0 0 1
    outer loop
      vertex 0.562143 2.94686 9.2
      vertex 0.927051 -2.85317 9.2
      vertex 0.927051 2.85317 9.2
    endloop
  endfacet
  facet normal 0 0 1
    outer loop
      vertex 0.562143 2.94686 9.2
      vertex 0.562143 -2.94686 9.2
      vertex 0.927051 -2.85317 9.2
    endloop
  endfacet
  facet normal 0 0 1
    outer loop
      vertex 0.188371 2.99408 9.2
      vertex 0.562143 -2.94686 9.2
      vertex 0.562143 2.94686 9.2
    endloop
  endfacet
  facet normal 0 0 1
    outer loop
      vertex 0.188371 2.99408 9.2
      vertex 0.188371 -2.99408 9.2
      vertex 0.562143 -2.94686 9.2
    endloop
  endfacet
  facet normal -0 0 1
    outer loop
      vertex -0.188371 2.99408 9.2
      vertex 0.188371 -2.99408 9.2
      vertex 0.188371 2.99408 9.2
    endloop
  endfacet
  facet normal 0 0 1
    outer loop
      vertex -0.188371 2.99408 9.2
      vertex -0.188371 -2.99408 9.2
      vertex 0.188371 -2.99408 9.2
    endloop
  endfacet
  facet normal -0 0 1
    outer loop
      vertex -0.562143 2.94686 9.2
      vertex -0.188371 -2.99408 9.2
      vertex -0.188371 2.99408 9.2
    endloop
  endfacet
  facet normal 0 0 1
    outer loop
      vertex -0.562143 2.94686 9.2
      vertex -0.562143 -2.94686 9.2
      vertex -0.188371 -2.99408 9.2
    endloop
  endfacet
  facet normal -0 0 1
    outer loop
      vertex -0.927051 2.85317 9.2
      vertex -0.562143 -2.94686 9.2
      vertex -0.562143 2.94686 9.2
    endloop
  endfacet
  facet normal 0 0 1
    outer loop
      vertex -0.927051 2.85317 9.2
      vertex -0.927051 -2.85317 9.2
      vertex -0.562143 -2.94686 9.2
    endloop
  endfacet
  facet normal -0 0 1
    outer loop
      vertex -1.27734 2.71448 9.2
      vertex -0.927051 -2.85317 9.2
      vertex -0.927051 2.85317 9.2
    endloop
  endfacet
  facet normal 0 0 1
    outer loop
      vertex -1.27734 2.71448 9.2
      vertex -1.27734 -2.71448 9.2
      vertex -0.927051 -2.85317 9.2
    endloop
  endfacet
  facet normal -0 0 1
    outer loop
      vertex -1.60748 2.53298 9.2
      vertex -1.27734 -2.71448 9.2
      vertex -1.27734 2.71448 9.2
    endloop
  endfacet
  facet normal 0 0 1
    outer loop
      vertex -1.60748 2.53298 9.2
      vertex -1.60748 -2.53298 9.2
      vertex -1.27734 -2.71448 9.2
    endloop
  endfacet
  facet normal -0 0 1
    outer loop
      vertex -1.91227 2.31154 9.2
      vertex -1.60748 -2.53298 9.2
      vertex -1.60748 2.53298 9.2
    endloop
  endfacet
  facet normal 0 0 1
    outer loop
      vertex -1.91227 2.31154 9.2
      vertex -1.91227 -2.31154 9.2
      vertex -1.60748 -2.53298 9.2
    endloop
  endfacet
  facet normal -0 0 1
    outer loop
      vertex -2.18691 2.05364 9.2
      vertex -1.91227 -2.31154 9.2
      vertex -1.91227 2.31154 9.2
    endloop
  endfacet
  facet normal 0 0 1
    outer loop
      vertex -2.18691 2.05364 9.2
      vertex -2.18691 -2.05364 9.2
      vertex -1.91227 -2.31154 9.2
    endloop
  endfacet
  facet normal -0 0 1
    outer loop
      vertex -2.42705 1.76336 9.2
      vertex -2.18691 -2.05364 9.2
      vertex -2.18691 2.05364 9.2
    endloop
  endfacet
  facet normal 0 0 1
    outer loop
      vertex -2.42705 1.76336 9.2
      vertex -2.42705 -1.76336 9.2
      vertex -2.18691 -2.05364 9.2
    endloop
  endfacet
  facet normal -0 0 1
    outer loop
      vertex -2.62892 1.44526 9.2
      vertex -2.42705 -1.76336 9.2
      vertex -2.42705 1.76336 9.2
    endloop
  endfacet
  facet normal 0 0 1
    outer loop
      vertex -2.62892 1.44526 9.2
      vertex -2.62892 -1.44526 9.2
      vertex -2.42705 -1.76336 9.2
    endloop
  endfacet
  facet normal -0 0 1
    outer loop
      vertex -2.78933 1.10437 9.2
      vertex -2.62892 -1.44526 9.2
      vertex -2.62892 1.44526 9.2
    endloop
  endfacet
  facet normal 0 0 1
    outer loop
      vertex -2.78933 1.10437 9.2
      vertex -2.78933 -1.10437 9.2
      vertex -2.62892 -1.44526 9.2
    endloop
  endfacet
  facet normal -0 0 1
    outer loop
      vertex -2.90575 0.746069 9.2
      vertex -2.78933 -1.10437 9.2
      vertex -2.78933 1.10437 9.2
    endloop
  endfacet
  facet normal 0 0 1
    outer loop
      vertex -2.90575 0.746069 9.2
      vertex -2.90575 -0.746069 9.2
      vertex -2.78933 -1.10437 9.2
    endloop
  endfacet
  facet normal -0 0 1
    outer loop
      vertex -2.97634 0.375999 9.2
      vertex -2.90575 -0.746069 9.2
      vertex -2.90575 0.746069 9.2
    endloop
  endfacet
  facet normal 0 0 1
    outer loop
      vertex -2.97634 0.375999 9.2
      vertex -2.97634 -0.375999 9.2
      vertex -2.90575 -0.746069 9.2
    endloop
  endfacet
  facet normal 0 -0 1
    outer loop
      vertex -2.97634 -0.375999 9.2
      vertex -2.97634 0.375999 9.2
      vertex -3 0 9.2
    endloop
  endfacet
  facet normal 0 1 -0
    outer loop
      vertex 0.188371 2.99408 4
      vertex -0.188371 2.99408 9.2
      vertex 0.188371 2.99408 9.2
    endloop
  endfacet
  facet normal 0 1 0
    outer loop
      vertex -0.188371 2.99408 9.2
      vertex 0.188371 2.99408 4
      vertex -0.188371 2.99408 4
    endloop
  endfacet
  facet normal -0.998026 -0.0628015 0
    outer loop
      vertex -2.97634 -0.375999 4
      vertex -3 0 9.2
      vertex -3 0 4
    endloop
  endfacet
  facet normal -0.998026 -0.0628015 0
    outer loop
      vertex -3 0 9.2
      vertex -2.97634 -0.375999 4
      vertex -2.97634 -0.375999 9.2
    endloop
  endfacet
  facet normal -0.125337 0.992114 0
    outer loop
      vertex -0.188371 2.99408 4
      vertex -0.562143 2.94686 9.2
      vertex -0.188371 2.99408 9.2
    endloop
  endfacet
  facet normal -0.125337 0.992114 0
    outer loop
      vertex -0.562143 2.94686 9.2
      vertex -0.188371 2.99408 4
      vertex -0.562143 2.94686 4
    endloop
  endfacet
  facet normal -0.98229 -0.187369 0
    outer loop
      vertex -2.90575 -0.746069 4
      vertex -2.97634 -0.375999 9.2
      vertex -2.97634 -0.375999 4
    endloop
  endfacet
  facet normal -0.98229 -0.187369 0
    outer loop
      vertex -2.97634 -0.375999 9.2
      vertex -2.90575 -0.746069 4
      vertex -2.90575 -0.746069 9.2
    endloop
  endfacet
  facet normal -0.998026 0.0628015 0
    outer loop
      vertex -3 0 4
      vertex -2.97634 0.375999 9.2
      vertex -2.97634 0.375999 4
    endloop
  endfacet
  facet normal -0.998026 0.0628015 0
    outer loop
      vertex -2.97634 0.375999 9.2
      vertex -3 0 4
      vertex -3 0 9.2
    endloop
  endfacet
  facet normal -0.481762 -0.876302 0
    outer loop
      vertex -1.60748 -2.53298 4
      vertex -1.27734 -2.71448 9.2
      vertex -1.60748 -2.53298 9.2
    endloop
  endfacet
  facet normal -0.481762 -0.876302 -0
    outer loop
      vertex -1.27734 -2.71448 9.2
      vertex -1.60748 -2.53298 4
      vertex -1.27734 -2.71448 4
    endloop
  endfacet
  facet normal -0.770514 0.637423 0
    outer loop
      vertex -2.42705 1.76336 4
      vertex -2.18691 2.05364 9.2
      vertex -2.18691 2.05364 4
    endloop
  endfacet
  facet normal -0.770514 0.637423 0
    outer loop
      vertex -2.18691 2.05364 9.2
      vertex -2.42705 1.76336 4
      vertex -2.42705 1.76336 9.2
    endloop
  endfacet
  facet normal -0.248684 -0.968585 0
    outer loop
      vertex -0.927051 -2.85317 4
      vertex -0.562143 -2.94686 9.2
      vertex -0.927051 -2.85317 9.2
    endloop
  endfacet
  facet normal -0.248684 -0.968585 -0
    outer loop
      vertex -0.562143 -2.94686 9.2
      vertex -0.927051 -2.85317 4
      vertex -0.562143 -2.94686 4
    endloop
  endfacet
  facet normal -0.844331 0.535822 0
    outer loop
      vertex -2.62892 1.44526 4
      vertex -2.42705 1.76336 9.2
      vertex -2.42705 1.76336 4
    endloop
  endfacet
  facet normal -0.844331 0.535822 0
    outer loop
      vertex -2.42705 1.76336 9.2
      vertex -2.62892 1.44526 4
      vertex -2.62892 1.44526 9.2
    endloop
  endfacet
  facet normal 0.998027 0.0627909 0
    outer loop
      vertex -3.72043 -0.469999 2.4
      vertex -3.75 0 0
      vertex -3.75 0 2.4
    endloop
  endfacet
  facet normal 0.998027 0.0627909 0
    outer loop
      vertex -3.75 0 0
      vertex -3.72043 -0.469999 2.4
      vertex -3.72043 -0.469999 0
    endloop
  endfacet
  facet normal -0.998027 -0.0627909 0
    outer loop
      vertex 3.75 0 0
      vertex 3.72043 0.469999 2.4
      vertex 3.72043 0.469999 0
    endloop
  endfacet
  facet normal -0.998027 -0.0627909 0
    outer loop
      vertex 3.72043 0.469999 2.4
      vertex 3.75 0 0
      vertex 3.75 0 2.4
    endloop
  endfacet
  facet normal -0.982289 -0.187374 0
    outer loop
      vertex 3.72043 0.469999 0
      vertex 3.63219 0.932587 2.4
      vertex 3.63219 0.932587 0
    endloop
  endfacet
  facet normal -0.982289 -0.187374 0
    outer loop
      vertex 3.63219 0.932587 2.4
      vertex 3.72043 0.469999 0
      vertex 3.72043 0.469999 2.4
    endloop
  endfacet
  facet normal 0.904828 -0.425778 0
    outer loop
      vertex -3.48666 1.38047 2.4
      vertex -3.31122 1.7533 0
      vertex -3.31122 1.7533 2.4
    endloop
  endfacet
  facet normal 0.904828 -0.425778 0
    outer loop
      vertex -3.31122 1.7533 0
      vertex -3.48666 1.38047 2.4
      vertex -3.48666 1.38047 0
    endloop
  endfacet
  facet normal -0.951054 -0.309025 0
    outer loop
      vertex 3.63219 0.932587 0
      vertex 3.48666 1.38047 2.4
      vertex 3.48666 1.38047 0
    endloop
  endfacet
  facet normal -0.951054 -0.309025 0
    outer loop
      vertex 3.48666 1.38047 2.4
      vertex 3.63219 0.932587 0
      vertex 3.63219 0.932587 2.4
    endloop
  endfacet
  facet normal -0.982289 0.187374 0
    outer loop
      vertex 3.63219 -0.932587 0
      vertex 3.72043 -0.469999 2.4
      vertex 3.72043 -0.469999 0
    endloop
  endfacet
  facet normal -0.982289 0.187374 0
    outer loop
      vertex 3.72043 -0.469999 2.4
      vertex 3.63219 -0.932587 0
      vertex 3.63219 -0.932587 2.4
    endloop
  endfacet
  facet normal -0.951054 0.309025 0
    outer loop
      vertex 3.48666 -1.38047 0
      vertex 3.63219 -0.932587 2.4
      vertex 3.63219 -0.932587 0
    endloop
  endfacet
  facet normal -0.951054 0.309025 0
    outer loop
      vertex 3.63219 -0.932587 2.4
      vertex 3.48666 -1.38047 0
      vertex 3.48666 -1.38047 2.4
    endloop
  endfacet
  facet normal -0.998027 0.0627909 0
    outer loop
      vertex 3.72043 -0.469999 0
      vertex 3.75 0 2.4
      vertex 3.75 0 0
    endloop
  endfacet
  facet normal -0.998027 0.0627909 0
    outer loop
      vertex 3.75 0 2.4
      vertex 3.72043 -0.469999 0
      vertex 3.72043 -0.469999 2.4
    endloop
  endfacet
  facet normal 0.982289 0.187374 0
    outer loop
      vertex -3.63219 -0.932587 2.4
      vertex -3.72043 -0.469999 0
      vertex -3.72043 -0.469999 2.4
    endloop
  endfacet
  facet normal 0.982289 0.187374 0
    outer loop
      vertex -3.72043 -0.469999 0
      vertex -3.63219 -0.932587 2.4
      vertex -3.63219 -0.932587 0
    endloop
  endfacet
  facet normal 0.982289 -0.187374 0
    outer loop
      vertex -3.72043 0.469999 2.4
      vertex -3.63219 0.932587 0
      vertex -3.63219 0.932587 2.4
    endloop
  endfacet
  facet normal 0.982289 -0.187374 0
    outer loop
      vertex -3.63219 0.932587 0
      vertex -3.72043 0.469999 2.4
      vertex -3.72043 0.469999 0
    endloop
  endfacet
  facet normal -0.904828 0.425778 0
    outer loop
      vertex 3.31122 -1.7533 0
      vertex 3.48666 -1.38047 2.4
      vertex 3.48666 -1.38047 0
    endloop
  endfacet
  facet normal -0.904828 0.425778 0
    outer loop
      vertex 3.48666 -1.38047 2.4
      vertex 3.31122 -1.7533 0
      vertex 3.31122 -1.7533 2.4
    endloop
  endfacet
  facet normal 0.998027 -0.0627909 0
    outer loop
      vertex -3.75 0 2.4
      vertex -3.72043 0.469999 0
      vertex -3.72043 0.469999 2.4
    endloop
  endfacet
  facet normal 0.998027 -0.0627909 0
    outer loop
      vertex -3.72043 0.469999 0
      vertex -3.75 0 2.4
      vertex -3.75 0 0
    endloop
  endfacet
  facet normal 0.951054 -0.309025 0
    outer loop
      vertex -3.63219 0.932587 2.4
      vertex -3.48666 1.38047 0
      vertex -3.48666 1.38047 2.4
    endloop
  endfacet
  facet normal 0.951054 -0.309025 0
    outer loop
      vertex -3.48666 1.38047 0
      vertex -3.63219 0.932587 2.4
      vertex -3.63219 0.932587 0
    endloop
  endfacet
  facet normal 0.904828 0.425778 0
    outer loop
      vertex -3.31122 -1.7533 2.4
      vertex -3.48666 -1.38047 0
      vertex -3.48666 -1.38047 2.4
    endloop
  endfacet
  facet normal 0.904828 0.425778 0
    outer loop
      vertex -3.48666 -1.38047 0
      vertex -3.31122 -1.7533 2.4
      vertex -3.31122 -1.7533 0
    endloop
  endfacet
  facet normal 0 0 -1
    outer loop
      vertex 3.72043 -0.469999 2.4
      vertex 3.72043 0.469999 2.4
      vertex 3.75 0 2.4
    endloop
  endfacet
  facet normal 0 0 -1
    outer loop
      vertex 3.63219 -0.932587 2.4
      vertex 3.72043 0.469999 2.4
      vertex 3.72043 -0.469999 2.4
    endloop
  endfacet
  facet normal 0 0 -1
    outer loop
      vertex 3.63219 -0.932587 2.4
      vertex 3.63219 0.932587 2.4
      vertex 3.72043 0.469999 2.4
    endloop
  endfacet
  facet normal 0 0 -1
    outer loop
      vertex 3.48666 -1.38047 2.4
      vertex 3.63219 0.932587 2.4
      vertex 3.63219 -0.932587 2.4
    endloop
  endfacet
  facet normal 0 0 -1
    outer loop
      vertex 3.48666 -1.38047 2.4
      vertex 3.48666 1.38047 2.4
      vertex 3.63219 0.932587 2.4
    endloop
  endfacet
  facet normal 0 0 -1
    outer loop
      vertex 3.31122 -1.7533 2.4
      vertex 3.48666 1.38047 2.4
      vertex 3.48666 -1.38047 2.4
    endloop
  endfacet
  facet normal 0 0 -1
    outer loop
      vertex 3.31122 -1.7533 2.4
      vertex 3.31122 1.7533 2.4
      vertex 3.48666 1.38047 2.4
    endloop
  endfacet
  facet normal 0 0 -1
    outer loop
      vertex 2.78946 -7.31965 2.4
      vertex 3.31122 -1.7533 2.4
      vertex 3.03429 -7.22272 2.4
    endloop
  endfacet
  facet normal 0 0 -1
    outer loop
      vertex 3.31122 -1.7533 2.4
      vertex -3.31122 -1.7533 2.4
      vertex 3.31122 1.7533 2.4
    endloop
  endfacet
  facet normal 0 0 -1
    outer loop
      vertex 2.42516 -7.46389 2.4
      vertex 3.31122 -1.7533 2.4
      vertex 2.78946 -7.31965 2.4
    endloop
  endfacet
  facet normal 0 0 -1
    outer loop
      vertex -3.31122 1.7533 2.4
      vertex 3.31122 1.7533 2.4
      vertex -3.31122 -1.7533 2.4
    endloop
  endfacet
  facet normal 0 0 -1
    outer loop
      vertex 3.31122 -1.7533 2.4
      vertex 2.42516 -7.46389 2.4
      vertex 1.85007 -7.61155 2.4
    endloop
  endfacet
  facet normal 0 -0 -1
    outer loop
      vertex 0.49278 7.83251 2.4
      vertex 3.31122 1.7533 2.4
      vertex -3.31122 1.7533 2.4
    endloop
  endfacet
  facet normal 0 0 -1
    outer loop
      vertex 1.47057 -7.70899 2.4
      vertex 3.31122 -1.7533 2.4
      vertex 1.85007 -7.61155 2.4
    endloop
  endfacet
  facet normal 0 0 -1
    outer loop
      vertex 3.31122 1.7533 2.4
      vertex 2.78946 7.31965 2.4
      vertex 3.03429 7.22272 2.4
    endloop
  endfacet
  facet normal 0 0 -1
    outer loop
      vertex 3.31122 -1.7533 2.4
      vertex 1.47057 -7.70899 2.4
      vertex 0.881503 -7.78341 2.4
    endloop
  endfacet
  facet normal -0 -0 -1
    outer loop
      vertex 2.42516 7.46389 2.4
      vertex 3.31122 1.7533 2.4
      vertex 1.85007 7.61155 2.4
    endloop
  endfacet
  facet normal 0 0 -1
    outer loop
      vertex 0.49278 -7.83251 2.4
      vertex 3.31122 -1.7533 2.4
      vertex 0.881503 -7.78341 2.4
    endloop
  endfacet
  facet normal 0 0 -1
    outer loop
      vertex 3.31122 1.7533 2.4
      vertex 2.42516 7.46389 2.4
      vertex 2.78946 7.31965 2.4
    endloop
  endfacet
  facet normal -0 0 -1
    outer loop
      vertex 3.31122 -1.7533 2.4
      vertex 0.49278 -7.83251 2.4
      vertex -3.31122 -1.7533 2.4
    endloop
  endfacet
  facet normal -0 -0 -1
    outer loop
      vertex 1.47057 7.70899 2.4
      vertex 3.31122 1.7533 2.4
      vertex 0.881503 7.78341 2.4
    endloop
  endfacet
  facet normal 0 0 -1
    outer loop
      vertex -3.31122 -1.7533 2.4
      vertex 0.49278 -7.83251 2.4
      vertex -0.49278 -7.83251 2.4
    endloop
  endfacet
  facet normal 0 0 -1
    outer loop
      vertex 3.31122 1.7533 2.4
      vertex 1.47057 7.70899 2.4
      vertex 1.85007 7.61155 2.4
    endloop
  endfacet
  facet normal 0 0 -1
    outer loop
      vertex -3.31122 -1.7533 2.4
      vertex -0.49278 -7.83251 2.4
      vertex -0.881503 -7.78341 2.4
    endloop
  endfacet
  facet normal 0 0 -1
    outer loop
      vertex 3.31122 1.7533 2.4
      vertex 0.49278 7.83251 2.4
      vertex 0.881503 7.78341 2.4
    endloop
  endfacet
  facet normal 0 0 -1
    outer loop
      vertex -3.31122 -1.7533 2.4
      vertex -0.881503 -7.78341 2.4
      vertex -1.47057 -7.70899 2.4
    endloop
  endfacet
  facet normal -0 0 -1
    outer loop
      vertex 0.49278 7.83251 2.4
      vertex -3.31122 1.7533 2.4
      vertex -0.49278 7.83251 2.4
    endloop
  endfacet
  facet normal 0 0 -1
    outer loop
      vertex -3.31122 -1.7533 2.4
      vertex -1.47057 -7.70899 2.4
      vertex -1.85007 -7.61155 2.4
    endloop
  endfacet
  facet normal 0 0 -1
    outer loop
      vertex -0.49278 7.83251 2.4
      vertex -3.31122 1.7533 2.4
      vertex -0.881503 7.78341 2.4
    endloop
  endfacet
  facet normal 0 0 -1
    outer loop
      vertex -3.31122 -1.7533 2.4
      vertex -1.85007 -7.61155 2.4
      vertex -2.42516 -7.46389 2.4
    endloop
  endfacet
  facet normal 0 0 -1
    outer loop
      vertex -0.881503 7.78341 2.4
      vertex -3.31122 1.7533 2.4
      vertex -1.47057 7.70899 2.4
    endloop
  endfacet
  facet normal 0 0 -1
    outer loop
      vertex -3.31122 -1.7533 2.4
      vertex -2.42516 -7.46389 2.4
      vertex -2.78946 -7.31965 2.4
    endloop
  endfacet
  facet normal 0 0 -1
    outer loop
      vertex -1.47057 7.70899 2.4
      vertex -3.31122 1.7533 2.4
      vertex -1.85007 7.61155 2.4
    endloop
  endfacet
  facet normal 0 0 -1
    outer loop
      vertex -3.31122 -1.7533 2.4
      vertex -2.78946 -7.31965 2.4
      vertex -3.03429 -7.22272 2.4
    endloop
  endfacet
  facet normal 0 0 -1
    outer loop
      vertex -1.85007 7.61155 2.4
      vertex -3.31122 1.7533 2.4
      vertex -2.42516 7.46389 2.4
    endloop
  endfacet
  facet normal 0 0 -1
    outer loop
      vertex -2.42516 7.46389 2.4
      vertex -3.31122 1.7533 2.4
      vertex -2.78946 7.31965 2.4
    endloop
  endfacet
  facet normal 0 0 -1
    outer loop
      vertex -2.78946 7.31965 2.4
      vertex -3.31122 1.7533 2.4
      vertex -3.03429 7.22272 2.4
    endloop
  endfacet
  facet normal 0 0 -1
    outer loop
      vertex -3.48666 -1.38047 2.4
      vertex -3.31122 1.7533 2.4
      vertex -3.31122 -1.7533 2.4
    endloop
  endfacet
  facet normal 0 0 -1
    outer loop
      vertex -3.48666 -1.38047 2.4
      vertex -3.48666 1.38047 2.4
      vertex -3.31122 1.7533 2.4
    endloop
  endfacet
  facet normal 0 0 -1
    outer loop
      vertex -3.63219 -0.932587 2.4
      vertex -3.48666 1.38047 2.4
      vertex -3.48666 -1.38047 2.4
    endloop
  endfacet
  facet normal 0 0 -1
    outer loop
      vertex -3.63219 -0.932587 2.4
      vertex -3.63219 0.932587 2.4
      vertex -3.48666 1.38047 2.4
    endloop
  endfacet
  facet normal 0 0 -1
    outer loop
      vertex -3.72043 -0.469999 2.4
      vertex -3.63219 0.932587 2.4
      vertex -3.63219 -0.932587 2.4
    endloop
  endfacet
  facet normal 0 0 -1
    outer loop
      vertex -3.72043 -0.469999 2.4
      vertex -3.72043 0.469999 2.4
      vertex -3.63219 0.932587 2.4
    endloop
  endfacet
  facet normal 0 -0 -1
    outer loop
      vertex -3.72043 0.469999 2.4
      vertex -3.72043 -0.469999 2.4
      vertex -3.75 0 2.4
    endloop
  endfacet
  facet normal -0.904828 -0.425778 0
    outer loop
      vertex 3.48666 1.38047 0
      vertex 3.31122 1.7533 2.4
      vertex 3.31122 1.7533 0
    endloop
  endfacet
  facet normal -0.904828 -0.425778 0
    outer loop
      vertex 3.31122 1.7533 2.4
      vertex 3.48666 1.38047 0
      vertex 3.48666 1.38047 2.4
    endloop
  endfacet
  facet normal 0.951054 0.309025 0
    outer loop
      vertex -3.48666 -1.38047 2.4
      vertex -3.63219 -0.932587 0
      vertex -3.63219 -0.932587 2.4
    endloop
  endfacet
  facet normal 0.951054 0.309025 0
    outer loop
      vertex -3.63219 -0.932587 0
      vertex -3.48666 -1.38047 2.4
      vertex -3.48666 -1.38047 0
    endloop
  endfacet
  facet normal -0.998721 0.0505681 2.9266e-07
    outer loop
      vertex 3.03552 -7.19839 1.28915
      vertex 3.31122 -1.7533 0
      vertex 3.03695 -7.17014 0
    endloop
  endfacet
  facet normal -0.998721 0.050568 0
    outer loop
      vertex 3.31122 -1.7533 0
      vertex 3.03552 -7.19839 1.28915
      vertex 3.31122 -1.7533 2.4
    endloop
  endfacet
  facet normal -0.998721 0.0505676 1.69644e-06
    outer loop
      vertex 3.31122 -1.7533 2.4
      vertex 3.03552 -7.19839 1.28915
      vertex 3.03429 -7.22272 2.4
    endloop
  endfacet
  facet normal 0.998721 -0.0505676 1.69644e-06
    outer loop
      vertex -3.31122 1.7533 2.4
      vertex -3.03552 7.19839 1.28915
      vertex -3.03429 7.22272 2.4
    endloop
  endfacet
  facet normal 0.998721 -0.050568 0
    outer loop
      vertex -3.31122 1.7533 0
      vertex -3.03552 7.19839 1.28915
      vertex -3.31122 1.7533 2.4
    endloop
  endfacet
  facet normal 0.998721 -0.0505681 2.9266e-07
    outer loop
      vertex -3.03552 7.19839 1.28915
      vertex -3.31122 1.7533 0
      vertex -3.03695 7.17014 0
    endloop
  endfacet
  facet normal 0.998721 0.050568 0
    outer loop
      vertex -3.03552 -7.19839 1.28915
      vertex -3.31122 -1.7533 0
      vertex -3.31122 -1.7533 2.4
    endloop
  endfacet
  facet normal 0.998721 0.0505681 2.9266e-07
    outer loop
      vertex -3.31122 -1.7533 0
      vertex -3.03552 -7.19839 1.28915
      vertex -3.03695 -7.17014 0
    endloop
  endfacet
  facet normal 0.998721 0.0505676 1.69644e-06
    outer loop
      vertex -3.03552 -7.19839 1.28915
      vertex -3.31122 -1.7533 2.4
      vertex -3.03429 -7.22272 2.4
    endloop
  endfacet
  facet normal -0.998721 -0.0505681 2.9266e-07
    outer loop
      vertex 3.31122 1.7533 0
      vertex 3.03552 7.19839 1.28915
      vertex 3.03695 7.17014 0
    endloop
  endfacet
  facet normal -0.998721 -0.050568 0
    outer loop
      vertex 3.03552 7.19839 1.28915
      vertex 3.31122 1.7533 0
      vertex 3.31122 1.7533 2.4
    endloop
  endfacet
  facet normal -0.998721 -0.0505676 1.69644e-06
    outer loop
      vertex 3.03552 7.19839 1.28915
      vertex 3.31122 1.7533 2.4
      vertex 3.03429 7.22272 2.4
    endloop
  endfacet
endsolid OpenSCAD_Model
