solid OpenSCAD_Model
  facet normal 1 0 0
    outer loop
      vertex 6.230000e-02 3.500000e-03 1.800000e-03
      vertex 6.230000e-02 0.000000e+00 1.800000e-03
      vertex 6.230000e-02 3.500000e-03 1.500000e-03
    endloop
  endfacet
  facet normal 1 0 0
    outer loop
      vertex 6.230000e-02 4.730000e-02 1.500000e-03
      vertex 6.230000e-02 5.250000e-02 1.800000e-03
      vertex 6.230000e-02 4.730000e-02 1.800000e-03
    endloop
  endfacet
  facet normal 1 0 0
    outer loop
      vertex 6.230000e-02 5.250000e-02 1.800000e-03
      vertex 6.230000e-02 4.730000e-02 1.500000e-03
      vertex 6.230000e-02 5.250000e-02 0.000000e+00
    endloop
  endfacet
  facet normal 1 0 0
    outer loop
      vertex 6.230000e-02 0.000000e+00 0.000000e+00
      vertex 6.230000e-02 4.730000e-02 1.500000e-03
      vertex 6.230000e-02 3.500000e-03 1.500000e-03
    endloop
  endfacet
  facet normal 1 0 0
    outer loop
      vertex 6.230000e-02 4.730000e-02 1.500000e-03
      vertex 6.230000e-02 0.000000e+00 0.000000e+00
      vertex 6.230000e-02 5.250000e-02 0.000000e+00
    endloop
  endfacet
  facet normal 1 0 0
    outer loop
      vertex 6.230000e-02 0.000000e+00 0.000000e+00
      vertex 6.230000e-02 3.500000e-03 1.500000e-03
      vertex 6.230000e-02 0.000000e+00 1.800000e-03
    endloop
  endfacet
  facet normal 0 0 1
    outer loop
      vertex 6.230000e-02 5.250000e-02 1.800000e-03
      vertex 1.000000e-03 4.730000e-02 1.800000e-03
      vertex 6.230000e-02 4.730000e-02 1.800000e-03
    endloop
  endfacet
  facet normal 0 0 1
    outer loop
      vertex 0.000000e+00 0.000000e+00 1.800000e-03
      vertex 1.000000e-03 4.730000e-02 1.800000e-03
      vertex 0.000000e+00 5.250000e-02 1.800000e-03
    endloop
  endfacet
  facet normal -0 0 1
    outer loop
      vertex 0.000000e+00 5.250000e-02 1.800000e-03
      vertex 1.000000e-03 4.730000e-02 1.800000e-03
      vertex 6.230000e-02 5.250000e-02 1.800000e-03
    endloop
  endfacet
  facet normal -0 0 1
    outer loop
      vertex 1.000000e-03 3.500000e-03 1.800000e-03
      vertex 6.230000e-02 0.000000e+00 1.800000e-03
      vertex 6.230000e-02 3.500000e-03 1.800000e-03
    endloop
  endfacet
  facet normal 0 0 1
    outer loop
      vertex 1.000000e-03 3.500000e-03 1.800000e-03
      vertex 0.000000e+00 0.000000e+00 1.800000e-03
      vertex 6.230000e-02 0.000000e+00 1.800000e-03
    endloop
  endfacet
  facet normal 0 0 1
    outer loop
      vertex 1.000000e-03 4.730000e-02 1.800000e-03
      vertex 0.000000e+00 0.000000e+00 1.800000e-03
      vertex 1.000000e-03 3.500000e-03 1.800000e-03
    endloop
  endfacet
  facet normal 0 0 -1
    outer loop
      vertex 0.000000e+00 0.000000e+00 0.000000e+00
      vertex 6.230000e-02 5.250000e-02 0.000000e+00
      vertex 6.230000e-02 0.000000e+00 0.000000e+00
    endloop
  endfacet
  facet normal -0 0 -1
    outer loop
      vertex 6.230000e-02 5.250000e-02 0.000000e+00
      vertex 0.000000e+00 0.000000e+00 0.000000e+00
      vertex 0.000000e+00 5.250000e-02 0.000000e+00
    endloop
  endfacet
  facet normal -1 0 0
    outer loop
      vertex 0.000000e+00 0.000000e+00 0.000000e+00
      vertex 0.000000e+00 5.250000e-02 1.800000e-03
      vertex 0.000000e+00 5.250000e-02 0.000000e+00
    endloop
  endfacet
  facet normal -1 -0 0
    outer loop
      vertex 0.000000e+00 5.250000e-02 1.800000e-03
      vertex 0.000000e+00 0.000000e+00 0.000000e+00
      vertex 0.000000e+00 0.000000e+00 1.800000e-03
    endloop
  endfacet
  facet normal 0 1 -0
    outer loop
      vertex 6.230000e-02 5.250000e-02 0.000000e+00
      vertex 0.000000e+00 5.250000e-02 1.800000e-03
      vertex 6.230000e-02 5.250000e-02 1.800000e-03
    endloop
  endfacet
  facet normal 0 1 0
    outer loop
      vertex 0.000000e+00 5.250000e-02 1.800000e-03
      vertex 6.230000e-02 5.250000e-02 0.000000e+00
      vertex 0.000000e+00 5.250000e-02 0.000000e+00
    endloop
  endfacet
  facet normal 0 -1 0
    outer loop
      vertex 0.000000e+00 0.000000e+00 0.000000e+00
      vertex 6.230000e-02 0.000000e+00 1.800000e-03
      vertex 0.000000e+00 0.000000e+00 1.800000e-03
    endloop
  endfacet
  facet normal 0 -1 -0
    outer loop
      vertex 6.230000e-02 0.000000e+00 1.800000e-03
      vertex 0.000000e+00 0.000000e+00 0.000000e+00
      vertex 6.230000e-02 0.000000e+00 0.000000e+00
    endloop
  endfacet
  facet normal 1 -0 0
    outer loop
      vertex 6.300000e-02 3.500000e-03 5.600000e-03
      vertex 6.300000e-02 4.730000e-02 1.500000e-03
      vertex 6.300000e-02 4.730000e-02 5.600000e-03
    endloop
  endfacet
  facet normal 1 0 0
    outer loop
      vertex 6.300000e-02 4.730000e-02 1.500000e-03
      vertex 6.300000e-02 3.500000e-03 5.600000e-03
      vertex 6.300000e-02 3.500000e-03 1.500000e-03
    endloop
  endfacet
  facet normal 0 0 1
    outer loop
      vertex 5.506000e-02 8.500000e-03 5.600000e-03
      vertex 6.300000e-02 4.730000e-02 5.600000e-03
      vertex 5.506000e-02 4.522000e-02 5.600000e-03
    endloop
  endfacet
  facet normal -0 0 1
    outer loop
      vertex 1.000000e-03 4.730000e-02 5.600000e-03
      vertex 5.506000e-02 4.522000e-02 5.600000e-03
      vertex 6.300000e-02 4.730000e-02 5.600000e-03
    endloop
  endfacet
  facet normal 0 0 1
    outer loop
      vertex 6.100000e-03 4.522000e-02 5.600000e-03
      vertex 1.000000e-03 4.730000e-02 5.600000e-03
      vertex 6.100000e-03 8.500000e-03 5.600000e-03
    endloop
  endfacet
  facet normal 0 0 1
    outer loop
      vertex 5.506000e-02 4.522000e-02 5.600000e-03
      vertex 1.000000e-03 4.730000e-02 5.600000e-03
      vertex 6.100000e-03 4.522000e-02 5.600000e-03
    endloop
  endfacet
  facet normal 0 0 1
    outer loop
      vertex 6.300000e-02 4.730000e-02 5.600000e-03
      vertex 5.506000e-02 8.500000e-03 5.600000e-03
      vertex 6.300000e-02 3.500000e-03 5.600000e-03
    endloop
  endfacet
  facet normal 0 0 1
    outer loop
      vertex 1.000000e-03 3.500000e-03 5.600000e-03
      vertex 5.506000e-02 8.500000e-03 5.600000e-03
      vertex 6.100000e-03 8.500000e-03 5.600000e-03
    endloop
  endfacet
  facet normal 0 0 1
    outer loop
      vertex 5.506000e-02 8.500000e-03 5.600000e-03
      vertex 1.000000e-03 3.500000e-03 5.600000e-03
      vertex 6.300000e-02 3.500000e-03 5.600000e-03
    endloop
  endfacet
  facet normal 0 0 1
    outer loop
      vertex 1.000000e-03 3.500000e-03 5.600000e-03
      vertex 6.100000e-03 8.500000e-03 5.600000e-03
      vertex 1.000000e-03 4.730000e-02 5.600000e-03
    endloop
  endfacet
  facet normal 0 0 -1
    outer loop
      vertex 6.230000e-02 3.500000e-03 1.500000e-03
      vertex 6.300000e-02 4.730000e-02 1.500000e-03
      vertex 6.300000e-02 3.500000e-03 1.500000e-03
    endloop
  endfacet
  facet normal -0 0 -1
    outer loop
      vertex 6.300000e-02 4.730000e-02 1.500000e-03
      vertex 6.230000e-02 3.500000e-03 1.500000e-03
      vertex 6.230000e-02 4.730000e-02 1.500000e-03
    endloop
  endfacet
  facet normal -1 0 0
    outer loop
      vertex 1.000000e-03 3.500000e-03 1.800000e-03
      vertex 1.000000e-03 4.730000e-02 5.600000e-03
      vertex 1.000000e-03 4.730000e-02 1.800000e-03
    endloop
  endfacet
  facet normal -1 -0 0
    outer loop
      vertex 1.000000e-03 4.730000e-02 5.600000e-03
      vertex 1.000000e-03 3.500000e-03 1.800000e-03
      vertex 1.000000e-03 3.500000e-03 5.600000e-03
    endloop
  endfacet
  facet normal 0 1 0
    outer loop
      vertex 6.300000e-02 4.730000e-02 5.600000e-03
      vertex 6.230000e-02 4.730000e-02 1.800000e-03
      vertex 1.000000e-03 4.730000e-02 5.600000e-03
    endloop
  endfacet
  facet normal 0 1 -0
    outer loop
      vertex 6.300000e-02 4.730000e-02 1.500000e-03
      vertex 6.230000e-02 4.730000e-02 1.800000e-03
      vertex 6.300000e-02 4.730000e-02 5.600000e-03
    endloop
  endfacet
  facet normal 0 1 0
    outer loop
      vertex 6.230000e-02 4.730000e-02 1.800000e-03
      vertex 6.300000e-02 4.730000e-02 1.500000e-03
      vertex 6.230000e-02 4.730000e-02 1.500000e-03
    endloop
  endfacet
  facet normal 0 1 0
    outer loop
      vertex 1.000000e-03 4.730000e-02 5.600000e-03
      vertex 6.230000e-02 4.730000e-02 1.800000e-03
      vertex 1.000000e-03 4.730000e-02 1.800000e-03
    endloop
  endfacet
  facet normal 0 -1 0
    outer loop
      vertex 6.230000e-02 3.500000e-03 1.800000e-03
      vertex 1.000000e-03 3.500000e-03 5.600000e-03
      vertex 1.000000e-03 3.500000e-03 1.800000e-03
    endloop
  endfacet
  facet normal 0 -1 0
    outer loop
      vertex 1.000000e-03 3.500000e-03 5.600000e-03
      vertex 6.230000e-02 3.500000e-03 1.800000e-03
      vertex 6.300000e-02 3.500000e-03 5.600000e-03
    endloop
  endfacet
  facet normal 0 -1 0
    outer loop
      vertex 6.300000e-02 3.500000e-03 1.500000e-03
      vertex 6.230000e-02 3.500000e-03 1.800000e-03
      vertex 6.230000e-02 3.500000e-03 1.500000e-03
    endloop
  endfacet
  facet normal 0 -1 0
    outer loop
      vertex 6.230000e-02 3.500000e-03 1.800000e-03
      vertex 6.300000e-02 3.500000e-03 1.500000e-03
      vertex 6.300000e-02 3.500000e-03 5.600000e-03
    endloop
  endfacet
  facet normal 1 -0 0
    outer loop
      vertex 5.506000e-02 8.500000e-03 6.500000e-03
      vertex 5.506000e-02 4.522000e-02 5.600000e-03
      vertex 5.506000e-02 4.522000e-02 6.500000e-03
    endloop
  endfacet
  facet normal 1 0 0
    outer loop
      vertex 5.506000e-02 4.522000e-02 5.600000e-03
      vertex 5.506000e-02 8.500000e-03 6.500000e-03
      vertex 5.506000e-02 8.500000e-03 5.600000e-03
    endloop
  endfacet
  facet normal -0 0 1
    outer loop
      vertex 6.100000e-03 4.522000e-02 6.500000e-03
      vertex 5.506000e-02 8.500000e-03 6.500000e-03
      vertex 5.506000e-02 4.522000e-02 6.500000e-03
    endloop
  endfacet
  facet normal 0 0 1
    outer loop
      vertex 5.506000e-02 8.500000e-03 6.500000e-03
      vertex 6.100000e-03 4.522000e-02 6.500000e-03
      vertex 6.100000e-03 8.500000e-03 6.500000e-03
    endloop
  endfacet
  facet normal -1 0 0
    outer loop
      vertex 6.100000e-03 8.500000e-03 5.600000e-03
      vertex 6.100000e-03 4.522000e-02 6.500000e-03
      vertex 6.100000e-03 4.522000e-02 5.600000e-03
    endloop
  endfacet
  facet normal -1 -0 0
    outer loop
      vertex 6.100000e-03 4.522000e-02 6.500000e-03
      vertex 6.100000e-03 8.500000e-03 5.600000e-03
      vertex 6.100000e-03 8.500000e-03 6.500000e-03
    endloop
  endfacet
  facet normal 0 1 -0
    outer loop
      vertex 5.506000e-02 4.522000e-02 5.600000e-03
      vertex 6.100000e-03 4.522000e-02 6.500000e-03
      vertex 5.506000e-02 4.522000e-02 6.500000e-03
    endloop
  endfacet
  facet normal 0 1 0
    outer loop
      vertex 6.100000e-03 4.522000e-02 6.500000e-03
      vertex 5.506000e-02 4.522000e-02 5.600000e-03
      vertex 6.100000e-03 4.522000e-02 5.600000e-03
    endloop
  endfacet
  facet normal 0 -1 0
    outer loop
      vertex 6.100000e-03 8.500000e-03 5.600000e-03
      vertex 5.506000e-02 8.500000e-03 6.500000e-03
      vertex 6.100000e-03 8.500000e-03 6.500000e-03
    endloop
  endfacet
  facet normal 0 -1 -0
    outer loop
      vertex 5.506000e-02 8.500000e-03 6.500000e-03
      vertex 6.100000e-03 8.500000e-03 5.600000e-03
      vertex 5.506000e-02 8.500000e-03 5.600000e-03
    endloop
  endfacet
endsolid OpenSCAD_Model
