solid OpenSCAD_Model
  facet normal 1 0 0
    outer loop
      vertex 2.350000e-02 1.350000e-02 1.650000e-02
      vertex 2.350000e-02 3.000000e-03 7.600000e-03
      vertex 2.350000e-02 1.160000e-02 7.600000e-03
    endloop
  endfacet
  facet normal 1 0 0
    outer loop
      vertex 2.350000e-02 0.000000e+00 0.000000e+00
      vertex 2.350000e-02 3.000000e-03 7.600000e-03
      vertex 2.350000e-02 9.000000e-04 1.650000e-02
    endloop
  endfacet
  facet normal 1 -0 0
    outer loop
      vertex 2.350000e-02 9.000000e-04 1.650000e-02
      vertex 2.350000e-02 3.000000e-03 7.600000e-03
      vertex 2.350000e-02 1.350000e-02 1.650000e-02
    endloop
  endfacet
  facet normal 1 0 0
    outer loop
      vertex 2.350000e-02 1.350000e-02 1.650000e-02
      vertex 2.350000e-02 1.440000e-02 2.340000e-02
      vertex 2.350000e-02 1.350000e-02 1.940000e-02
    endloop
  endfacet
  facet normal 1 0 0
    outer loop
      vertex 2.350000e-02 1.440000e-02 2.340000e-02
      vertex 2.350000e-02 9.000000e-04 1.940000e-02
      vertex 2.350000e-02 1.350000e-02 1.940000e-02
    endloop
  endfacet
  facet normal 1 0 0
    outer loop
      vertex 2.350000e-02 9.000000e-04 1.940000e-02
      vertex 2.350000e-02 0.000000e+00 2.340000e-02
      vertex 2.350000e-02 9.000000e-04 1.650000e-02
    endloop
  endfacet
  facet normal 1 -0 0
    outer loop
      vertex 2.350000e-02 0.000000e+00 2.340000e-02
      vertex 2.350000e-02 9.000000e-04 1.940000e-02
      vertex 2.350000e-02 1.440000e-02 2.340000e-02
    endloop
  endfacet
  facet normal 1 0 0
    outer loop
      vertex 2.350000e-02 1.440000e-02 2.340000e-02
      vertex 2.350000e-02 1.350000e-02 1.650000e-02
      vertex 2.350000e-02 1.440000e-02 0.000000e+00
    endloop
  endfacet
  facet normal 1 -0 0
    outer loop
      vertex 2.350000e-02 1.160000e-02 7.600000e-03
      vertex 2.350000e-02 1.440000e-02 0.000000e+00
      vertex 2.350000e-02 1.350000e-02 1.650000e-02
    endloop
  endfacet
  facet normal 1 -0 0
    outer loop
      vertex 2.350000e-02 1.160000e-02 4.700000e-03
      vertex 2.350000e-02 1.440000e-02 0.000000e+00
      vertex 2.350000e-02 1.160000e-02 7.600000e-03
    endloop
  endfacet
  facet normal 1 -0 0
    outer loop
      vertex 2.350000e-02 3.000000e-03 4.700000e-03
      vertex 2.350000e-02 1.440000e-02 0.000000e+00
      vertex 2.350000e-02 1.160000e-02 4.700000e-03
    endloop
  endfacet
  facet normal 1 0 0
    outer loop
      vertex 2.350000e-02 3.000000e-03 4.700000e-03
      vertex 2.350000e-02 0.000000e+00 0.000000e+00
      vertex 2.350000e-02 1.440000e-02 0.000000e+00
    endloop
  endfacet
  facet normal 1 0 0
    outer loop
      vertex 2.350000e-02 3.000000e-03 7.600000e-03
      vertex 2.350000e-02 0.000000e+00 0.000000e+00
      vertex 2.350000e-02 3.000000e-03 4.700000e-03
    endloop
  endfacet
  facet normal 1 0 0
    outer loop
      vertex 2.350000e-02 0.000000e+00 0.000000e+00
      vertex 2.350000e-02 9.000000e-04 1.650000e-02
      vertex 2.350000e-02 0.000000e+00 2.340000e-02
    endloop
  endfacet
  facet normal 0 0 1
    outer loop
      vertex 2.350000e-02 1.440000e-02 2.340000e-02
      vertex 2.240000e-02 1.340000e-02 2.340000e-02
      vertex 2.350000e-02 0.000000e+00 2.340000e-02
    endloop
  endfacet
  facet normal -0 0 1
    outer loop
      vertex 0.000000e+00 1.440000e-02 2.340000e-02
      vertex 2.240000e-02 1.340000e-02 2.340000e-02
      vertex 2.350000e-02 1.440000e-02 2.340000e-02
    endloop
  endfacet
  facet normal 0 0 1
    outer loop
      vertex 2.240000e-02 1.340000e-02 2.340000e-02
      vertex 0.000000e+00 1.440000e-02 2.340000e-02
      vertex 0.000000e+00 1.340000e-02 2.340000e-02
    endloop
  endfacet
  facet normal -0 0 1
    outer loop
      vertex 2.240000e-02 1.000000e-03 2.340000e-02
      vertex 2.350000e-02 0.000000e+00 2.340000e-02
      vertex 2.240000e-02 1.340000e-02 2.340000e-02
    endloop
  endfacet
  facet normal 0 0 1
    outer loop
      vertex 0.000000e+00 0.000000e+00 2.340000e-02
      vertex 2.240000e-02 1.000000e-03 2.340000e-02
      vertex 0.000000e+00 1.000000e-03 2.340000e-02
    endloop
  endfacet
  facet normal 0 0 1
    outer loop
      vertex 2.240000e-02 1.000000e-03 2.340000e-02
      vertex 0.000000e+00 0.000000e+00 2.340000e-02
      vertex 2.350000e-02 0.000000e+00 2.340000e-02
    endloop
  endfacet
  facet normal 0 0 -1
    outer loop
      vertex 0.000000e+00 0.000000e+00 0.000000e+00
      vertex 2.350000e-02 1.440000e-02 0.000000e+00
      vertex 2.350000e-02 0.000000e+00 0.000000e+00
    endloop
  endfacet
  facet normal -0 0 -1
    outer loop
      vertex 2.350000e-02 1.440000e-02 0.000000e+00
      vertex 0.000000e+00 0.000000e+00 0.000000e+00
      vertex 0.000000e+00 1.440000e-02 0.000000e+00
    endloop
  endfacet
  facet normal -1 0 0
    outer loop
      vertex 0.000000e+00 1.440000e-02 0.000000e+00
      vertex 0.000000e+00 1.340000e-02 1.100000e-03
      vertex 0.000000e+00 1.440000e-02 2.340000e-02
    endloop
  endfacet
  facet normal -1 0 0
    outer loop
      vertex 0.000000e+00 1.440000e-02 0.000000e+00
      vertex 0.000000e+00 1.000000e-03 1.100000e-03
      vertex 0.000000e+00 1.340000e-02 1.100000e-03
    endloop
  endfacet
  facet normal -1 0 0
    outer loop
      vertex 0.000000e+00 0.000000e+00 0.000000e+00
      vertex 0.000000e+00 1.000000e-03 1.100000e-03
      vertex 0.000000e+00 1.440000e-02 0.000000e+00
    endloop
  endfacet
  facet normal -1 0 0
    outer loop
      vertex 0.000000e+00 0.000000e+00 2.340000e-02
      vertex 0.000000e+00 1.000000e-03 1.100000e-03
      vertex 0.000000e+00 0.000000e+00 0.000000e+00
    endloop
  endfacet
  facet normal -1 0 0
    outer loop
      vertex 0.000000e+00 1.000000e-03 1.100000e-03
      vertex 0.000000e+00 0.000000e+00 2.340000e-02
      vertex 0.000000e+00 1.000000e-03 2.340000e-02
    endloop
  endfacet
  facet normal -1 -0 0
    outer loop
      vertex 0.000000e+00 1.440000e-02 2.340000e-02
      vertex 0.000000e+00 1.340000e-02 1.100000e-03
      vertex 0.000000e+00 1.340000e-02 2.340000e-02
    endloop
  endfacet
  facet normal 0 1 -0
    outer loop
      vertex 2.350000e-02 1.440000e-02 0.000000e+00
      vertex 0.000000e+00 1.440000e-02 2.340000e-02
      vertex 2.350000e-02 1.440000e-02 2.340000e-02
    endloop
  endfacet
  facet normal 0 1 0
    outer loop
      vertex 0.000000e+00 1.440000e-02 2.340000e-02
      vertex 2.350000e-02 1.440000e-02 0.000000e+00
      vertex 0.000000e+00 1.440000e-02 0.000000e+00
    endloop
  endfacet
  facet normal 0 -1 0
    outer loop
      vertex 0.000000e+00 0.000000e+00 0.000000e+00
      vertex 2.350000e-02 0.000000e+00 2.340000e-02
      vertex 0.000000e+00 0.000000e+00 2.340000e-02
    endloop
  endfacet
  facet normal 0 -1 -0
    outer loop
      vertex 2.350000e-02 0.000000e+00 2.340000e-02
      vertex 0.000000e+00 0.000000e+00 0.000000e+00
      vertex 2.350000e-02 0.000000e+00 0.000000e+00
    endloop
  endfacet
  facet normal -1 0 0
    outer loop
      vertex 2.240000e-02 1.160000e-02 7.600000e-03
      vertex 2.240000e-02 1.340000e-02 1.100000e-03
      vertex 2.240000e-02 1.160000e-02 4.700000e-03
    endloop
  endfacet
  facet normal -1 0 0
    outer loop
      vertex 2.240000e-02 1.340000e-02 1.100000e-03
      vertex 2.240000e-02 3.000000e-03 4.700000e-03
      vertex 2.240000e-02 1.160000e-02 4.700000e-03
    endloop
  endfacet
  facet normal -1 -0 0
    outer loop
      vertex 2.240000e-02 3.000000e-03 4.700000e-03
      vertex 2.240000e-02 1.000000e-03 1.100000e-03
      vertex 2.240000e-02 3.000000e-03 7.600000e-03
    endloop
  endfacet
  facet normal -1 0 0
    outer loop
      vertex 2.240000e-02 1.000000e-03 1.100000e-03
      vertex 2.240000e-02 3.000000e-03 4.700000e-03
      vertex 2.240000e-02 1.340000e-02 1.100000e-03
    endloop
  endfacet
  facet normal -1 0 0
    outer loop
      vertex 2.240000e-02 1.340000e-02 1.100000e-03
      vertex 2.240000e-02 1.160000e-02 7.600000e-03
      vertex 2.240000e-02 1.340000e-02 1.650000e-02
    endloop
  endfacet
  facet normal -1 0 0
    outer loop
      vertex 2.240000e-02 3.000000e-03 7.600000e-03
      vertex 2.240000e-02 1.340000e-02 1.650000e-02
      vertex 2.240000e-02 1.160000e-02 7.600000e-03
    endloop
  endfacet
  facet normal -1 0 0
    outer loop
      vertex 2.240000e-02 3.000000e-03 7.600000e-03
      vertex 2.240000e-02 1.000000e-03 1.650000e-02
      vertex 2.240000e-02 1.340000e-02 1.650000e-02
    endloop
  endfacet
  facet normal -1 0 0
    outer loop
      vertex 2.240000e-02 1.000000e-03 1.650000e-02
      vertex 2.240000e-02 3.000000e-03 7.600000e-03
      vertex 2.240000e-02 1.000000e-03 1.100000e-03
    endloop
  endfacet
  facet normal -1 0 0
    outer loop
      vertex 2.240000e-02 1.000000e-03 1.940000e-02
      vertex 2.240000e-02 1.340000e-02 2.340000e-02
      vertex 2.240000e-02 1.340000e-02 1.940000e-02
    endloop
  endfacet
  facet normal -1 -0 0
    outer loop
      vertex 2.240000e-02 1.340000e-02 2.340000e-02
      vertex 2.240000e-02 1.000000e-03 1.940000e-02
      vertex 2.240000e-02 1.000000e-03 2.340000e-02
    endloop
  endfacet
  facet normal -0 0 1
    outer loop
      vertex 0.000000e+00 1.340000e-02 1.100000e-03
      vertex 2.240000e-02 1.000000e-03 1.100000e-03
      vertex 2.240000e-02 1.340000e-02 1.100000e-03
    endloop
  endfacet
  facet normal 0 0 1
    outer loop
      vertex 2.240000e-02 1.000000e-03 1.100000e-03
      vertex 0.000000e+00 1.340000e-02 1.100000e-03
      vertex 0.000000e+00 1.000000e-03 1.100000e-03
    endloop
  endfacet
  facet normal 0 -1 0
    outer loop
      vertex 0.000000e+00 1.340000e-02 2.340000e-02
      vertex 2.150000e-02 1.340000e-02 1.940000e-02
      vertex 2.240000e-02 1.340000e-02 2.340000e-02
    endloop
  endfacet
  facet normal 0 -1 0
    outer loop
      vertex 0.000000e+00 1.340000e-02 2.340000e-02
      vertex 2.150000e-02 1.340000e-02 1.650000e-02
      vertex 2.150000e-02 1.340000e-02 1.940000e-02
    endloop
  endfacet
  facet normal 0 -1 0
    outer loop
      vertex 0.000000e+00 1.340000e-02 1.100000e-03
      vertex 2.150000e-02 1.340000e-02 1.650000e-02
      vertex 0.000000e+00 1.340000e-02 2.340000e-02
    endloop
  endfacet
  facet normal 0 -1 0
    outer loop
      vertex 2.240000e-02 1.340000e-02 1.100000e-03
      vertex 2.150000e-02 1.340000e-02 1.650000e-02
      vertex 0.000000e+00 1.340000e-02 1.100000e-03
    endloop
  endfacet
  facet normal 0 -1 0
    outer loop
      vertex 2.150000e-02 1.340000e-02 1.650000e-02
      vertex 2.240000e-02 1.340000e-02 1.100000e-03
      vertex 2.240000e-02 1.340000e-02 1.650000e-02
    endloop
  endfacet
  facet normal 0 -1 -0
    outer loop
      vertex 2.240000e-02 1.340000e-02 2.340000e-02
      vertex 2.150000e-02 1.340000e-02 1.940000e-02
      vertex 2.240000e-02 1.340000e-02 1.940000e-02
    endloop
  endfacet
  facet normal 0 1 0
    outer loop
      vertex 2.240000e-02 1.000000e-03 1.650000e-02
      vertex 2.240000e-02 1.000000e-03 1.100000e-03
      vertex 2.150000e-02 1.000000e-03 1.650000e-02
    endloop
  endfacet
  facet normal 0 1 0
    outer loop
      vertex 2.150000e-02 1.000000e-03 1.940000e-02
      vertex 2.240000e-02 1.000000e-03 2.340000e-02
      vertex 2.240000e-02 1.000000e-03 1.940000e-02
    endloop
  endfacet
  facet normal 0 1 0
    outer loop
      vertex 2.240000e-02 1.000000e-03 2.340000e-02
      vertex 2.150000e-02 1.000000e-03 1.940000e-02
      vertex 0.000000e+00 1.000000e-03 2.340000e-02
    endloop
  endfacet
  facet normal 0 1 -0
    outer loop
      vertex 2.150000e-02 1.000000e-03 1.650000e-02
      vertex 0.000000e+00 1.000000e-03 2.340000e-02
      vertex 2.150000e-02 1.000000e-03 1.940000e-02
    endloop
  endfacet
  facet normal 0 1 0
    outer loop
      vertex 0.000000e+00 1.000000e-03 1.100000e-03
      vertex 2.150000e-02 1.000000e-03 1.650000e-02
      vertex 2.240000e-02 1.000000e-03 1.100000e-03
    endloop
  endfacet
  facet normal 0 1 0
    outer loop
      vertex 2.150000e-02 1.000000e-03 1.650000e-02
      vertex 0.000000e+00 1.000000e-03 1.100000e-03
      vertex 0.000000e+00 1.000000e-03 2.340000e-02
    endloop
  endfacet
  facet normal 0 0 -1
    outer loop
      vertex 2.350000e-02 9.000000e-04 1.940000e-02
      vertex 2.240000e-02 1.000000e-03 1.940000e-02
      vertex 2.350000e-02 1.350000e-02 1.940000e-02
    endloop
  endfacet
  facet normal 0 0 -1
    outer loop
      vertex 2.150000e-02 9.000000e-04 1.940000e-02
      vertex 2.240000e-02 1.000000e-03 1.940000e-02
      vertex 2.350000e-02 9.000000e-04 1.940000e-02
    endloop
  endfacet
  facet normal -0 0 -1
    outer loop
      vertex 2.240000e-02 1.000000e-03 1.940000e-02
      vertex 2.150000e-02 9.000000e-04 1.940000e-02
      vertex 2.150000e-02 1.000000e-03 1.940000e-02
    endloop
  endfacet
  facet normal 0 0 -1
    outer loop
      vertex 2.240000e-02 1.340000e-02 1.940000e-02
      vertex 2.350000e-02 1.350000e-02 1.940000e-02
      vertex 2.240000e-02 1.000000e-03 1.940000e-02
    endloop
  endfacet
  facet normal 0 0 -1
    outer loop
      vertex 2.150000e-02 1.350000e-02 1.940000e-02
      vertex 2.240000e-02 1.340000e-02 1.940000e-02
      vertex 2.150000e-02 1.340000e-02 1.940000e-02
    endloop
  endfacet
  facet normal 0 0 -1
    outer loop
      vertex 2.240000e-02 1.340000e-02 1.940000e-02
      vertex 2.150000e-02 1.350000e-02 1.940000e-02
      vertex 2.350000e-02 1.350000e-02 1.940000e-02
    endloop
  endfacet
  facet normal 0 0 1
    outer loop
      vertex 2.350000e-02 1.350000e-02 1.650000e-02
      vertex 2.240000e-02 1.340000e-02 1.650000e-02
      vertex 2.350000e-02 9.000000e-04 1.650000e-02
    endloop
  endfacet
  facet normal -0 0 1
    outer loop
      vertex 2.150000e-02 1.350000e-02 1.650000e-02
      vertex 2.240000e-02 1.340000e-02 1.650000e-02
      vertex 2.350000e-02 1.350000e-02 1.650000e-02
    endloop
  endfacet
  facet normal 0 0 1
    outer loop
      vertex 2.240000e-02 1.340000e-02 1.650000e-02
      vertex 2.150000e-02 1.350000e-02 1.650000e-02
      vertex 2.150000e-02 1.340000e-02 1.650000e-02
    endloop
  endfacet
  facet normal -0 0 1
    outer loop
      vertex 2.240000e-02 1.000000e-03 1.650000e-02
      vertex 2.350000e-02 9.000000e-04 1.650000e-02
      vertex 2.240000e-02 1.340000e-02 1.650000e-02
    endloop
  endfacet
  facet normal 0 0 1
    outer loop
      vertex 2.150000e-02 9.000000e-04 1.650000e-02
      vertex 2.240000e-02 1.000000e-03 1.650000e-02
      vertex 2.150000e-02 1.000000e-03 1.650000e-02
    endloop
  endfacet
  facet normal 0 0 1
    outer loop
      vertex 2.240000e-02 1.000000e-03 1.650000e-02
      vertex 2.150000e-02 9.000000e-04 1.650000e-02
      vertex 2.350000e-02 9.000000e-04 1.650000e-02
    endloop
  endfacet
  facet normal 1 -0 0
    outer loop
      vertex 2.150000e-02 1.340000e-02 1.940000e-02
      vertex 2.150000e-02 1.350000e-02 1.650000e-02
      vertex 2.150000e-02 1.350000e-02 1.940000e-02
    endloop
  endfacet
  facet normal 1 0 0
    outer loop
      vertex 2.150000e-02 1.350000e-02 1.650000e-02
      vertex 2.150000e-02 1.340000e-02 1.940000e-02
      vertex 2.150000e-02 1.340000e-02 1.650000e-02
    endloop
  endfacet
  facet normal 1 -0 0
    outer loop
      vertex 2.150000e-02 9.000000e-04 1.940000e-02
      vertex 2.150000e-02 1.000000e-03 1.650000e-02
      vertex 2.150000e-02 1.000000e-03 1.940000e-02
    endloop
  endfacet
  facet normal 1 0 0
    outer loop
      vertex 2.150000e-02 1.000000e-03 1.650000e-02
      vertex 2.150000e-02 9.000000e-04 1.940000e-02
      vertex 2.150000e-02 9.000000e-04 1.650000e-02
    endloop
  endfacet
  facet normal 0 -1 0
    outer loop
      vertex 2.150000e-02 1.350000e-02 1.650000e-02
      vertex 2.350000e-02 1.350000e-02 1.940000e-02
      vertex 2.150000e-02 1.350000e-02 1.940000e-02
    endloop
  endfacet
  facet normal 0 -1 -0
    outer loop
      vertex 2.350000e-02 1.350000e-02 1.940000e-02
      vertex 2.150000e-02 1.350000e-02 1.650000e-02
      vertex 2.350000e-02 1.350000e-02 1.650000e-02
    endloop
  endfacet
  facet normal 0 1 -0
    outer loop
      vertex 2.350000e-02 9.000000e-04 1.650000e-02
      vertex 2.150000e-02 9.000000e-04 1.940000e-02
      vertex 2.350000e-02 9.000000e-04 1.940000e-02
    endloop
  endfacet
  facet normal 0 1 0
    outer loop
      vertex 2.150000e-02 9.000000e-04 1.940000e-02
      vertex 2.350000e-02 9.000000e-04 1.650000e-02
      vertex 2.150000e-02 9.000000e-04 1.650000e-02
    endloop
  endfacet
  facet normal 0 0 -1
    outer loop
      vertex 2.240000e-02 3.000000e-03 7.600000e-03
      vertex 2.350000e-02 1.160000e-02 7.600000e-03
      vertex 2.350000e-02 3.000000e-03 7.600000e-03
    endloop
  endfacet
  facet normal -0 0 -1
    outer loop
      vertex 2.350000e-02 1.160000e-02 7.600000e-03
      vertex 2.240000e-02 3.000000e-03 7.600000e-03
      vertex 2.240000e-02 1.160000e-02 7.600000e-03
    endloop
  endfacet
  facet normal -0 0 1
    outer loop
      vertex 2.240000e-02 1.160000e-02 4.700000e-03
      vertex 2.350000e-02 3.000000e-03 4.700000e-03
      vertex 2.350000e-02 1.160000e-02 4.700000e-03
    endloop
  endfacet
  facet normal 0 0 1
    outer loop
      vertex 2.350000e-02 3.000000e-03 4.700000e-03
      vertex 2.240000e-02 1.160000e-02 4.700000e-03
      vertex 2.240000e-02 3.000000e-03 4.700000e-03
    endloop
  endfacet
  facet normal 0 -1 0
    outer loop
      vertex 2.240000e-02 1.160000e-02 4.700000e-03
      vertex 2.350000e-02 1.160000e-02 7.600000e-03
      vertex 2.240000e-02 1.160000e-02 7.600000e-03
    endloop
  endfacet
  facet normal 0 -1 -0
    outer loop
      vertex 2.350000e-02 1.160000e-02 7.600000e-03
      vertex 2.240000e-02 1.160000e-02 4.700000e-03
      vertex 2.350000e-02 1.160000e-02 4.700000e-03
    endloop
  endfacet
  facet normal 0 1 -0
    outer loop
      vertex 2.350000e-02 3.000000e-03 4.700000e-03
      vertex 2.240000e-02 3.000000e-03 7.600000e-03
      vertex 2.350000e-02 3.000000e-03 7.600000e-03
    endloop
  endfacet
  facet normal 0 1 0
    outer loop
      vertex 2.240000e-02 3.000000e-03 7.600000e-03
      vertex 2.350000e-02 3.000000e-03 4.700000e-03
      vertex 2.240000e-02 3.000000e-03 4.700000e-03
    endloop
  endfacet
endsolid OpenSCAD_Model
