solid OpenSCAD_Model
  facet normal 1 0 0
    outer loop
      vertex 1.120000e-01 7.670000e-02 9.000000e-03
      vertex 1.120000e-01 7.410000e-02 6.200000e-03
      vertex 1.120000e-01 7.670000e-02 3.000000e-03
    endloop
  endfacet
  facet normal 1 0 0
    outer loop
      vertex 1.120000e-01 7.670000e-02 9.000000e-03
      vertex 1.120000e-01 3.000000e-03 6.200000e-03
      vertex 1.120000e-01 7.410000e-02 6.200000e-03
    endloop
  endfacet
  facet normal 1 -0 0
    outer loop
      vertex 1.120000e-01 0.000000e+00 9.000000e-03
      vertex 1.120000e-01 3.000000e-03 6.200000e-03
      vertex 1.120000e-01 7.670000e-02 9.000000e-03
    endloop
  endfacet
  facet normal 1 0 0
    outer loop
      vertex 1.120000e-01 0.000000e+00 3.000000e-03
      vertex 1.120000e-01 3.000000e-03 6.200000e-03
      vertex 1.120000e-01 0.000000e+00 9.000000e-03
    endloop
  endfacet
  facet normal 1 0 0
    outer loop
      vertex 1.120000e-01 3.000000e-03 6.200000e-03
      vertex 1.120000e-01 0.000000e+00 3.000000e-03
      vertex 1.120000e-01 3.000000e-03 3.000000e-03
    endloop
  endfacet
  facet normal 1 0 0
    outer loop
      vertex 1.120000e-01 7.670000e-02 3.000000e-03
      vertex 1.120000e-01 7.410000e-02 6.200000e-03
      vertex 1.120000e-01 7.410000e-02 3.000000e-03
    endloop
  endfacet
  facet normal -0 0 1
    outer loop
      vertex 1.000000e-01 7.670000e-02 9.000000e-03
      vertex 1.120000e-01 0.000000e+00 9.000000e-03
      vertex 1.120000e-01 7.670000e-02 9.000000e-03
    endloop
  endfacet
  facet normal 0 0 1
    outer loop
      vertex 1.120000e-01 0.000000e+00 9.000000e-03
      vertex 1.000000e-01 7.670000e-02 9.000000e-03
      vertex 1.000000e-01 0.000000e+00 9.000000e-03
    endloop
  endfacet
  facet normal 0 0 -1
    outer loop
      vertex 0.000000e+00 0.000000e+00 0.000000e+00
      vertex 2.200000e-01 7.670000e-02 0.000000e+00
      vertex 2.200000e-01 0.000000e+00 0.000000e+00
    endloop
  endfacet
  facet normal -0 0 -1
    outer loop
      vertex 2.200000e-01 7.670000e-02 0.000000e+00
      vertex 0.000000e+00 0.000000e+00 0.000000e+00
      vertex 0.000000e+00 7.670000e-02 0.000000e+00
    endloop
  endfacet
  facet normal -1 0 0
    outer loop
      vertex 1.000000e-01 3.000000e-03 3.000000e-03
      vertex 1.000000e-01 0.000000e+00 3.000000e-03
      vertex 1.000000e-01 3.000000e-03 6.200000e-03
    endloop
  endfacet
  facet normal -1 0 0
    outer loop
      vertex 1.000000e-01 7.410000e-02 6.200000e-03
      vertex 1.000000e-01 7.670000e-02 3.000000e-03
      vertex 1.000000e-01 7.410000e-02 3.000000e-03
    endloop
  endfacet
  facet normal -1 0 0
    outer loop
      vertex 1.000000e-01 7.670000e-02 3.000000e-03
      vertex 1.000000e-01 7.410000e-02 6.200000e-03
      vertex 1.000000e-01 7.670000e-02 9.000000e-03
    endloop
  endfacet
  facet normal -1 0 0
    outer loop
      vertex 1.000000e-01 3.000000e-03 6.200000e-03
      vertex 1.000000e-01 7.670000e-02 9.000000e-03
      vertex 1.000000e-01 7.410000e-02 6.200000e-03
    endloop
  endfacet
  facet normal -1 0 0
    outer loop
      vertex 1.000000e-01 3.000000e-03 6.200000e-03
      vertex 1.000000e-01 0.000000e+00 9.000000e-03
      vertex 1.000000e-01 7.670000e-02 9.000000e-03
    endloop
  endfacet
  facet normal -1 0 0
    outer loop
      vertex 1.000000e-01 0.000000e+00 9.000000e-03
      vertex 1.000000e-01 3.000000e-03 6.200000e-03
      vertex 1.000000e-01 0.000000e+00 3.000000e-03
    endloop
  endfacet
  facet normal 0 1 -0
    outer loop
      vertex 2.200000e-01 7.670000e-02 0.000000e+00
      vertex 1.120000e-01 7.670000e-02 3.000000e-03
      vertex 2.200000e-01 7.670000e-02 3.000000e-03
    endloop
  endfacet
  facet normal 0 1 0
    outer loop
      vertex 1.120000e-01 7.670000e-02 3.000000e-03
      vertex 2.200000e-01 7.670000e-02 0.000000e+00
      vertex 1.000000e-01 7.670000e-02 3.000000e-03
    endloop
  endfacet
  facet normal 0 1 0
    outer loop
      vertex 0.000000e+00 7.670000e-02 0.000000e+00
      vertex 1.000000e-01 7.670000e-02 3.000000e-03
      vertex 2.200000e-01 7.670000e-02 0.000000e+00
    endloop
  endfacet
  facet normal 0 1 0
    outer loop
      vertex 1.000000e-01 7.670000e-02 3.000000e-03
      vertex 0.000000e+00 7.670000e-02 0.000000e+00
      vertex 0.000000e+00 7.670000e-02 3.000000e-03
    endloop
  endfacet
  facet normal 0 1 -0
    outer loop
      vertex 1.120000e-01 7.670000e-02 3.000000e-03
      vertex 1.000000e-01 7.670000e-02 9.000000e-03
      vertex 1.120000e-01 7.670000e-02 9.000000e-03
    endloop
  endfacet
  facet normal 0 1 0
    outer loop
      vertex 1.000000e-01 7.670000e-02 9.000000e-03
      vertex 1.120000e-01 7.670000e-02 3.000000e-03
      vertex 1.000000e-01 7.670000e-02 3.000000e-03
    endloop
  endfacet
  facet normal 0 -1 0
    outer loop
      vertex 0.000000e+00 0.000000e+00 0.000000e+00
      vertex 1.000000e-01 0.000000e+00 3.000000e-03
      vertex 0.000000e+00 0.000000e+00 3.000000e-03
    endloop
  endfacet
  facet normal 0 -1 -0
    outer loop
      vertex 1.000000e-01 0.000000e+00 3.000000e-03
      vertex 0.000000e+00 0.000000e+00 0.000000e+00
      vertex 1.120000e-01 0.000000e+00 3.000000e-03
    endloop
  endfacet
  facet normal 0 -1 0
    outer loop
      vertex 2.200000e-01 0.000000e+00 0.000000e+00
      vertex 1.120000e-01 0.000000e+00 3.000000e-03
      vertex 0.000000e+00 0.000000e+00 0.000000e+00
    endloop
  endfacet
  facet normal 0 -1 0
    outer loop
      vertex 1.120000e-01 0.000000e+00 3.000000e-03
      vertex 2.200000e-01 0.000000e+00 0.000000e+00
      vertex 2.200000e-01 0.000000e+00 3.000000e-03
    endloop
  endfacet
  facet normal 0 -1 0
    outer loop
      vertex 1.000000e-01 0.000000e+00 3.000000e-03
      vertex 1.120000e-01 0.000000e+00 9.000000e-03
      vertex 1.000000e-01 0.000000e+00 9.000000e-03
    endloop
  endfacet
  facet normal 0 -1 -0
    outer loop
      vertex 1.120000e-01 0.000000e+00 9.000000e-03
      vertex 1.000000e-01 0.000000e+00 3.000000e-03
      vertex 1.120000e-01 0.000000e+00 3.000000e-03
    endloop
  endfacet
  facet normal 0 0 -1
    outer loop
      vertex 1.000000e-01 3.000000e-03 6.200000e-03
      vertex 1.120000e-01 7.410000e-02 6.200000e-03
      vertex 1.120000e-01 3.000000e-03 6.200000e-03
    endloop
  endfacet
  facet normal -0 0 -1
    outer loop
      vertex 1.120000e-01 7.410000e-02 6.200000e-03
      vertex 1.000000e-01 3.000000e-03 6.200000e-03
      vertex 1.000000e-01 7.410000e-02 6.200000e-03
    endloop
  endfacet
  facet normal 0 0 1
    outer loop
      vertex 4.500000e-02 5.335000e-02 3.000000e-03
      vertex 1.000000e-01 7.410000e-02 3.000000e-03
      vertex 1.000000e-01 7.670000e-02 3.000000e-03
    endloop
  endfacet
  facet normal 0 0 1
    outer loop
      vertex 1.000000e-01 7.410000e-02 3.000000e-03
      vertex 4.500000e-02 5.335000e-02 3.000000e-03
      vertex 1.000000e-01 3.000000e-03 3.000000e-03
    endloop
  endfacet
  facet normal -0 0 1
    outer loop
      vertex 4.500000e-02 2.335000e-02 3.000000e-03
      vertex 1.000000e-01 3.000000e-03 3.000000e-03
      vertex 4.500000e-02 5.335000e-02 3.000000e-03
    endloop
  endfacet
  facet normal -0 0 1
    outer loop
      vertex 0.000000e+00 7.670000e-02 3.000000e-03
      vertex 4.500000e-02 5.335000e-02 3.000000e-03
      vertex 1.000000e-01 7.670000e-02 3.000000e-03
    endloop
  endfacet
  facet normal 0 0 1
    outer loop
      vertex 4.300000e-02 5.335000e-02 3.000000e-03
      vertex 0.000000e+00 7.670000e-02 3.000000e-03
      vertex 4.300000e-02 2.335000e-02 3.000000e-03
    endloop
  endfacet
  facet normal 0 0 1
    outer loop
      vertex 4.500000e-02 5.335000e-02 3.000000e-03
      vertex 0.000000e+00 7.670000e-02 3.000000e-03
      vertex 4.300000e-02 5.335000e-02 3.000000e-03
    endloop
  endfacet
  facet normal -0 0 1
    outer loop
      vertex 1.000000e-01 7.410000e-02 3.000000e-03
      vertex 1.120000e-01 3.000000e-03 3.000000e-03
      vertex 1.120000e-01 7.410000e-02 3.000000e-03
    endloop
  endfacet
  facet normal 0 0 1
    outer loop
      vertex 1.120000e-01 3.000000e-03 3.000000e-03
      vertex 1.000000e-01 7.410000e-02 3.000000e-03
      vertex 1.000000e-01 3.000000e-03 3.000000e-03
    endloop
  endfacet
  facet normal 0 0 1
    outer loop
      vertex 1.120000e-01 7.410000e-02 3.000000e-03
      vertex 2.200000e-01 7.670000e-02 3.000000e-03
      vertex 1.120000e-01 7.670000e-02 3.000000e-03
    endloop
  endfacet
  facet normal 0 0 1
    outer loop
      vertex 2.200000e-01 7.670000e-02 3.000000e-03
      vertex 1.120000e-01 7.410000e-02 3.000000e-03
      vertex 2.200000e-01 0.000000e+00 3.000000e-03
    endloop
  endfacet
  facet normal -0 0 1
    outer loop
      vertex 1.120000e-01 3.000000e-03 3.000000e-03
      vertex 2.200000e-01 0.000000e+00 3.000000e-03
      vertex 1.120000e-01 7.410000e-02 3.000000e-03
    endloop
  endfacet
  facet normal 0 0 1
    outer loop
      vertex 2.200000e-01 0.000000e+00 3.000000e-03
      vertex 1.120000e-01 3.000000e-03 3.000000e-03
      vertex 1.120000e-01 0.000000e+00 3.000000e-03
    endloop
  endfacet
  facet normal 0 0 1
    outer loop
      vertex 1.000000e-01 3.000000e-03 3.000000e-03
      vertex 4.500000e-02 2.335000e-02 3.000000e-03
      vertex 1.000000e-01 0.000000e+00 3.000000e-03
    endloop
  endfacet
  facet normal 0 0 1
    outer loop
      vertex 0.000000e+00 0.000000e+00 3.000000e-03
      vertex 4.500000e-02 2.335000e-02 3.000000e-03
      vertex 4.300000e-02 2.335000e-02 3.000000e-03
    endloop
  endfacet
  facet normal 0 0 1
    outer loop
      vertex 4.500000e-02 2.335000e-02 3.000000e-03
      vertex 0.000000e+00 0.000000e+00 3.000000e-03
      vertex 1.000000e-01 0.000000e+00 3.000000e-03
    endloop
  endfacet
  facet normal 0 0 1
    outer loop
      vertex 0.000000e+00 0.000000e+00 3.000000e-03
      vertex 4.300000e-02 2.335000e-02 3.000000e-03
      vertex 0.000000e+00 7.670000e-02 3.000000e-03
    endloop
  endfacet
  facet normal 0 -1 0
    outer loop
      vertex 1.000000e-01 7.410000e-02 3.000000e-03
      vertex 1.120000e-01 7.410000e-02 6.200000e-03
      vertex 1.000000e-01 7.410000e-02 6.200000e-03
    endloop
  endfacet
  facet normal 0 -1 -0
    outer loop
      vertex 1.120000e-01 7.410000e-02 6.200000e-03
      vertex 1.000000e-01 7.410000e-02 3.000000e-03
      vertex 1.120000e-01 7.410000e-02 3.000000e-03
    endloop
  endfacet
  facet normal 0 1 -0
    outer loop
      vertex 1.120000e-01 3.000000e-03 3.000000e-03
      vertex 1.000000e-01 3.000000e-03 6.200000e-03
      vertex 1.120000e-01 3.000000e-03 6.200000e-03
    endloop
  endfacet
  facet normal 0 1 0
    outer loop
      vertex 1.000000e-01 3.000000e-03 6.200000e-03
      vertex 1.120000e-01 3.000000e-03 3.000000e-03
      vertex 1.000000e-01 3.000000e-03 3.000000e-03
    endloop
  endfacet
  facet normal 1 -0 0
    outer loop
      vertex 2.200000e-01 0.000000e+00 3.000000e-03
      vertex 2.200000e-01 7.670000e-02 0.000000e+00
      vertex 2.200000e-01 7.670000e-02 3.000000e-03
    endloop
  endfacet
  facet normal 1 0 0
    outer loop
      vertex 2.200000e-01 7.670000e-02 0.000000e+00
      vertex 2.200000e-01 0.000000e+00 3.000000e-03
      vertex 2.200000e-01 0.000000e+00 0.000000e+00
    endloop
  endfacet
  facet normal -1 0 0
    outer loop
      vertex 0.000000e+00 0.000000e+00 0.000000e+00
      vertex 0.000000e+00 7.670000e-02 3.000000e-03
      vertex 0.000000e+00 7.670000e-02 0.000000e+00
    endloop
  endfacet
  facet normal -1 -0 0
    outer loop
      vertex 0.000000e+00 7.670000e-02 3.000000e-03
      vertex 0.000000e+00 0.000000e+00 0.000000e+00
      vertex 0.000000e+00 0.000000e+00 3.000000e-03
    endloop
  endfacet
  facet normal 1 -0 0
    outer loop
      vertex 4.500000e-02 2.335000e-02 4.000000e-03
      vertex 4.500000e-02 5.335000e-02 3.000000e-03
      vertex 4.500000e-02 5.335000e-02 4.000000e-03
    endloop
  endfacet
  facet normal 1 0 0
    outer loop
      vertex 4.500000e-02 5.335000e-02 3.000000e-03
      vertex 4.500000e-02 2.335000e-02 4.000000e-03
      vertex 4.500000e-02 2.335000e-02 3.000000e-03
    endloop
  endfacet
  facet normal -0 0 1
    outer loop
      vertex 4.300000e-02 5.335000e-02 4.000000e-03
      vertex 4.500000e-02 2.335000e-02 4.000000e-03
      vertex 4.500000e-02 5.335000e-02 4.000000e-03
    endloop
  endfacet
  facet normal 0 0 1
    outer loop
      vertex 4.500000e-02 2.335000e-02 4.000000e-03
      vertex 4.300000e-02 5.335000e-02 4.000000e-03
      vertex 4.300000e-02 2.335000e-02 4.000000e-03
    endloop
  endfacet
  facet normal -1 0 0
    outer loop
      vertex 4.300000e-02 2.335000e-02 3.000000e-03
      vertex 4.300000e-02 5.335000e-02 4.000000e-03
      vertex 4.300000e-02 5.335000e-02 3.000000e-03
    endloop
  endfacet
  facet normal -1 -0 0
    outer loop
      vertex 4.300000e-02 5.335000e-02 4.000000e-03
      vertex 4.300000e-02 2.335000e-02 3.000000e-03
      vertex 4.300000e-02 2.335000e-02 4.000000e-03
    endloop
  endfacet
  facet normal 0 1 -0
    outer loop
      vertex 4.500000e-02 5.335000e-02 3.000000e-03
      vertex 4.300000e-02 5.335000e-02 4.000000e-03
      vertex 4.500000e-02 5.335000e-02 4.000000e-03
    endloop
  endfacet
  facet normal 0 1 0
    outer loop
      vertex 4.300000e-02 5.335000e-02 4.000000e-03
      vertex 4.500000e-02 5.335000e-02 3.000000e-03
      vertex 4.300000e-02 5.335000e-02 3.000000e-03
    endloop
  endfacet
  facet normal 0 -1 0
    outer loop
      vertex 4.300000e-02 2.335000e-02 3.000000e-03
      vertex 4.500000e-02 2.335000e-02 4.000000e-03
      vertex 4.300000e-02 2.335000e-02 4.000000e-03
    endloop
  endfacet
  facet normal 0 -1 -0
    outer loop
      vertex 4.500000e-02 2.335000e-02 4.000000e-03
      vertex 4.300000e-02 2.335000e-02 3.000000e-03
      vertex 4.500000e-02 2.335000e-02 3.000000e-03
    endloop
  endfacet
endsolid OpenSCAD_Model
