solid OpenSCAD_Model
  facet normal 1 -0 0
    outer loop
      vertex 50 0 3
      vertex 50 25 0
      vertex 50 25 3
    endloop
  endfacet
  facet normal 1 0 0
    outer loop
      vertex 50 25 0
      vertex 50 0 3
      vertex 50 0 0
    endloop
  endfacet
  facet normal 0 0 1
    outer loop
      vertex 50 25 3
      vertex 29.9846 12.5 3
      vertex 50 0 3
    endloop
  endfacet
  facet normal 0 0 1
    outer loop
      vertex 50 25 3
      vertex 29.9676 12.7704 3
      vertex 29.9846 12.5 3
    endloop
  endfacet
  facet normal 0 0 1
    outer loop
      vertex 50 25 3
      vertex 29.9453 13.1247 3
      vertex 29.9676 12.7704 3
    endloop
  endfacet
  facet normal 0 0 1
    outer loop
      vertex 50 25 3
      vertex 29.8788 13.4735 3
      vertex 29.9453 13.1247 3
    endloop
  endfacet
  facet normal 0 0 1
    outer loop
      vertex 50 25 3
      vertex 29.828 13.7396 3
      vertex 29.8788 13.4735 3
    endloop
  endfacet
  facet normal 0 0 1
    outer loop
      vertex 50 25 3
      vertex 29.7183 14.0773 3
      vertex 29.828 13.7396 3
    endloop
  endfacet
  facet normal 0 0 1
    outer loop
      vertex 50 25 3
      vertex 29.6346 14.335 3
      vertex 29.7183 14.0773 3
    endloop
  endfacet
  facet normal 0 0 1
    outer loop
      vertex 50 25 3
      vertex 29.5192 14.5801 3
      vertex 29.6346 14.335 3
    endloop
  endfacet
  facet normal 0 0 1
    outer loop
      vertex 50 25 3
      vertex 29.3681 14.9014 3
      vertex 29.5192 14.5801 3
    endloop
  endfacet
  facet normal 0 0 1
    outer loop
      vertex 50 25 3
      vertex 29.2229 15.1301 3
      vertex 29.3681 14.9014 3
    endloop
  endfacet
  facet normal 0 0 1
    outer loop
      vertex 50 25 3
      vertex 29.0326 15.4299 3
      vertex 29.2229 15.1301 3
    endloop
  endfacet
  facet normal 0 0 1
    outer loop
      vertex 50 25 3
      vertex 28.8063 15.7034 3
      vertex 29.0326 15.4299 3
    endloop
  endfacet
  facet normal 0 0 1
    outer loop
      vertex 50 25 3
      vertex 28.6336 15.9122 3
      vertex 28.8063 15.7034 3
    endloop
  endfacet
  facet normal 0 0 1
    outer loop
      vertex 50 25 3
      vertex 28.4361 16.0977 3
      vertex 28.6336 15.9122 3
    endloop
  endfacet
  facet normal 0 0 1
    outer loop
      vertex 50 25 3
      vertex 28.1773 16.3407 3
      vertex 28.4361 16.0977 3
    endloop
  endfacet
  facet normal 0 0 1
    outer loop
      vertex 50 25 3
      vertex 27.9581 16.5 3
      vertex 28.1773 16.3407 3
    endloop
  endfacet
  facet normal 0 0 1
    outer loop
      vertex 50 25 3
      vertex 27.6709 16.7086 3
      vertex 27.9581 16.5 3
    endloop
  endfacet
  facet normal 0 0 1
    outer loop
      vertex 50 25 3
      vertex 27.3598 16.8797 3
      vertex 27.6709 16.7086 3
    endloop
  endfacet
  facet normal 0 0 1
    outer loop
      vertex 50 25 3
      vertex 27.1223 17.0102 3
      vertex 27.3598 16.8797 3
    endloop
  endfacet
  facet normal 0 0 1
    outer loop
      vertex 50 25 3
      vertex 26.7923 17.1409 3
      vertex 27.1223 17.0102 3
    endloop
  endfacet
  facet normal 0 0 1
    outer loop
      vertex 50 25 3
      vertex 26.5403 17.2407 3
      vertex 26.7923 17.1409 3
    endloop
  endfacet
  facet normal 0 0 1
    outer loop
      vertex 50 25 3
      vertex 26.2779 17.308 3
      vertex 26.5403 17.2407 3
    endloop
  endfacet
  facet normal 0 0 1
    outer loop
      vertex 50 25 3
      vertex 25.934 17.3963 3
      vertex 26.2779 17.308 3
    endloop
  endfacet
  facet normal 0 0 1
    outer loop
      vertex 50 25 3
      vertex 25.6652 17.4303 3
      vertex 25.934 17.3963 3
    endloop
  endfacet
  facet normal 0 0 1
    outer loop
      vertex 50 25 3
      vertex 25.313 17.4748 3
      vertex 25.6652 17.4303 3
    endloop
  endfacet
  facet normal 0 0 1
    outer loop
      vertex 50 25 3
      vertex 24.687 17.4748 3
      vertex 25.313 17.4748 3
    endloop
  endfacet
  facet normal -0 0 1
    outer loop
      vertex 0 25 3
      vertex 24.687 17.4748 3
      vertex 50 25 3
    endloop
  endfacet
  facet normal 0 0 1
    outer loop
      vertex 24.687 17.4748 3
      vertex 0 25 3
      vertex 24.3348 17.4303 3
    endloop
  endfacet
  facet normal 0 0 1
    outer loop
      vertex 24.3348 17.4303 3
      vertex 0 25 3
      vertex 24.066 17.3963 3
    endloop
  endfacet
  facet normal 0 0 1
    outer loop
      vertex 24.066 17.3963 3
      vertex 0 25 3
      vertex 23.7221 17.308 3
    endloop
  endfacet
  facet normal 0 0 1
    outer loop
      vertex 0 25 3
      vertex 20.4808 14.5801 3
      vertex 20.6319 14.9014 3
    endloop
  endfacet
  facet normal 0 0 1
    outer loop
      vertex 0 25 3
      vertex 20.1212 13.4735 3
      vertex 20.172 13.7396 3
    endloop
  endfacet
  facet normal 0 0 1
    outer loop
      vertex 20.0324 12.7704 3
      vertex 0 25 3
      vertex 20.0154 12.5 3
    endloop
  endfacet
  facet normal 0 0 1
    outer loop
      vertex 20.0547 13.1247 3
      vertex 0 25 3
      vertex 20.0324 12.7704 3
    endloop
  endfacet
  facet normal 0 0 1
    outer loop
      vertex 20.1212 13.4735 3
      vertex 0 25 3
      vertex 20.0547 13.1247 3
    endloop
  endfacet
  facet normal 0 0 1
    outer loop
      vertex 20.2817 14.0773 3
      vertex 0 25 3
      vertex 20.172 13.7396 3
    endloop
  endfacet
  facet normal 0 0 1
    outer loop
      vertex 20.3654 14.335 3
      vertex 0 25 3
      vertex 20.2817 14.0773 3
    endloop
  endfacet
  facet normal 0 0 1
    outer loop
      vertex 20.4808 14.5801 3
      vertex 0 25 3
      vertex 20.3654 14.335 3
    endloop
  endfacet
  facet normal 0 0 1
    outer loop
      vertex 20.7771 15.1301 3
      vertex 0 25 3
      vertex 20.6319 14.9014 3
    endloop
  endfacet
  facet normal 0 0 1
    outer loop
      vertex 20.9674 15.4299 3
      vertex 0 25 3
      vertex 20.7771 15.1301 3
    endloop
  endfacet
  facet normal 0 0 1
    outer loop
      vertex 21.1937 15.7034 3
      vertex 0 25 3
      vertex 20.9674 15.4299 3
    endloop
  endfacet
  facet normal 0 0 1
    outer loop
      vertex 21.3664 15.9122 3
      vertex 0 25 3
      vertex 21.1937 15.7034 3
    endloop
  endfacet
  facet normal 0 0 1
    outer loop
      vertex 21.5639 16.0977 3
      vertex 0 25 3
      vertex 21.3664 15.9122 3
    endloop
  endfacet
  facet normal 0 0 1
    outer loop
      vertex 21.8227 16.3407 3
      vertex 0 25 3
      vertex 21.5639 16.0977 3
    endloop
  endfacet
  facet normal 0 0 1
    outer loop
      vertex 22.0419 16.5 3
      vertex 0 25 3
      vertex 21.8227 16.3407 3
    endloop
  endfacet
  facet normal 0 0 1
    outer loop
      vertex 22.3291 16.7086 3
      vertex 0 25 3
      vertex 22.0419 16.5 3
    endloop
  endfacet
  facet normal 0 0 1
    outer loop
      vertex 22.6402 16.8797 3
      vertex 0 25 3
      vertex 22.3291 16.7086 3
    endloop
  endfacet
  facet normal 0 0 1
    outer loop
      vertex 22.8777 17.0102 3
      vertex 0 25 3
      vertex 22.6402 16.8797 3
    endloop
  endfacet
  facet normal 0 0 1
    outer loop
      vertex 23.2077 17.1409 3
      vertex 0 25 3
      vertex 22.8777 17.0102 3
    endloop
  endfacet
  facet normal 0 0 1
    outer loop
      vertex 23.4597 17.2407 3
      vertex 0 25 3
      vertex 23.2077 17.1409 3
    endloop
  endfacet
  facet normal 0 0 1
    outer loop
      vertex 23.7221 17.308 3
      vertex 0 25 3
      vertex 23.4597 17.2407 3
    endloop
  endfacet
  facet normal -0 0 1
    outer loop
      vertex 29.9676 12.2296 3
      vertex 50 0 3
      vertex 29.9846 12.5 3
    endloop
  endfacet
  facet normal -0 0 1
    outer loop
      vertex 29.9453 11.8753 3
      vertex 50 0 3
      vertex 29.9676 12.2296 3
    endloop
  endfacet
  facet normal -0 0 1
    outer loop
      vertex 29.8788 11.5265 3
      vertex 50 0 3
      vertex 29.9453 11.8753 3
    endloop
  endfacet
  facet normal -0 0 1
    outer loop
      vertex 29.828 11.2604 3
      vertex 50 0 3
      vertex 29.8788 11.5265 3
    endloop
  endfacet
  facet normal -0 0 1
    outer loop
      vertex 29.7183 10.9227 3
      vertex 50 0 3
      vertex 29.828 11.2604 3
    endloop
  endfacet
  facet normal -0 0 1
    outer loop
      vertex 29.6346 10.665 3
      vertex 50 0 3
      vertex 29.7183 10.9227 3
    endloop
  endfacet
  facet normal -0 0 1
    outer loop
      vertex 29.5192 10.4199 3
      vertex 50 0 3
      vertex 29.6346 10.665 3
    endloop
  endfacet
  facet normal -0 0 1
    outer loop
      vertex 29.3681 10.0986 3
      vertex 50 0 3
      vertex 29.5192 10.4199 3
    endloop
  endfacet
  facet normal -0 0 1
    outer loop
      vertex 29.2229 9.86986 3
      vertex 50 0 3
      vertex 29.3681 10.0986 3
    endloop
  endfacet
  facet normal -0 0 1
    outer loop
      vertex 29.0326 9.57012 3
      vertex 50 0 3
      vertex 29.2229 9.86986 3
    endloop
  endfacet
  facet normal -0 0 1
    outer loop
      vertex 28.8063 9.29658 3
      vertex 50 0 3
      vertex 29.0326 9.57012 3
    endloop
  endfacet
  facet normal -0 0 1
    outer loop
      vertex 28.6336 9.0878 3
      vertex 50 0 3
      vertex 28.8063 9.29658 3
    endloop
  endfacet
  facet normal -0 0 1
    outer loop
      vertex 28.4361 8.90231 3
      vertex 50 0 3
      vertex 28.6336 9.0878 3
    endloop
  endfacet
  facet normal -0 0 1
    outer loop
      vertex 28.1773 8.65929 3
      vertex 50 0 3
      vertex 28.4361 8.90231 3
    endloop
  endfacet
  facet normal -0 0 1
    outer loop
      vertex 27.9581 8.50002 3
      vertex 50 0 3
      vertex 28.1773 8.65929 3
    endloop
  endfacet
  facet normal -0 0 1
    outer loop
      vertex 27.6709 8.29135 3
      vertex 50 0 3
      vertex 27.9581 8.50002 3
    endloop
  endfacet
  facet normal -0 0 1
    outer loop
      vertex 27.3598 8.12032 3
      vertex 50 0 3
      vertex 27.6709 8.29135 3
    endloop
  endfacet
  facet normal -0 0 1
    outer loop
      vertex 27.1223 7.98978 3
      vertex 50 0 3
      vertex 27.3598 8.12032 3
    endloop
  endfacet
  facet normal -0 0 1
    outer loop
      vertex 26.7923 7.8591 3
      vertex 50 0 3
      vertex 27.1223 7.98978 3
    endloop
  endfacet
  facet normal -0 0 1
    outer loop
      vertex 26.5403 7.75935 3
      vertex 50 0 3
      vertex 26.7923 7.8591 3
    endloop
  endfacet
  facet normal -0 0 1
    outer loop
      vertex 26.2779 7.69196 3
      vertex 50 0 3
      vertex 26.5403 7.75935 3
    endloop
  endfacet
  facet normal -0 0 1
    outer loop
      vertex 25.934 7.60368 3
      vertex 50 0 3
      vertex 26.2779 7.69196 3
    endloop
  endfacet
  facet normal -0 0 1
    outer loop
      vertex 25.6652 7.56971 3
      vertex 50 0 3
      vertex 25.934 7.60368 3
    endloop
  endfacet
  facet normal -0 0 1
    outer loop
      vertex 25.313 7.52522 3
      vertex 50 0 3
      vertex 25.6652 7.56971 3
    endloop
  endfacet
  facet normal -0 0 1
    outer loop
      vertex 24.687 7.52522 3
      vertex 50 0 3
      vertex 25.313 7.52522 3
    endloop
  endfacet
  facet normal 0 0 1
    outer loop
      vertex 0 0 3
      vertex 24.687 7.52522 3
      vertex 24.3348 7.56971 3
    endloop
  endfacet
  facet normal 0 0 1
    outer loop
      vertex 0 0 3
      vertex 24.3348 7.56971 3
      vertex 24.066 7.60368 3
    endloop
  endfacet
  facet normal 0 0 1
    outer loop
      vertex 0 0 3
      vertex 24.066 7.60368 3
      vertex 23.7221 7.69196 3
    endloop
  endfacet
  facet normal 0 0 1
    outer loop
      vertex 0 0 3
      vertex 23.7221 7.69196 3
      vertex 23.4597 7.75935 3
    endloop
  endfacet
  facet normal 0 0 1
    outer loop
      vertex 0 0 3
      vertex 22.6402 8.12032 3
      vertex 22.3291 8.29135 3
    endloop
  endfacet
  facet normal 0 0 1
    outer loop
      vertex 0 0 3
      vertex 20.4808 10.4199 3
      vertex 20.3654 10.665 3
    endloop
  endfacet
  facet normal 0 0 1
    outer loop
      vertex 0 0 3
      vertex 20.1212 11.5265 3
      vertex 20.0547 11.8753 3
    endloop
  endfacet
  facet normal 0 0 1
    outer loop
      vertex 0 0 3
      vertex 20.0154 12.5 3
      vertex 0 25 3
    endloop
  endfacet
  facet normal 0 0 1
    outer loop
      vertex 20.0154 12.5 3
      vertex 0 0 3
      vertex 20.0324 12.2296 3
    endloop
  endfacet
  facet normal 0 0 1
    outer loop
      vertex 20.0324 12.2296 3
      vertex 0 0 3
      vertex 20.0547 11.8753 3
    endloop
  endfacet
  facet normal 0 0 1
    outer loop
      vertex 20.1212 11.5265 3
      vertex 0 0 3
      vertex 20.172 11.2604 3
    endloop
  endfacet
  facet normal 0 0 1
    outer loop
      vertex 20.172 11.2604 3
      vertex 0 0 3
      vertex 20.2817 10.9227 3
    endloop
  endfacet
  facet normal 0 0 1
    outer loop
      vertex 20.2817 10.9227 3
      vertex 0 0 3
      vertex 20.3654 10.665 3
    endloop
  endfacet
  facet normal 0 0 1
    outer loop
      vertex 20.4808 10.4199 3
      vertex 0 0 3
      vertex 20.6319 10.0986 3
    endloop
  endfacet
  facet normal 0 0 1
    outer loop
      vertex 20.6319 10.0986 3
      vertex 0 0 3
      vertex 20.7771 9.86986 3
    endloop
  endfacet
  facet normal 0 0 1
    outer loop
      vertex 20.7771 9.86986 3
      vertex 0 0 3
      vertex 20.9674 9.57012 3
    endloop
  endfacet
  facet normal 0 0 1
    outer loop
      vertex 20.9674 9.57012 3
      vertex 0 0 3
      vertex 21.1937 9.29658 3
    endloop
  endfacet
  facet normal 0 0 1
    outer loop
      vertex 21.1937 9.29658 3
      vertex 0 0 3
      vertex 21.3664 9.0878 3
    endloop
  endfacet
  facet normal 0 0 1
    outer loop
      vertex 21.3664 9.0878 3
      vertex 0 0 3
      vertex 21.5639 8.90231 3
    endloop
  endfacet
  facet normal 0 0 1
    outer loop
      vertex 24.687 7.52522 3
      vertex 0 0 3
      vertex 50 0 3
    endloop
  endfacet
  facet normal 0 0 1
    outer loop
      vertex 23.2077 7.8591 3
      vertex 0 0 3
      vertex 23.4597 7.75935 3
    endloop
  endfacet
  facet normal 0 0 1
    outer loop
      vertex 22.8777 7.98978 3
      vertex 0 0 3
      vertex 23.2077 7.8591 3
    endloop
  endfacet
  facet normal 0 0 1
    outer loop
      vertex 22.6402 8.12032 3
      vertex 0 0 3
      vertex 22.8777 7.98978 3
    endloop
  endfacet
  facet normal 0 0 1
    outer loop
      vertex 22.0419 8.50002 3
      vertex 0 0 3
      vertex 22.3291 8.29135 3
    endloop
  endfacet
  facet normal 0 0 1
    outer loop
      vertex 21.8227 8.65929 3
      vertex 0 0 3
      vertex 22.0419 8.50002 3
    endloop
  endfacet
  facet normal 0 0 1
    outer loop
      vertex 21.5639 8.90231 3
      vertex 0 0 3
      vertex 21.8227 8.65929 3
    endloop
  endfacet
  facet normal 0 0 -1
    outer loop
      vertex 50 0 0
      vertex 28.2 12.5 0
      vertex 50 25 0
    endloop
  endfacet
  facet normal 0 0 -1
    outer loop
      vertex 50 0 0
      vertex 28.1748 12.0989 0
      vertex 28.2 12.5 0
    endloop
  endfacet
  facet normal 0 0 -1
    outer loop
      vertex 50 0 0
      vertex 28.0995 11.7042 0
      vertex 28.1748 12.0989 0
    endloop
  endfacet
  facet normal 0 0 -1
    outer loop
      vertex 50 0 0
      vertex 27.9753 11.322 0
      vertex 28.0995 11.7042 0
    endloop
  endfacet
  facet normal 0 0 -1
    outer loop
      vertex 50 0 0
      vertex 27.8042 10.9584 0
      vertex 27.9753 11.322 0
    endloop
  endfacet
  facet normal 0 0 -1
    outer loop
      vertex 50 0 0
      vertex 27.5889 10.6191 0
      vertex 27.8042 10.9584 0
    endloop
  endfacet
  facet normal 0 0 -1
    outer loop
      vertex 50 0 0
      vertex 27.3327 10.3094 0
      vertex 27.5889 10.6191 0
    endloop
  endfacet
  facet normal 0 0 -1
    outer loop
      vertex 50 0 0
      vertex 27.0398 10.0344 0
      vertex 27.3327 10.3094 0
    endloop
  endfacet
  facet normal 0 0 -1
    outer loop
      vertex 50 0 0
      vertex 26.7146 9.79815 0
      vertex 27.0398 10.0344 0
    endloop
  endfacet
  facet normal 0 0 -1
    outer loop
      vertex 50 0 0
      vertex 26.3625 9.60455 0
      vertex 26.7146 9.79815 0
    endloop
  endfacet
  facet normal 0 0 -1
    outer loop
      vertex 50 0 0
      vertex 25.9889 9.45662 0
      vertex 26.3625 9.60455 0
    endloop
  endfacet
  facet normal 0 0 -1
    outer loop
      vertex 50 0 0
      vertex 25.5996 9.35668 0
      vertex 25.9889 9.45662 0
    endloop
  endfacet
  facet normal 0 0 -1
    outer loop
      vertex 50 0 0
      vertex 25.2009 9.30631 0
      vertex 25.5996 9.35668 0
    endloop
  endfacet
  facet normal 0 0 -1
    outer loop
      vertex 50 0 0
      vertex 24.7991 9.30631 0
      vertex 25.2009 9.30631 0
    endloop
  endfacet
  facet normal 0 0 -1
    outer loop
      vertex 0 0 0
      vertex 24.7991 9.30631 0
      vertex 50 0 0
    endloop
  endfacet
  facet normal -0 0 -1
    outer loop
      vertex 24.7991 9.30631 0
      vertex 0 0 0
      vertex 24.4004 9.35668 0
    endloop
  endfacet
  facet normal -0 0 -1
    outer loop
      vertex 21.8252 12.0989 0
      vertex 0 0 0
      vertex 21.8 12.5 0
    endloop
  endfacet
  facet normal -0 0 -1
    outer loop
      vertex 21.9005 11.7042 0
      vertex 0 0 0
      vertex 21.8252 12.0989 0
    endloop
  endfacet
  facet normal -0 0 -1
    outer loop
      vertex 22.0247 11.322 0
      vertex 0 0 0
      vertex 21.9005 11.7042 0
    endloop
  endfacet
  facet normal -0 0 -1
    outer loop
      vertex 22.1958 10.9584 0
      vertex 0 0 0
      vertex 22.0247 11.322 0
    endloop
  endfacet
  facet normal -0 0 -1
    outer loop
      vertex 22.4111 10.6191 0
      vertex 0 0 0
      vertex 22.1958 10.9584 0
    endloop
  endfacet
  facet normal -0 0 -1
    outer loop
      vertex 22.6673 10.3094 0
      vertex 0 0 0
      vertex 22.4111 10.6191 0
    endloop
  endfacet
  facet normal -0 0 -1
    outer loop
      vertex 22.9602 10.0344 0
      vertex 0 0 0
      vertex 22.6673 10.3094 0
    endloop
  endfacet
  facet normal -0 0 -1
    outer loop
      vertex 23.2854 9.79815 0
      vertex 0 0 0
      vertex 22.9602 10.0344 0
    endloop
  endfacet
  facet normal -0 0 -1
    outer loop
      vertex 23.6375 9.60455 0
      vertex 0 0 0
      vertex 23.2854 9.79815 0
    endloop
  endfacet
  facet normal -0 0 -1
    outer loop
      vertex 24.0111 9.45662 0
      vertex 0 0 0
      vertex 23.6375 9.60455 0
    endloop
  endfacet
  facet normal -0 0 -1
    outer loop
      vertex 24.4004 9.35668 0
      vertex 0 0 0
      vertex 24.0111 9.45662 0
    endloop
  endfacet
  facet normal 0 0 -1
    outer loop
      vertex 28.1748 12.9011 0
      vertex 50 25 0
      vertex 28.2 12.5 0
    endloop
  endfacet
  facet normal 0 0 -1
    outer loop
      vertex 28.0995 13.2958 0
      vertex 50 25 0
      vertex 28.1748 12.9011 0
    endloop
  endfacet
  facet normal 0 0 -1
    outer loop
      vertex 27.9753 13.678 0
      vertex 50 25 0
      vertex 28.0995 13.2958 0
    endloop
  endfacet
  facet normal 0 0 -1
    outer loop
      vertex 27.8042 14.0416 0
      vertex 50 25 0
      vertex 27.9753 13.678 0
    endloop
  endfacet
  facet normal 0 0 -1
    outer loop
      vertex 27.5889 14.3809 0
      vertex 50 25 0
      vertex 27.8042 14.0416 0
    endloop
  endfacet
  facet normal 0 0 -1
    outer loop
      vertex 27.3327 14.6905 0
      vertex 50 25 0
      vertex 27.5889 14.3809 0
    endloop
  endfacet
  facet normal 0 0 -1
    outer loop
      vertex 27.0398 14.9656 0
      vertex 50 25 0
      vertex 27.3327 14.6905 0
    endloop
  endfacet
  facet normal 0 0 -1
    outer loop
      vertex 26.7146 15.2018 0
      vertex 50 25 0
      vertex 27.0398 14.9656 0
    endloop
  endfacet
  facet normal 0 0 -1
    outer loop
      vertex 26.3625 15.3954 0
      vertex 50 25 0
      vertex 26.7146 15.2018 0
    endloop
  endfacet
  facet normal 0 0 -1
    outer loop
      vertex 25.9889 15.5434 0
      vertex 50 25 0
      vertex 26.3625 15.3954 0
    endloop
  endfacet
  facet normal 0 0 -1
    outer loop
      vertex 25.5996 15.6433 0
      vertex 50 25 0
      vertex 25.9889 15.5434 0
    endloop
  endfacet
  facet normal 0 0 -1
    outer loop
      vertex 25.2009 15.6937 0
      vertex 50 25 0
      vertex 25.5996 15.6433 0
    endloop
  endfacet
  facet normal 0 0 -1
    outer loop
      vertex 24.7991 15.6937 0
      vertex 50 25 0
      vertex 25.2009 15.6937 0
    endloop
  endfacet
  facet normal 0 0 -1
    outer loop
      vertex 0 25 0
      vertex 24.7991 15.6937 0
      vertex 24.4004 15.6433 0
    endloop
  endfacet
  facet normal 0 0 -1
    outer loop
      vertex 0 25 0
      vertex 24.4004 15.6433 0
      vertex 24.0111 15.5434 0
    endloop
  endfacet
  facet normal 0 0 -1
    outer loop
      vertex 0 25 0
      vertex 21.8 12.5 0
      vertex 0 0 0
    endloop
  endfacet
  facet normal 0 0 -1
    outer loop
      vertex 21.8 12.5 0
      vertex 0 25 0
      vertex 21.8252 12.9011 0
    endloop
  endfacet
  facet normal 0 0 -1
    outer loop
      vertex 21.8252 12.9011 0
      vertex 0 25 0
      vertex 21.9005 13.2958 0
    endloop
  endfacet
  facet normal 0 0 -1
    outer loop
      vertex 21.9005 13.2958 0
      vertex 0 25 0
      vertex 22.0247 13.678 0
    endloop
  endfacet
  facet normal 0 0 -1
    outer loop
      vertex 22.0247 13.678 0
      vertex 0 25 0
      vertex 22.1958 14.0416 0
    endloop
  endfacet
  facet normal 0 0 -1
    outer loop
      vertex 22.1958 14.0416 0
      vertex 0 25 0
      vertex 22.4111 14.3809 0
    endloop
  endfacet
  facet normal 0 0 -1
    outer loop
      vertex 22.4111 14.3809 0
      vertex 0 25 0
      vertex 22.6673 14.6905 0
    endloop
  endfacet
  facet normal 0 0 -1
    outer loop
      vertex 22.6673 14.6905 0
      vertex 0 25 0
      vertex 22.9602 14.9656 0
    endloop
  endfacet
  facet normal 0 0 -1
    outer loop
      vertex 24.7991 15.6937 0
      vertex 0 25 0
      vertex 50 25 0
    endloop
  endfacet
  facet normal 0 0 -1
    outer loop
      vertex 23.6375 15.3954 0
      vertex 0 25 0
      vertex 24.0111 15.5434 0
    endloop
  endfacet
  facet normal 0 0 -1
    outer loop
      vertex 23.2854 15.2018 0
      vertex 0 25 0
      vertex 23.6375 15.3954 0
    endloop
  endfacet
  facet normal 0 0 -1
    outer loop
      vertex 22.9602 14.9656 0
      vertex 0 25 0
      vertex 23.2854 15.2018 0
    endloop
  endfacet
  facet normal -1 0 0
    outer loop
      vertex 0 0 0
      vertex 0 25 3
      vertex 0 25 0
    endloop
  endfacet
  facet normal -1 -0 0
    outer loop
      vertex 0 25 3
      vertex 0 0 0
      vertex 0 0 3
    endloop
  endfacet
  facet normal 0 1 -0
    outer loop
      vertex 50 25 0
      vertex 0 25 3
      vertex 50 25 3
    endloop
  endfacet
  facet normal 0 1 0
    outer loop
      vertex 0 25 3
      vertex 50 25 0
      vertex 0 25 0
    endloop
  endfacet
  facet normal 0 -1 0
    outer loop
      vertex 0 0 0
      vertex 50 0 3
      vertex 0 0 3
    endloop
  endfacet
  facet normal 0 -1 -0
    outer loop
      vertex 50 0 3
      vertex 0 0 0
      vertex 50 0 0
    endloop
  endfacet
  facet normal 0.997295 0.0626998 0.0383505
    outer loop
      vertex 29.9676 12.7704 3
      vertex 29.9 12.5 5.2
      vertex 29.9846 12.5 3
    endloop
  endfacet
  facet normal 0.125202 0.991389 0.0383706
    outer loop
      vertex 25.6652 17.4303 3
      vertex 25.3077 17.3903 5.2
      vertex 25.9182 17.3132 5.2
    endloop
  endfacet
  facet normal 0.12526 0.991381 0.0383798
    outer loop
      vertex 25.3077 17.3903 5.2
      vertex 25.6652 17.4303 3
      vertex 25.313 17.4748 3
    endloop
  endfacet
  facet normal -0.95039 -0.308683 0.0383757
    outer loop
      vertex 20.4441 10.6962 5.2
      vertex 20.2817 10.9227 3
      vertex 20.3654 10.665 3
    endloop
  endfacet
  facet normal -0.997296 -0.0626863 0.0383489
    outer loop
      vertex 20.0324 12.2296 3
      vertex 20.1386 11.8859 5.2
      vertex 20.1 12.5 5.2
    endloop
  endfacet
  facet normal -0.997291 -0.0627705 0.0383355
    outer loop
      vertex 20.1386 11.8859 5.2
      vertex 20.0324 12.2296 3
      vertex 20.0547 11.8753 3
    endloop
  endfacet
  facet normal -0.981539 0.187381 0.0383287
    outer loop
      vertex 20.172 13.7396 3
      vertex 20.1212 13.4735 3
      vertex 20.2539 13.7186 5.2
    endloop
  endfacet
  facet normal 0.843718 -0.535413 0.0383688
    outer loop
      vertex 28.9642 9.61985 5.2
      vertex 29.2229 9.86986 3
      vertex 29.2939 10.1394 5.2
    endloop
  endfacet
  facet normal 0.843606 -0.535592 0.0383353
    outer loop
      vertex 29.2229 9.86986 3
      vertex 28.9642 9.61985 5.2
      vertex 29.0326 9.57012 3
    endloop
  endfacet
  facet normal -0.95039 0.308683 0.0383757
    outer loop
      vertex 20.3654 14.335 3
      vertex 20.2817 14.0773 3
      vertex 20.4441 14.3038 5.2
    endloop
  endfacet
  facet normal 0.95039 -0.308683 0.0383757
    outer loop
      vertex 29.7183 10.9227 3
      vertex 29.5559 10.6962 5.2
      vertex 29.6346 10.665 3
    endloop
  endfacet
  facet normal -0.90426 0.425253 0.0383847
    outer loop
      vertex 20.4808 14.5801 3
      vertex 20.7061 14.8606 5.2
      vertex 20.6319 14.9014 3
    endloop
  endfacet
  facet normal -0.904168 0.425453 0.0383498
    outer loop
      vertex 20.7061 14.8606 5.2
      vertex 20.4808 14.5801 3
      vertex 20.4441 14.3038 5.2
    endloop
  endfacet
  facet normal 0.481324 -0.875703 0.0383547
    outer loop
      vertex 27.3598 8.12032 3
      vertex 27.0863 8.06635 5.2
      vertex 27.1223 7.98978 3
    endloop
  endfacet
  facet normal -0.997295 0.0626998 0.0383505
    outer loop
      vertex 20.0324 12.7704 3
      vertex 20.0154 12.5 3
      vertex 20.1 12.5 5.2
    endloop
  endfacet
  facet normal -0.904168 -0.425453 0.0383498
    outer loop
      vertex 20.4808 10.4199 3
      vertex 20.7061 10.1394 5.2
      vertex 20.4441 10.6962 5.2
    endloop
  endfacet
  facet normal -0.90426 -0.425253 0.0383847
    outer loop
      vertex 20.7061 10.1394 5.2
      vertex 20.4808 10.4199 3
      vertex 20.6319 10.0986 3
    endloop
  endfacet
  facet normal -0.367839 0.929098 0.0383475
    outer loop
      vertex 23.2077 17.1409 3
      vertex 22.9137 16.9337 5.2
      vertex 23.4858 17.1602 5.2
    endloop
  endfacet
  facet normal -0.367961 0.929051 0.0383268
    outer loop
      vertex 22.9137 16.9337 5.2
      vertex 23.2077 17.1409 3
      vertex 22.8777 17.0102 3
    endloop
  endfacet
  facet normal 0 0.999263 0.0383808
    outer loop
      vertex 25.313 17.4748 3
      vertex 24.6923 17.3903 5.2
      vertex 25.3077 17.3903 5.2
    endloop
  endfacet
  facet normal 0 0.999263 0.0383808
    outer loop
      vertex 24.6923 17.3903 5.2
      vertex 25.313 17.4748 3
      vertex 24.687 17.4748 3
    endloop
  endfacet
  facet normal 0.68403 -0.728446 0.0383439
    outer loop
      vertex 28.4361 8.90231 3
      vertex 28.1234 8.72448 5.2
      vertex 28.1773 8.65929 3
    endloop
  endfacet
  facet normal 0.684104 -0.728375 0.0383602
    outer loop
      vertex 28.1234 8.72448 5.2
      vertex 28.4361 8.90231 3
      vertex 28.5719 9.14572 5.2
    endloop
  endfacet
  facet normal -0.950379 0.308725 0.0383269
    outer loop
      vertex 20.2539 13.7186 5.2
      vertex 20.2817 14.0773 3
      vertex 20.172 13.7396 3
    endloop
  endfacet
  facet normal -0.95033 0.308873 0.0383517
    outer loop
      vertex 20.2817 14.0773 3
      vertex 20.2539 13.7186 5.2
      vertex 20.4441 14.3038 5.2
    endloop
  endfacet
  facet normal 0.997295 -0.0626998 0.0383505
    outer loop
      vertex 29.9846 12.5 3
      vertex 29.9 12.5 5.2
      vertex 29.9676 12.2296 3
    endloop
  endfacet
  facet normal 0.904069 0.425661 0.0383776
    outer loop
      vertex 29.6346 14.335 3
      vertex 29.5192 14.5801 3
      vertex 29.5559 14.3038 5.2
    endloop
  endfacet
  facet normal 0.367937 0.929059 0.0383602
    outer loop
      vertex 26.5403 17.2407 3
      vertex 26.5142 17.1602 5.2
      vertex 26.7923 17.1409 3
    endloop
  endfacet
  facet normal 0.481211 0.875767 0.0383272
    outer loop
      vertex 27.1223 17.0102 3
      vertex 27.0863 16.9337 5.2
      vertex 27.3598 16.8797 3
    endloop
  endfacet
  facet normal 0.684069 0.728407 0.0383626
    outer loop
      vertex 28.4361 16.0977 3
      vertex 28.1234 16.2755 5.2
      vertex 28.5719 15.8543 5.2
    endloop
  endfacet
  facet normal 0.684 0.728474 0.0383473
    outer loop
      vertex 28.1234 16.2755 5.2
      vertex 28.4361 16.0977 3
      vertex 28.1773 16.3407 3
    endloop
  endfacet
  facet normal -0.843718 -0.535413 0.0383688
    outer loop
      vertex 20.7771 9.86986 3
      vertex 21.0358 9.61985 5.2
      vertex 20.7061 10.1394 5.2
    endloop
  endfacet
  facet normal -0.843606 -0.535592 0.0383353
    outer loop
      vertex 21.0358 9.61985 5.2
      vertex 20.7771 9.86986 3
      vertex 20.9674 9.57012 3
    endloop
  endfacet
  facet normal 0.90426 0.425253 0.0383847
    outer loop
      vertex 29.2939 14.8606 5.2
      vertex 29.5192 14.5801 3
      vertex 29.3681 14.9014 3
    endloop
  endfacet
  facet normal 0.904168 0.425453 0.0383498
    outer loop
      vertex 29.5192 14.5801 3
      vertex 29.2939 14.8606 5.2
      vertex 29.5559 14.3038 5.2
    endloop
  endfacet
  facet normal -0.248566 -0.967855 0.0383504
    outer loop
      vertex 23.4858 7.83982 5.2
      vertex 23.4597 7.75935 3
      vertex 23.7221 7.69196 3
    endloop
  endfacet
  facet normal 0.981539 -0.187381 0.0383287
    outer loop
      vertex 29.8788 11.5265 3
      vertex 29.7461 11.2814 5.2
      vertex 29.828 11.2604 3
    endloop
  endfacet
  facet normal 0.770008 0.63688 0.0383568
    outer loop
      vertex 28.6336 15.9122 3
      vertex 28.5719 15.8543 5.2
      vertex 28.8063 15.7034 3
    endloop
  endfacet
  facet normal 0.843601 0.535596 0.0383852
    outer loop
      vertex 29.3681 14.9014 3
      vertex 29.2229 15.1301 3
      vertex 29.2939 14.8606 5.2
    endloop
  endfacet
  facet normal 0.769941 0.636963 0.0383438
    outer loop
      vertex 28.9642 15.3801 5.2
      vertex 28.8063 15.7034 3
      vertex 28.5719 15.8543 5.2
    endloop
  endfacet
  facet normal 0.769889 0.637024 0.0383565
    outer loop
      vertex 28.8063 15.7034 3
      vertex 28.9642 15.3801 5.2
      vertex 29.0326 15.4299 3
    endloop
  endfacet
  facet normal -0.997295 -0.0626998 0.0383505
    outer loop
      vertex 20.1 12.5 5.2
      vertex 20.0154 12.5 3
      vertex 20.0324 12.2296 3
    endloop
  endfacet
  facet normal -0.587371 -0.808409 0.0383468
    outer loop
      vertex 22.0419 8.50002 3
      vertex 22.3744 8.36279 5.2
      vertex 21.8766 8.72448 5.2
    endloop
  endfacet
  facet normal -0.587366 -0.808413 0.0383458
    outer loop
      vertex 22.3744 8.36279 5.2
      vertex 22.0419 8.50002 3
      vertex 22.3291 8.29135 3
    endloop
  endfacet
  facet normal -0.367778 -0.929123 0.038348
    outer loop
      vertex 23.4858 7.83982 5.2
      vertex 23.2077 7.8591 3
      vertex 23.4597 7.75935 3
    endloop
  endfacet
  facet normal 0.997291 0.0627705 0.0383355
    outer loop
      vertex 29.8614 13.1141 5.2
      vertex 29.9676 12.7704 3
      vertex 29.9453 13.1247 3
    endloop
  endfacet
  facet normal 0.997296 0.0626863 0.0383489
    outer loop
      vertex 29.9676 12.7704 3
      vertex 29.8614 13.1141 5.2
      vertex 29.9 12.5 5.2
    endloop
  endfacet
  facet normal -0.843601 0.535596 0.0383852
    outer loop
      vertex 20.7771 15.1301 3
      vertex 20.6319 14.9014 3
      vertex 20.7061 14.8606 5.2
    endloop
  endfacet
  facet normal -0.997291 0.0627705 0.0383355
    outer loop
      vertex 20.0324 12.7704 3
      vertex 20.1386 13.1141 5.2
      vertex 20.0547 13.1247 3
    endloop
  endfacet
  facet normal -0.997296 0.0626863 0.0383489
    outer loop
      vertex 20.1386 13.1141 5.2
      vertex 20.0324 12.7704 3
      vertex 20.1 12.5 5.2
    endloop
  endfacet
  facet normal 0.843654 0.535515 0.0383521
    outer loop
      vertex 28.9642 15.3801 5.2
      vertex 29.2229 15.1301 3
      vertex 29.0326 15.4299 3
    endloop
  endfacet
  facet normal 0.843695 0.53545 0.0383643
    outer loop
      vertex 29.2229 15.1301 3
      vertex 28.9642 15.3801 5.2
      vertex 29.2939 14.8606 5.2
    endloop
  endfacet
  facet normal -0.684093 -0.728386 0.0383621
    outer loop
      vertex 21.4281 9.14572 5.2
      vertex 21.3664 9.0878 3
      vertex 21.5639 8.90231 3
    endloop
  endfacet
  facet normal -0.481402 -0.875661 0.0383476
    outer loop
      vertex 22.6402 8.12032 3
      vertex 22.3744 8.36279 5.2
      vertex 22.3291 8.29135 3
    endloop
  endfacet
  facet normal -0.481346 -0.875691 0.0383578
    outer loop
      vertex 22.3744 8.36279 5.2
      vertex 22.6402 8.12032 3
      vertex 22.9137 8.06635 5.2
    endloop
  endfacet
  facet normal 0.367778 -0.929123 0.038348
    outer loop
      vertex 26.7923 7.8591 3
      vertex 26.5142 7.83982 5.2
      vertex 26.5403 7.75935 3
    endloop
  endfacet
  facet normal -0.981584 0.187143 0.0383357
    outer loop
      vertex 20.1386 13.1141 5.2
      vertex 20.1212 13.4735 3
      vertex 20.0547 13.1247 3
    endloop
  endfacet
  facet normal -0.981569 0.187221 0.0383484
    outer loop
      vertex 20.1212 13.4735 3
      vertex 20.1386 13.1141 5.2
      vertex 20.2539 13.7186 5.2
    endloop
  endfacet
  facet normal 0.769978 -0.636916 0.0383626
    outer loop
      vertex 28.8063 9.29658 3
      vertex 28.5719 9.14572 5.2
      vertex 28.6336 9.0878 3
    endloop
  endfacet
  facet normal -0.769889 0.637024 0.0383565
    outer loop
      vertex 21.0358 15.3801 5.2
      vertex 21.1937 15.7034 3
      vertex 20.9674 15.4299 3
    endloop
  endfacet
  facet normal -0.769941 0.636963 0.0383438
    outer loop
      vertex 21.1937 15.7034 3
      vertex 21.0358 15.3801 5.2
      vertex 21.4281 15.8543 5.2
    endloop
  endfacet
  facet normal 0.769936 -0.636969 0.0383364
    outer loop
      vertex 28.9642 9.61985 5.2
      vertex 28.8063 9.29658 3
      vertex 29.0326 9.57012 3
    endloop
  endfacet
  facet normal 0.769894 -0.637018 0.0383466
    outer loop
      vertex 28.8063 9.29658 3
      vertex 28.9642 9.61985 5.2
      vertex 28.5719 9.14572 5.2
    endloop
  endfacet
  facet normal 0.843644 -0.53553 0.0383854
    outer loop
      vertex 29.2939 10.1394 5.2
      vertex 29.2229 9.86986 3
      vertex 29.3681 10.0986 3
    endloop
  endfacet
  facet normal -0.587382 -0.808401 0.0383452
    outer loop
      vertex 21.8766 8.72448 5.2
      vertex 21.8227 8.65929 3
      vertex 22.0419 8.50002 3
    endloop
  endfacet
  facet normal -0.481211 0.875767 0.0383272
    outer loop
      vertex 22.8777 17.0102 3
      vertex 22.6402 16.8797 3
      vertex 22.9137 16.9337 5.2
    endloop
  endfacet
  facet normal -0.904069 0.425661 0.0383776
    outer loop
      vertex 20.4808 14.5801 3
      vertex 20.3654 14.335 3
      vertex 20.4441 14.3038 5.2
    endloop
  endfacet
  facet normal 0.904069 -0.425661 0.0383776
    outer loop
      vertex 29.5559 10.6962 5.2
      vertex 29.5192 10.4199 3
      vertex 29.6346 10.665 3
    endloop
  endfacet
  facet normal 0.981539 0.187381 0.0383287
    outer loop
      vertex 29.828 13.7396 3
      vertex 29.7461 13.7186 5.2
      vertex 29.8788 13.4735 3
    endloop
  endfacet
  facet normal 0.95033 0.308873 0.0383517
    outer loop
      vertex 29.7461 13.7186 5.2
      vertex 29.7183 14.0773 3
      vertex 29.5559 14.3038 5.2
    endloop
  endfacet
  facet normal 0.950379 0.308725 0.0383269
    outer loop
      vertex 29.7183 14.0773 3
      vertex 29.7461 13.7186 5.2
      vertex 29.828 13.7396 3
    endloop
  endfacet
  facet normal -0.125396 0.991365 0.0383471
    outer loop
      vertex 24.3348 17.4303 3
      vertex 24.066 17.3963 3
      vertex 24.0818 17.3132 5.2
    endloop
  endfacet
  facet normal 0.248255 0.967935 0.0383628
    outer loop
      vertex 26.5403 17.2407 3
      vertex 26.2779 17.308 3
      vertex 26.5142 17.1602 5.2
    endloop
  endfacet
  facet normal -0.684112 0.728368 0.0383555
    outer loop
      vertex 21.5639 16.0977 3
      vertex 21.3664 15.9122 3
      vertex 21.4281 15.8543 5.2
    endloop
  endfacet
  facet normal 0.950379 -0.308725 0.0383269
    outer loop
      vertex 29.7461 11.2814 5.2
      vertex 29.7183 10.9227 3
      vertex 29.828 11.2604 3
    endloop
  endfacet
  facet normal 0.95033 -0.308873 0.0383517
    outer loop
      vertex 29.7183 10.9227 3
      vertex 29.7461 11.2814 5.2
      vertex 29.5559 10.6962 5.2
    endloop
  endfacet
  facet normal 0.587366 -0.808413 0.0383458
    outer loop
      vertex 27.9581 8.50002 3
      vertex 27.6256 8.36279 5.2
      vertex 27.6709 8.29135 3
    endloop
  endfacet
  facet normal 0.587371 -0.808409 0.0383468
    outer loop
      vertex 27.6256 8.36279 5.2
      vertex 27.9581 8.50002 3
      vertex 28.1234 8.72448 5.2
    endloop
  endfacet
  facet normal -0.769978 -0.636916 0.0383626
    outer loop
      vertex 21.4281 9.14572 5.2
      vertex 21.1937 9.29658 3
      vertex 21.3664 9.0878 3
    endloop
  endfacet
  facet normal 0.684112 0.728368 0.0383555
    outer loop
      vertex 28.6336 15.9122 3
      vertex 28.4361 16.0977 3
      vertex 28.5719 15.8543 5.2
    endloop
  endfacet
  facet normal 0.587454 0.808348 0.0383491
    outer loop
      vertex 28.1773 16.3407 3
      vertex 27.9581 16.5 3
      vertex 28.1234 16.2755 5.2
    endloop
  endfacet
  facet normal -0.843644 -0.53553 0.0383854
    outer loop
      vertex 20.7061 10.1394 5.2
      vertex 20.6319 10.0986 3
      vertex 20.7771 9.86986 3
    endloop
  endfacet
  facet normal -0.843654 0.535515 0.0383521
    outer loop
      vertex 20.7771 15.1301 3
      vertex 21.0358 15.3801 5.2
      vertex 20.9674 15.4299 3
    endloop
  endfacet
  facet normal -0.843695 0.53545 0.0383643
    outer loop
      vertex 21.0358 15.3801 5.2
      vertex 20.7771 15.1301 3
      vertex 20.7061 14.8606 5.2
    endloop
  endfacet
  facet normal 0.248466 0.967882 0.0383365
    outer loop
      vertex 26.2779 17.308 3
      vertex 25.9182 17.3132 5.2
      vertex 26.5142 17.1602 5.2
    endloop
  endfacet
  facet normal 0.248511 0.96787 0.0383438
    outer loop
      vertex 25.9182 17.3132 5.2
      vertex 26.2779 17.308 3
      vertex 25.934 17.3963 3
    endloop
  endfacet
  facet normal -0.684104 -0.728375 0.0383602
    outer loop
      vertex 21.5639 8.90231 3
      vertex 21.8766 8.72448 5.2
      vertex 21.4281 9.14572 5.2
    endloop
  endfacet
  facet normal -0.68403 -0.728446 0.0383439
    outer loop
      vertex 21.8766 8.72448 5.2
      vertex 21.5639 8.90231 3
      vertex 21.8227 8.65929 3
    endloop
  endfacet
  facet normal 0.684093 -0.728386 0.0383621
    outer loop
      vertex 28.5719 9.14572 5.2
      vertex 28.4361 8.90231 3
      vertex 28.6336 9.0878 3
    endloop
  endfacet
  facet normal 0.125232 -0.991386 0.0383574
    outer loop
      vertex 25.6652 7.56971 3
      vertex 25.3077 7.60967 5.2
      vertex 25.313 7.52522 3
    endloop
  endfacet
  facet normal 0.125234 -0.991385 0.0383578
    outer loop
      vertex 25.3077 7.60967 5.2
      vertex 25.6652 7.56971 3
      vertex 25.9182 7.68679 5.2
    endloop
  endfacet
  facet normal -0.367937 0.929059 0.0383602
    outer loop
      vertex 23.4597 17.2407 3
      vertex 23.2077 17.1409 3
      vertex 23.4858 17.1602 5.2
    endloop
  endfacet
  facet normal 0.125396 0.991365 0.0383471
    outer loop
      vertex 25.934 17.3963 3
      vertex 25.6652 17.4303 3
      vertex 25.9182 17.3132 5.2
    endloop
  endfacet
  facet normal -0.248511 0.96787 0.0383438
    outer loop
      vertex 23.7221 17.308 3
      vertex 24.0818 17.3132 5.2
      vertex 24.066 17.3963 3
    endloop
  endfacet
  facet normal -0.248466 0.967882 0.0383365
    outer loop
      vertex 24.0818 17.3132 5.2
      vertex 23.7221 17.308 3
      vertex 23.4858 17.1602 5.2
    endloop
  endfacet
  facet normal 0.904168 -0.425453 0.0383498
    outer loop
      vertex 29.2939 10.1394 5.2
      vertex 29.5192 10.4199 3
      vertex 29.5559 10.6962 5.2
    endloop
  endfacet
  facet normal 0.90426 -0.425253 0.0383847
    outer loop
      vertex 29.5192 10.4199 3
      vertex 29.2939 10.1394 5.2
      vertex 29.3681 10.0986 3
    endloop
  endfacet
  facet normal 0.481346 -0.875691 0.0383578
    outer loop
      vertex 27.3598 8.12032 3
      vertex 27.6256 8.36279 5.2
      vertex 27.0863 8.06635 5.2
    endloop
  endfacet
  facet normal 0.481402 -0.875661 0.0383476
    outer loop
      vertex 27.6256 8.36279 5.2
      vertex 27.3598 8.12032 3
      vertex 27.6709 8.29135 3
    endloop
  endfacet
  facet normal 0.95039 0.308683 0.0383757
    outer loop
      vertex 29.6346 14.335 3
      vertex 29.5559 14.3038 5.2
      vertex 29.7183 14.0773 3
    endloop
  endfacet
  facet normal 0.481554 0.875578 0.0383321
    outer loop
      vertex 27.3598 16.8797 3
      vertex 27.6256 16.6372 5.2
      vertex 27.6709 16.7086 3
    endloop
  endfacet
  facet normal 0.481421 0.87565 0.0383561
    outer loop
      vertex 27.6256 16.6372 5.2
      vertex 27.3598 16.8797 3
      vertex 27.0863 16.9337 5.2
    endloop
  endfacet
  facet normal 0.981569 0.187221 0.0383484
    outer loop
      vertex 29.8614 13.1141 5.2
      vertex 29.8788 13.4735 3
      vertex 29.7461 13.7186 5.2
    endloop
  endfacet
  facet normal 0.981584 0.187143 0.0383357
    outer loop
      vertex 29.8788 13.4735 3
      vertex 29.8614 13.1141 5.2
      vertex 29.9453 13.1247 3
    endloop
  endfacet
  facet normal 0.125287 -0.991379 0.0383514
    outer loop
      vertex 25.9182 7.68679 5.2
      vertex 25.6652 7.56971 3
      vertex 25.934 7.60368 3
    endloop
  endfacet
  facet normal -0.587454 0.808348 0.0383491
    outer loop
      vertex 22.0419 16.5 3
      vertex 21.8227 16.3407 3
      vertex 21.8766 16.2755 5.2
    endloop
  endfacet
  facet normal 0.587381 0.808401 0.0383599
    outer loop
      vertex 27.9581 16.5 3
      vertex 27.6256 16.6372 5.2
      vertex 28.1234 16.2755 5.2
    endloop
  endfacet
  facet normal 0.587237 0.808507 0.0383315
    outer loop
      vertex 27.6256 16.6372 5.2
      vertex 27.9581 16.5 3
      vertex 27.6709 16.7086 3
    endloop
  endfacet
  facet normal -0.904069 -0.425661 0.0383776
    outer loop
      vertex 20.4441 10.6962 5.2
      vertex 20.3654 10.665 3
      vertex 20.4808 10.4199 3
    endloop
  endfacet
  facet normal 0.367881 -0.929081 0.0383614
    outer loop
      vertex 26.7923 7.8591 3
      vertex 27.0863 8.06635 5.2
      vertex 26.5142 7.83982 5.2
    endloop
  endfacet
  facet normal 0.367911 -0.929069 0.0383562
    outer loop
      vertex 27.0863 8.06635 5.2
      vertex 26.7923 7.8591 3
      vertex 27.1223 7.98978 3
    endloop
  endfacet
  facet normal -0.981584 -0.187143 0.0383357
    outer loop
      vertex 20.1212 11.5265 3
      vertex 20.1386 11.8859 5.2
      vertex 20.0547 11.8753 3
    endloop
  endfacet
  facet normal -0.981569 -0.187221 0.0383484
    outer loop
      vertex 20.1386 11.8859 5.2
      vertex 20.1212 11.5265 3
      vertex 20.2539 11.2814 5.2
    endloop
  endfacet
  facet normal -0.248255 0.967935 0.0383628
    outer loop
      vertex 23.7221 17.308 3
      vertex 23.4597 17.2407 3
      vertex 23.4858 17.1602 5.2
    endloop
  endfacet
  facet normal -0.587237 0.808507 0.0383315
    outer loop
      vertex 22.0419 16.5 3
      vertex 22.3744 16.6372 5.2
      vertex 22.3291 16.7086 3
    endloop
  endfacet
  facet normal -0.587381 0.808401 0.0383599
    outer loop
      vertex 22.3744 16.6372 5.2
      vertex 22.0419 16.5 3
      vertex 21.8766 16.2755 5.2
    endloop
  endfacet
  facet normal -0.770008 0.63688 0.0383568
    outer loop
      vertex 21.3664 15.9122 3
      vertex 21.1937 15.7034 3
      vertex 21.4281 15.8543 5.2
    endloop
  endfacet
  facet normal -0.481324 -0.875703 0.0383547
    outer loop
      vertex 22.9137 8.06635 5.2
      vertex 22.6402 8.12032 3
      vertex 22.8777 7.98978 3
    endloop
  endfacet
  facet normal 0.367961 0.929051 0.0383268
    outer loop
      vertex 26.7923 17.1409 3
      vertex 27.0863 16.9337 5.2
      vertex 27.1223 17.0102 3
    endloop
  endfacet
  facet normal 0.367839 0.929098 0.0383475
    outer loop
      vertex 27.0863 16.9337 5.2
      vertex 26.7923 17.1409 3
      vertex 26.5142 17.1602 5.2
    endloop
  endfacet
  facet normal 0.981584 -0.187143 0.0383357
    outer loop
      vertex 29.8614 11.8859 5.2
      vertex 29.8788 11.5265 3
      vertex 29.9453 11.8753 3
    endloop
  endfacet
  facet normal 0.981569 -0.187221 0.0383484
    outer loop
      vertex 29.8788 11.5265 3
      vertex 29.8614 11.8859 5.2
      vertex 29.7461 11.2814 5.2
    endloop
  endfacet
  facet normal 0.997296 -0.0626863 0.0383489
    outer loop
      vertex 29.8614 11.8859 5.2
      vertex 29.9676 12.2296 3
      vertex 29.9 12.5 5.2
    endloop
  endfacet
  facet normal 0.997291 -0.0627705 0.0383355
    outer loop
      vertex 29.9676 12.2296 3
      vertex 29.8614 11.8859 5.2
      vertex 29.9453 11.8753 3
    endloop
  endfacet
  facet normal -0.981539 -0.187381 0.0383287
    outer loop
      vertex 20.2539 11.2814 5.2
      vertex 20.1212 11.5265 3
      vertex 20.172 11.2604 3
    endloop
  endfacet
  facet normal 0 -0.999264 0.0383581
    outer loop
      vertex 24.687 7.52522 3
      vertex 25.3077 7.60967 5.2
      vertex 24.6923 7.60967 5.2
    endloop
  endfacet
  facet normal 0 -0.999264 0.0383581
    outer loop
      vertex 25.3077 7.60967 5.2
      vertex 24.687 7.52522 3
      vertex 25.313 7.52522 3
    endloop
  endfacet
  facet normal 0.587382 -0.808401 0.0383452
    outer loop
      vertex 28.1234 8.72448 5.2
      vertex 27.9581 8.50002 3
      vertex 28.1773 8.65929 3
    endloop
  endfacet
  facet normal -0.125234 -0.991385 0.0383578
    outer loop
      vertex 24.3348 7.56971 3
      vertex 24.6923 7.60967 5.2
      vertex 24.0818 7.68679 5.2
    endloop
  endfacet
  facet normal -0.125232 -0.991386 0.0383574
    outer loop
      vertex 24.6923 7.60967 5.2
      vertex 24.3348 7.56971 3
      vertex 24.687 7.52522 3
    endloop
  endfacet
  facet normal -0.950379 -0.308725 0.0383269
    outer loop
      vertex 20.2817 10.9227 3
      vertex 20.2539 11.2814 5.2
      vertex 20.172 11.2604 3
    endloop
  endfacet
  facet normal -0.95033 -0.308873 0.0383517
    outer loop
      vertex 20.2539 11.2814 5.2
      vertex 20.2817 10.9227 3
      vertex 20.4441 10.6962 5.2
    endloop
  endfacet
  facet normal 0.248458 -0.967883 0.0383484
    outer loop
      vertex 26.2779 7.69196 3
      vertex 25.9182 7.68679 5.2
      vertex 25.934 7.60368 3
    endloop
  endfacet
  facet normal 0.248512 -0.967869 0.0383572
    outer loop
      vertex 25.9182 7.68679 5.2
      vertex 26.2779 7.69196 3
      vertex 26.5142 7.83982 5.2
    endloop
  endfacet
  facet normal 0.248566 -0.967855 0.0383504
    outer loop
      vertex 26.5142 7.83982 5.2
      vertex 26.2779 7.69196 3
      vertex 26.5403 7.75935 3
    endloop
  endfacet
  facet normal -0.684 0.728474 0.0383473
    outer loop
      vertex 21.5639 16.0977 3
      vertex 21.8766 16.2755 5.2
      vertex 21.8227 16.3407 3
    endloop
  endfacet
  facet normal -0.684069 0.728407 0.0383626
    outer loop
      vertex 21.8766 16.2755 5.2
      vertex 21.5639 16.0977 3
      vertex 21.4281 15.8543 5.2
    endloop
  endfacet
  facet normal 0 0 1
    outer loop
      vertex 28.2 12.5 5.2
      vertex 29.9 12.5 5.2
      vertex 29.8614 13.1141 5.2
    endloop
  endfacet
  facet normal 0 0 1
    outer loop
      vertex 28.1748 12.9011 5.2
      vertex 29.8614 13.1141 5.2
      vertex 29.7461 13.7186 5.2
    endloop
  endfacet
  facet normal 0 0 1
    outer loop
      vertex 29.9 12.5 5.2
      vertex 28.2 12.5 5.2
      vertex 29.8614 11.8859 5.2
    endloop
  endfacet
  facet normal 0 0 1
    outer loop
      vertex 28.0995 13.2958 5.2
      vertex 29.7461 13.7186 5.2
      vertex 29.5559 14.3038 5.2
    endloop
  endfacet
  facet normal -0 0 1
    outer loop
      vertex 28.1748 12.0989 5.2
      vertex 29.8614 11.8859 5.2
      vertex 28.2 12.5 5.2
    endloop
  endfacet
  facet normal 0 0 1
    outer loop
      vertex 27.9753 13.678 5.2
      vertex 29.5559 14.3038 5.2
      vertex 29.2939 14.8606 5.2
    endloop
  endfacet
  facet normal 0 0 1
    outer loop
      vertex 29.8614 11.8859 5.2
      vertex 28.1748 12.0989 5.2
      vertex 29.7461 11.2814 5.2
    endloop
  endfacet
  facet normal 0 0 1
    outer loop
      vertex 27.8042 14.0416 5.2
      vertex 29.2939 14.8606 5.2
      vertex 28.9642 15.3801 5.2
    endloop
  endfacet
  facet normal -0 0 1
    outer loop
      vertex 28.0995 11.7042 5.2
      vertex 29.7461 11.2814 5.2
      vertex 28.1748 12.0989 5.2
    endloop
  endfacet
  facet normal 0 0 1
    outer loop
      vertex 27.5889 14.3809 5.2
      vertex 28.9642 15.3801 5.2
      vertex 28.5719 15.8543 5.2
    endloop
  endfacet
  facet normal 0 0 1
    outer loop
      vertex 29.7461 11.2814 5.2
      vertex 28.0995 11.7042 5.2
      vertex 29.5559 10.6962 5.2
    endloop
  endfacet
  facet normal -0 0 1
    outer loop
      vertex 27.9753 11.322 5.2
      vertex 29.5559 10.6962 5.2
      vertex 28.0995 11.7042 5.2
    endloop
  endfacet
  facet normal 0 0 1
    outer loop
      vertex 29.8614 13.1141 5.2
      vertex 28.1748 12.9011 5.2
      vertex 28.2 12.5 5.2
    endloop
  endfacet
  facet normal 0 0 1
    outer loop
      vertex 27.3327 14.6905 5.2
      vertex 28.5719 15.8543 5.2
      vertex 28.1234 16.2755 5.2
    endloop
  endfacet
  facet normal 0 0 1
    outer loop
      vertex 29.7461 13.7186 5.2
      vertex 28.0995 13.2958 5.2
      vertex 28.1748 12.9011 5.2
    endloop
  endfacet
  facet normal 0 0 1
    outer loop
      vertex 29.5559 14.3038 5.2
      vertex 27.9753 13.678 5.2
      vertex 28.0995 13.2958 5.2
    endloop
  endfacet
  facet normal 0 0 1
    outer loop
      vertex 29.2939 14.8606 5.2
      vertex 27.8042 14.0416 5.2
      vertex 27.9753 13.678 5.2
    endloop
  endfacet
  facet normal 0 0 1
    outer loop
      vertex 27.0398 14.9656 5.2
      vertex 28.1234 16.2755 5.2
      vertex 27.6256 16.6372 5.2
    endloop
  endfacet
  facet normal 0 0 1
    outer loop
      vertex 28.9642 15.3801 5.2
      vertex 27.5889 14.3809 5.2
      vertex 27.8042 14.0416 5.2
    endloop
  endfacet
  facet normal 0 0 1
    outer loop
      vertex 28.5719 15.8543 5.2
      vertex 27.3327 14.6905 5.2
      vertex 27.5889 14.3809 5.2
    endloop
  endfacet
  facet normal 0 0 1
    outer loop
      vertex 26.7146 15.2018 5.2
      vertex 27.6256 16.6372 5.2
      vertex 27.0863 16.9337 5.2
    endloop
  endfacet
  facet normal 0 0 1
    outer loop
      vertex 28.1234 16.2755 5.2
      vertex 27.0398 14.9656 5.2
      vertex 27.3327 14.6905 5.2
    endloop
  endfacet
  facet normal 0 0 1
    outer loop
      vertex 27.6256 16.6372 5.2
      vertex 26.7146 15.2018 5.2
      vertex 27.0398 14.9656 5.2
    endloop
  endfacet
  facet normal 0 0 1
    outer loop
      vertex 26.3625 15.3954 5.2
      vertex 27.0863 16.9337 5.2
      vertex 26.5142 17.1602 5.2
    endloop
  endfacet
  facet normal 0 0 1
    outer loop
      vertex 27.0863 16.9337 5.2
      vertex 26.3625 15.3954 5.2
      vertex 26.7146 15.2018 5.2
    endloop
  endfacet
  facet normal 0 0 1
    outer loop
      vertex 26.5142 17.1602 5.2
      vertex 25.9889 15.5434 5.2
      vertex 26.3625 15.3954 5.2
    endloop
  endfacet
  facet normal 0 0 1
    outer loop
      vertex 25.9182 17.3132 5.2
      vertex 25.9889 15.5434 5.2
      vertex 26.5142 17.1602 5.2
    endloop
  endfacet
  facet normal 0 0 1
    outer loop
      vertex 25.9182 17.3132 5.2
      vertex 25.5996 15.6433 5.2
      vertex 25.9889 15.5434 5.2
    endloop
  endfacet
  facet normal 0 0 1
    outer loop
      vertex 25.3077 17.3903 5.2
      vertex 25.5996 15.6433 5.2
      vertex 25.9182 17.3132 5.2
    endloop
  endfacet
  facet normal 0 0 1
    outer loop
      vertex 25.3077 17.3903 5.2
      vertex 25.2009 15.6937 5.2
      vertex 25.5996 15.6433 5.2
    endloop
  endfacet
  facet normal 0 0 1
    outer loop
      vertex 25.3077 17.3903 5.2
      vertex 24.7991 15.6937 5.2
      vertex 25.2009 15.6937 5.2
    endloop
  endfacet
  facet normal -0 0 1
    outer loop
      vertex 24.6923 17.3903 5.2
      vertex 24.7991 15.6937 5.2
      vertex 25.3077 17.3903 5.2
    endloop
  endfacet
  facet normal 0 0 1
    outer loop
      vertex 24.6923 17.3903 5.2
      vertex 24.4004 15.6433 5.2
      vertex 24.7991 15.6937 5.2
    endloop
  endfacet
  facet normal -0 0 1
    outer loop
      vertex 24.0818 17.3132 5.2
      vertex 24.4004 15.6433 5.2
      vertex 24.6923 17.3903 5.2
    endloop
  endfacet
  facet normal 0 0 1
    outer loop
      vertex 24.0818 17.3132 5.2
      vertex 24.0111 15.5434 5.2
      vertex 24.4004 15.6433 5.2
    endloop
  endfacet
  facet normal -0 0 1
    outer loop
      vertex 23.4858 17.1602 5.2
      vertex 24.0111 15.5434 5.2
      vertex 24.0818 17.3132 5.2
    endloop
  endfacet
  facet normal 0 0 1
    outer loop
      vertex 24.0111 15.5434 5.2
      vertex 23.4858 17.1602 5.2
      vertex 23.6375 15.3954 5.2
    endloop
  endfacet
  facet normal -0 0 1
    outer loop
      vertex 22.9137 16.9337 5.2
      vertex 23.6375 15.3954 5.2
      vertex 23.4858 17.1602 5.2
    endloop
  endfacet
  facet normal 0 0 1
    outer loop
      vertex 23.6375 15.3954 5.2
      vertex 22.9137 16.9337 5.2
      vertex 23.2854 15.2018 5.2
    endloop
  endfacet
  facet normal -0 0 1
    outer loop
      vertex 22.3744 16.6372 5.2
      vertex 23.2854 15.2018 5.2
      vertex 22.9137 16.9337 5.2
    endloop
  endfacet
  facet normal 0 0 1
    outer loop
      vertex 23.2854 15.2018 5.2
      vertex 22.3744 16.6372 5.2
      vertex 22.9602 14.9656 5.2
    endloop
  endfacet
  facet normal -0 0 1
    outer loop
      vertex 21.8766 16.2755 5.2
      vertex 22.9602 14.9656 5.2
      vertex 22.3744 16.6372 5.2
    endloop
  endfacet
  facet normal 0 0 1
    outer loop
      vertex 22.9602 14.9656 5.2
      vertex 21.8766 16.2755 5.2
      vertex 22.6673 14.6905 5.2
    endloop
  endfacet
  facet normal -0 0 1
    outer loop
      vertex 21.4281 15.8543 5.2
      vertex 22.6673 14.6905 5.2
      vertex 21.8766 16.2755 5.2
    endloop
  endfacet
  facet normal 0 0 1
    outer loop
      vertex 22.6673 14.6905 5.2
      vertex 21.4281 15.8543 5.2
      vertex 22.4111 14.3809 5.2
    endloop
  endfacet
  facet normal -0 0 1
    outer loop
      vertex 21.0358 15.3801 5.2
      vertex 22.4111 14.3809 5.2
      vertex 21.4281 15.8543 5.2
    endloop
  endfacet
  facet normal 0 0 1
    outer loop
      vertex 22.4111 14.3809 5.2
      vertex 21.0358 15.3801 5.2
      vertex 22.1958 14.0416 5.2
    endloop
  endfacet
  facet normal -0 0 1
    outer loop
      vertex 20.7061 14.8606 5.2
      vertex 22.1958 14.0416 5.2
      vertex 21.0358 15.3801 5.2
    endloop
  endfacet
  facet normal 0 0 1
    outer loop
      vertex 22.1958 14.0416 5.2
      vertex 20.7061 14.8606 5.2
      vertex 22.0247 13.678 5.2
    endloop
  endfacet
  facet normal -0 0 1
    outer loop
      vertex 20.4441 14.3038 5.2
      vertex 22.0247 13.678 5.2
      vertex 20.7061 14.8606 5.2
    endloop
  endfacet
  facet normal 0 0 1
    outer loop
      vertex 29.5559 10.6962 5.2
      vertex 27.9753 11.322 5.2
      vertex 29.2939 10.1394 5.2
    endloop
  endfacet
  facet normal -0 0 1
    outer loop
      vertex 27.8042 10.9584 5.2
      vertex 29.2939 10.1394 5.2
      vertex 27.9753 11.322 5.2
    endloop
  endfacet
  facet normal 0 0 1
    outer loop
      vertex 29.2939 10.1394 5.2
      vertex 27.8042 10.9584 5.2
      vertex 28.9642 9.61985 5.2
    endloop
  endfacet
  facet normal -0 0 1
    outer loop
      vertex 27.5889 10.6191 5.2
      vertex 28.9642 9.61985 5.2
      vertex 27.8042 10.9584 5.2
    endloop
  endfacet
  facet normal 0 0 1
    outer loop
      vertex 28.9642 9.61985 5.2
      vertex 27.5889 10.6191 5.2
      vertex 28.5719 9.14572 5.2
    endloop
  endfacet
  facet normal -0 0 1
    outer loop
      vertex 27.3327 10.3094 5.2
      vertex 28.5719 9.14572 5.2
      vertex 27.5889 10.6191 5.2
    endloop
  endfacet
  facet normal 0 0 1
    outer loop
      vertex 28.5719 9.14572 5.2
      vertex 27.3327 10.3094 5.2
      vertex 28.1234 8.72448 5.2
    endloop
  endfacet
  facet normal -0 0 1
    outer loop
      vertex 27.0398 10.0344 5.2
      vertex 28.1234 8.72448 5.2
      vertex 27.3327 10.3094 5.2
    endloop
  endfacet
  facet normal 0 0 1
    outer loop
      vertex 28.1234 8.72448 5.2
      vertex 27.0398 10.0344 5.2
      vertex 27.6256 8.36279 5.2
    endloop
  endfacet
  facet normal -0 0 1
    outer loop
      vertex 26.7146 9.79815 5.2
      vertex 27.6256 8.36279 5.2
      vertex 27.0398 10.0344 5.2
    endloop
  endfacet
  facet normal 0 0 1
    outer loop
      vertex 27.6256 8.36279 5.2
      vertex 26.7146 9.79815 5.2
      vertex 27.0863 8.06635 5.2
    endloop
  endfacet
  facet normal -0 0 1
    outer loop
      vertex 26.3625 9.60455 5.2
      vertex 27.0863 8.06635 5.2
      vertex 26.7146 9.79815 5.2
    endloop
  endfacet
  facet normal 0 0 1
    outer loop
      vertex 27.0863 8.06635 5.2
      vertex 26.3625 9.60455 5.2
      vertex 26.5142 7.83982 5.2
    endloop
  endfacet
  facet normal -0 0 1
    outer loop
      vertex 25.9889 9.45662 5.2
      vertex 26.5142 7.83982 5.2
      vertex 26.3625 9.60455 5.2
    endloop
  endfacet
  facet normal 0 0 1
    outer loop
      vertex 25.9889 9.45662 5.2
      vertex 25.9182 7.68679 5.2
      vertex 26.5142 7.83982 5.2
    endloop
  endfacet
  facet normal -0 0 1
    outer loop
      vertex 25.5996 9.35668 5.2
      vertex 25.9182 7.68679 5.2
      vertex 25.9889 9.45662 5.2
    endloop
  endfacet
  facet normal 0 0 1
    outer loop
      vertex 25.5996 9.35668 5.2
      vertex 25.3077 7.60967 5.2
      vertex 25.9182 7.68679 5.2
    endloop
  endfacet
  facet normal -0 0 1
    outer loop
      vertex 25.2009 9.30631 5.2
      vertex 25.3077 7.60967 5.2
      vertex 25.5996 9.35668 5.2
    endloop
  endfacet
  facet normal -0 0 1
    outer loop
      vertex 24.7991 9.30631 5.2
      vertex 25.3077 7.60967 5.2
      vertex 25.2009 9.30631 5.2
    endloop
  endfacet
  facet normal 0 0 1
    outer loop
      vertex 24.7991 9.30631 5.2
      vertex 24.6923 7.60967 5.2
      vertex 25.3077 7.60967 5.2
    endloop
  endfacet
  facet normal 0 0 1
    outer loop
      vertex 24.4004 9.35668 5.2
      vertex 24.6923 7.60967 5.2
      vertex 24.7991 9.30631 5.2
    endloop
  endfacet
  facet normal 0 0 1
    outer loop
      vertex 24.4004 9.35668 5.2
      vertex 24.0818 7.68679 5.2
      vertex 24.6923 7.60967 5.2
    endloop
  endfacet
  facet normal 0 0 1
    outer loop
      vertex 24.0111 9.45662 5.2
      vertex 24.0818 7.68679 5.2
      vertex 24.4004 9.35668 5.2
    endloop
  endfacet
  facet normal 0 0 1
    outer loop
      vertex 23.4858 7.83982 5.2
      vertex 24.0111 9.45662 5.2
      vertex 23.6375 9.60455 5.2
    endloop
  endfacet
  facet normal 0 0 1
    outer loop
      vertex 24.0111 9.45662 5.2
      vertex 23.4858 7.83982 5.2
      vertex 24.0818 7.68679 5.2
    endloop
  endfacet
  facet normal 0 0 1
    outer loop
      vertex 22.9137 8.06635 5.2
      vertex 23.6375 9.60455 5.2
      vertex 23.2854 9.79815 5.2
    endloop
  endfacet
  facet normal 0 0 1
    outer loop
      vertex 22.3744 8.36279 5.2
      vertex 23.2854 9.79815 5.2
      vertex 22.9602 10.0344 5.2
    endloop
  endfacet
  facet normal 0 0 1
    outer loop
      vertex 23.6375 9.60455 5.2
      vertex 22.9137 8.06635 5.2
      vertex 23.4858 7.83982 5.2
    endloop
  endfacet
  facet normal 0 0 1
    outer loop
      vertex 21.8766 8.72448 5.2
      vertex 22.9602 10.0344 5.2
      vertex 22.6673 10.3094 5.2
    endloop
  endfacet
  facet normal 0 0 1
    outer loop
      vertex 21.4281 9.14572 5.2
      vertex 22.6673 10.3094 5.2
      vertex 22.4111 10.6191 5.2
    endloop
  endfacet
  facet normal 0 0 1
    outer loop
      vertex 23.2854 9.79815 5.2
      vertex 22.3744 8.36279 5.2
      vertex 22.9137 8.06635 5.2
    endloop
  endfacet
  facet normal 0 0 1
    outer loop
      vertex 21.0358 9.61985 5.2
      vertex 22.4111 10.6191 5.2
      vertex 22.1958 10.9584 5.2
    endloop
  endfacet
  facet normal 0 0 1
    outer loop
      vertex 20.7061 10.1394 5.2
      vertex 22.1958 10.9584 5.2
      vertex 22.0247 11.322 5.2
    endloop
  endfacet
  facet normal 0 0 1
    outer loop
      vertex 20.4441 10.6962 5.2
      vertex 22.0247 11.322 5.2
      vertex 21.9005 11.7042 5.2
    endloop
  endfacet
  facet normal 0 0 1
    outer loop
      vertex 22.9602 10.0344 5.2
      vertex 21.8766 8.72448 5.2
      vertex 22.3744 8.36279 5.2
    endloop
  endfacet
  facet normal 0 0 1
    outer loop
      vertex 20.2539 11.2814 5.2
      vertex 21.9005 11.7042 5.2
      vertex 21.8252 12.0989 5.2
    endloop
  endfacet
  facet normal 0 0 1
    outer loop
      vertex 20.1386 11.8859 5.2
      vertex 21.8252 12.0989 5.2
      vertex 21.8 12.5 5.2
    endloop
  endfacet
  facet normal 0 0 1
    outer loop
      vertex 22.0247 13.678 5.2
      vertex 20.4441 14.3038 5.2
      vertex 21.9005 13.2958 5.2
    endloop
  endfacet
  facet normal 0 0 1
    outer loop
      vertex 22.6673 10.3094 5.2
      vertex 21.4281 9.14572 5.2
      vertex 21.8766 8.72448 5.2
    endloop
  endfacet
  facet normal -0 0 1
    outer loop
      vertex 20.2539 13.7186 5.2
      vertex 21.9005 13.2958 5.2
      vertex 20.4441 14.3038 5.2
    endloop
  endfacet
  facet normal 0 0 1
    outer loop
      vertex 22.4111 10.6191 5.2
      vertex 21.0358 9.61985 5.2
      vertex 21.4281 9.14572 5.2
    endloop
  endfacet
  facet normal 0 0 1
    outer loop
      vertex 21.9005 13.2958 5.2
      vertex 20.2539 13.7186 5.2
      vertex 21.8252 12.9011 5.2
    endloop
  endfacet
  facet normal 0 0 1
    outer loop
      vertex 22.1958 10.9584 5.2
      vertex 20.7061 10.1394 5.2
      vertex 21.0358 9.61985 5.2
    endloop
  endfacet
  facet normal -0 0 1
    outer loop
      vertex 20.1386 13.1141 5.2
      vertex 21.8252 12.9011 5.2
      vertex 20.2539 13.7186 5.2
    endloop
  endfacet
  facet normal 0 0 1
    outer loop
      vertex 22.0247 11.322 5.2
      vertex 20.4441 10.6962 5.2
      vertex 20.7061 10.1394 5.2
    endloop
  endfacet
  facet normal 0 0 1
    outer loop
      vertex 21.8252 12.9011 5.2
      vertex 20.1386 13.1141 5.2
      vertex 21.8 12.5 5.2
    endloop
  endfacet
  facet normal 0 0 1
    outer loop
      vertex 21.9005 11.7042 5.2
      vertex 20.2539 11.2814 5.2
      vertex 20.4441 10.6962 5.2
    endloop
  endfacet
  facet normal 0 0 1
    outer loop
      vertex 20.1 12.5 5.2
      vertex 21.8 12.5 5.2
      vertex 20.1386 13.1141 5.2
    endloop
  endfacet
  facet normal 0 0 1
    outer loop
      vertex 21.8252 12.0989 5.2
      vertex 20.1386 11.8859 5.2
      vertex 20.2539 11.2814 5.2
    endloop
  endfacet
  facet normal 0 0 1
    outer loop
      vertex 21.8 12.5 5.2
      vertex 20.1 12.5 5.2
      vertex 20.1386 11.8859 5.2
    endloop
  endfacet
  facet normal -0.12526 0.991381 0.0383798
    outer loop
      vertex 24.3348 17.4303 3
      vertex 24.6923 17.3903 5.2
      vertex 24.687 17.4748 3
    endloop
  endfacet
  facet normal -0.125202 0.991389 0.0383706
    outer loop
      vertex 24.6923 17.3903 5.2
      vertex 24.3348 17.4303 3
      vertex 24.0818 17.3132 5.2
    endloop
  endfacet
  facet normal -0.769936 -0.636969 0.0383364
    outer loop
      vertex 21.1937 9.29658 3
      vertex 21.0358 9.61985 5.2
      vertex 20.9674 9.57012 3
    endloop
  endfacet
  facet normal -0.769894 -0.637018 0.0383466
    outer loop
      vertex 21.0358 9.61985 5.2
      vertex 21.1937 9.29658 3
      vertex 21.4281 9.14572 5.2
    endloop
  endfacet
  facet normal -0.367911 -0.929069 0.0383562
    outer loop
      vertex 23.2077 7.8591 3
      vertex 22.9137 8.06635 5.2
      vertex 22.8777 7.98978 3
    endloop
  endfacet
  facet normal -0.367881 -0.929081 0.0383614
    outer loop
      vertex 22.9137 8.06635 5.2
      vertex 23.2077 7.8591 3
      vertex 23.4858 7.83982 5.2
    endloop
  endfacet
  facet normal -0.248512 -0.967869 0.0383572
    outer loop
      vertex 23.7221 7.69196 3
      vertex 24.0818 7.68679 5.2
      vertex 23.4858 7.83982 5.2
    endloop
  endfacet
  facet normal -0.248458 -0.967883 0.0383484
    outer loop
      vertex 24.0818 7.68679 5.2
      vertex 23.7221 7.69196 3
      vertex 24.066 7.60368 3
    endloop
  endfacet
  facet normal -0.125287 -0.991379 0.0383514
    outer loop
      vertex 24.0818 7.68679 5.2
      vertex 24.066 7.60368 3
      vertex 24.3348 7.56971 3
    endloop
  endfacet
  facet normal -0.481421 0.87565 0.0383561
    outer loop
      vertex 22.6402 16.8797 3
      vertex 22.3744 16.6372 5.2
      vertex 22.9137 16.9337 5.2
    endloop
  endfacet
  facet normal -0.481554 0.875578 0.0383321
    outer loop
      vertex 22.3744 16.6372 5.2
      vertex 22.6402 16.8797 3
      vertex 22.3291 16.7086 3
    endloop
  endfacet
  facet normal -0.368149 0.929767 0
    outer loop
      vertex 26.3625 9.60455 0
      vertex 25.9889 9.45662 5.2
      vertex 26.3625 9.60455 5.2
    endloop
  endfacet
  facet normal -0.368149 0.929767 0
    outer loop
      vertex 25.9889 9.45662 5.2
      vertex 26.3625 9.60455 0
      vertex 25.9889 9.45662 0
    endloop
  endfacet
  facet normal -0.982284 -0.187398 0
    outer loop
      vertex 28.1748 12.9011 0
      vertex 28.0995 13.2958 5.2
      vertex 28.0995 13.2958 0
    endloop
  endfacet
  facet normal -0.982284 -0.187398 0
    outer loop
      vertex 28.0995 13.2958 5.2
      vertex 28.1748 12.9011 0
      vertex 28.1748 12.9011 5.2
    endloop
  endfacet
  facet normal -0.998032 -0.0627036 0
    outer loop
      vertex 28.2 12.5 0
      vertex 28.1748 12.9011 5.2
      vertex 28.1748 12.9011 0
    endloop
  endfacet
  facet normal -0.998032 -0.0627036 0
    outer loop
      vertex 28.1748 12.9011 5.2
      vertex 28.2 12.5 0
      vertex 28.2 12.5 5.2
    endloop
  endfacet
  facet normal -0.951045 -0.309052 0
    outer loop
      vertex 28.0995 13.2958 0
      vertex 27.9753 13.678 5.2
      vertex 27.9753 13.678 0
    endloop
  endfacet
  facet normal -0.951045 -0.309052 0
    outer loop
      vertex 27.9753 13.678 5.2
      vertex 28.0995 13.2958 0
      vertex 28.0995 13.2958 5.2
    endloop
  endfacet
  facet normal 0.951045 0.309052 0
    outer loop
      vertex 22.0247 11.322 5.2
      vertex 21.9005 11.7042 0
      vertex 21.9005 11.7042 5.2
    endloop
  endfacet
  facet normal 0.951045 0.309052 0
    outer loop
      vertex 21.9005 11.7042 0
      vertex 22.0247 11.322 5.2
      vertex 22.0247 11.322 0
    endloop
  endfacet
  facet normal -0.248561 -0.968616 0
    outer loop
      vertex 25.5996 15.6433 0
      vertex 25.9889 15.5434 5.2
      vertex 25.5996 15.6433 5.2
    endloop
  endfacet
  facet normal -0.248561 -0.968616 -0
    outer loop
      vertex 25.9889 15.5434 5.2
      vertex 25.5996 15.6433 0
      vertex 25.9889 15.5434 0
    endloop
  endfacet
  facet normal 0.77042 -0.637537 0
    outer loop
      vertex 22.4111 14.3809 5.2
      vertex 22.6673 14.6905 0
      vertex 22.6673 14.6905 5.2
    endloop
  endfacet
  facet normal 0.77042 -0.637537 0
    outer loop
      vertex 22.6673 14.6905 0
      vertex 22.4111 14.3809 5.2
      vertex 22.4111 14.3809 0
    endloop
  endfacet
  facet normal 0.951045 -0.309052 0
    outer loop
      vertex 21.9005 13.2958 5.2
      vertex 22.0247 13.678 0
      vertex 22.0247 13.678 5.2
    endloop
  endfacet
  facet normal 0.951045 -0.309052 0
    outer loop
      vertex 22.0247 13.678 0
      vertex 21.9005 13.2958 5.2
      vertex 21.9005 13.2958 0
    endloop
  endfacet
  facet normal -0.904824 -0.425785 0
    outer loop
      vertex 27.9753 13.678 0
      vertex 27.8042 14.0416 5.2
      vertex 27.8042 14.0416 0
    endloop
  endfacet
  facet normal -0.904824 -0.425785 0
    outer loop
      vertex 27.8042 14.0416 5.2
      vertex 27.9753 13.678 0
      vertex 27.9753 13.678 5.2
    endloop
  endfacet
  facet normal 0.248561 -0.968616 0
    outer loop
      vertex 24.0111 15.5434 0
      vertex 24.4004 15.6433 5.2
      vertex 24.0111 15.5434 5.2
    endloop
  endfacet
  facet normal 0.248561 -0.968616 0
    outer loop
      vertex 24.4004 15.6433 5.2
      vertex 24.0111 15.5434 0
      vertex 24.4004 15.6433 0
    endloop
  endfacet
  facet normal 0.684611 -0.728908 0
    outer loop
      vertex 22.6673 14.6905 0
      vertex 22.9602 14.9656 5.2
      vertex 22.6673 14.6905 5.2
    endloop
  endfacet
  facet normal 0.684611 -0.728908 0
    outer loop
      vertex 22.9602 14.9656 5.2
      vertex 22.6673 14.6905 0
      vertex 22.9602 14.9656 0
    endloop
  endfacet
  facet normal -0.77042 -0.637537 0
    outer loop
      vertex 27.5889 14.3809 0
      vertex 27.3327 14.6905 5.2
      vertex 27.3327 14.6905 0
    endloop
  endfacet
  facet normal -0.77042 -0.637537 0
    outer loop
      vertex 27.3327 14.6905 5.2
      vertex 27.5889 14.3809 0
      vertex 27.5889 14.3809 5.2
    endloop
  endfacet
  facet normal 0.844358 -0.53578 0
    outer loop
      vertex 22.1958 14.0416 5.2
      vertex 22.4111 14.3809 0
      vertex 22.4111 14.3809 5.2
    endloop
  endfacet
  facet normal 0.844358 -0.53578 0
    outer loop
      vertex 22.4111 14.3809 0
      vertex 22.1958 14.0416 5.2
      vertex 22.1958 14.0416 0
    endloop
  endfacet
  facet normal 0.58775 0.809043 -0
    outer loop
      vertex 23.2854 9.79815 0
      vertex 22.9602 10.0344 5.2
      vertex 23.2854 9.79815 5.2
    endloop
  endfacet
  facet normal 0.58775 0.809043 0
    outer loop
      vertex 22.9602 10.0344 5.2
      vertex 23.2854 9.79815 0
      vertex 22.9602 10.0344 0
    endloop
  endfacet
  facet normal 0.982284 0.187398 0
    outer loop
      vertex 21.9005 11.7042 5.2
      vertex 21.8252 12.0989 0
      vertex 21.8252 12.0989 5.2
    endloop
  endfacet
  facet normal 0.982284 0.187398 0
    outer loop
      vertex 21.8252 12.0989 0
      vertex 21.9005 11.7042 5.2
      vertex 21.9005 11.7042 0
    endloop
  endfacet
  facet normal 0.998032 -0.0627036 0
    outer loop
      vertex 21.8 12.5 5.2
      vertex 21.8252 12.9011 0
      vertex 21.8252 12.9011 5.2
    endloop
  endfacet
  facet normal 0.998032 -0.0627036 0
    outer loop
      vertex 21.8252 12.9011 0
      vertex 21.8 12.5 5.2
      vertex 21.8 12.5 0
    endloop
  endfacet
  facet normal -0.844358 0.53578 0
    outer loop
      vertex 27.5889 10.6191 0
      vertex 27.8042 10.9584 5.2
      vertex 27.8042 10.9584 0
    endloop
  endfacet
  facet normal -0.844358 0.53578 0
    outer loop
      vertex 27.8042 10.9584 5.2
      vertex 27.5889 10.6191 0
      vertex 27.5889 10.6191 5.2
    endloop
  endfacet
  facet normal -0.248654 0.968592 0
    outer loop
      vertex 25.9889 9.45662 0
      vertex 25.5996 9.35668 5.2
      vertex 25.9889 9.45662 5.2
    endloop
  endfacet
  facet normal -0.248654 0.968592 0
    outer loop
      vertex 25.5996 9.35668 5.2
      vertex 25.9889 9.45662 0
      vertex 25.5996 9.35668 0
    endloop
  endfacet
  facet normal -0.998032 0.0627036 0
    outer loop
      vertex 28.1748 12.0989 0
      vertex 28.2 12.5 5.2
      vertex 28.2 12.5 0
    endloop
  endfacet
  facet normal -0.998032 0.0627036 0
    outer loop
      vertex 28.2 12.5 5.2
      vertex 28.1748 12.0989 0
      vertex 28.1748 12.0989 5.2
    endloop
  endfacet
  facet normal -0.481814 -0.876274 0
    outer loop
      vertex 26.3625 15.3954 0
      vertex 26.7146 15.2018 5.2
      vertex 26.3625 15.3954 5.2
    endloop
  endfacet
  facet normal -0.481814 -0.876274 -0
    outer loop
      vertex 26.7146 15.2018 5.2
      vertex 26.3625 15.3954 0
      vertex 26.7146 15.2018 0
    endloop
  endfacet
  facet normal 0.368299 -0.929707 0
    outer loop
      vertex 23.6375 15.3954 0
      vertex 24.0111 15.5434 5.2
      vertex 23.6375 15.3954 5.2
    endloop
  endfacet
  facet normal 0.368299 -0.929707 0
    outer loop
      vertex 24.0111 15.5434 5.2
      vertex 23.6375 15.3954 0
      vertex 24.0111 15.5434 0
    endloop
  endfacet
  facet normal -0.587669 -0.809102 0
    outer loop
      vertex 26.7146 15.2018 0
      vertex 27.0398 14.9656 5.2
      vertex 26.7146 15.2018 5.2
    endloop
  endfacet
  facet normal -0.587669 -0.809102 -0
    outer loop
      vertex 27.0398 14.9656 5.2
      vertex 26.7146 15.2018 0
      vertex 27.0398 14.9656 0
    endloop
  endfacet
  facet normal -0.684479 0.729032 0
    outer loop
      vertex 27.3327 10.3094 0
      vertex 27.0398 10.0344 5.2
      vertex 27.3327 10.3094 5.2
    endloop
  endfacet
  facet normal -0.684479 0.729032 0
    outer loop
      vertex 27.0398 10.0344 5.2
      vertex 27.3327 10.3094 0
      vertex 27.0398 10.0344 0
    endloop
  endfacet
  facet normal 0.587669 -0.809102 0
    outer loop
      vertex 22.9602 14.9656 0
      vertex 23.2854 15.2018 5.2
      vertex 22.9602 14.9656 5.2
    endloop
  endfacet
  facet normal 0.587669 -0.809102 0
    outer loop
      vertex 23.2854 15.2018 5.2
      vertex 22.9602 14.9656 0
      vertex 23.2854 15.2018 0
    endloop
  endfacet
  facet normal -0.58775 0.809043 0
    outer loop
      vertex 27.0398 10.0344 0
      vertex 26.7146 9.79815 5.2
      vertex 27.0398 10.0344 5.2
    endloop
  endfacet
  facet normal -0.58775 0.809043 0
    outer loop
      vertex 26.7146 9.79815 5.2
      vertex 27.0398 10.0344 0
      vertex 26.7146 9.79815 0
    endloop
  endfacet
  facet normal 0 1 -0
    outer loop
      vertex 25.2009 9.30631 0
      vertex 24.7991 9.30631 5.2
      vertex 25.2009 9.30631 5.2
    endloop
  endfacet
  facet normal 0 1 0
    outer loop
      vertex 24.7991 9.30631 5.2
      vertex 25.2009 9.30631 0
      vertex 24.7991 9.30631 0
    endloop
  endfacet
  facet normal -0.982284 0.187398 0
    outer loop
      vertex 28.0995 11.7042 0
      vertex 28.1748 12.0989 5.2
      vertex 28.1748 12.0989 0
    endloop
  endfacet
  facet normal -0.982284 0.187398 0
    outer loop
      vertex 28.1748 12.0989 5.2
      vertex 28.0995 11.7042 0
      vertex 28.0995 11.7042 5.2
    endloop
  endfacet
  facet normal 0.982284 -0.187398 0
    outer loop
      vertex 21.8252 12.9011 5.2
      vertex 21.9005 13.2958 0
      vertex 21.9005 13.2958 5.2
    endloop
  endfacet
  facet normal 0.982284 -0.187398 0
    outer loop
      vertex 21.9005 13.2958 0
      vertex 21.8252 12.9011 5.2
      vertex 21.8252 12.9011 0
    endloop
  endfacet
  facet normal 0.844358 0.53578 0
    outer loop
      vertex 22.4111 10.6191 5.2
      vertex 22.1958 10.9584 0
      vertex 22.1958 10.9584 5.2
    endloop
  endfacet
  facet normal 0.844358 0.53578 0
    outer loop
      vertex 22.1958 10.9584 0
      vertex 22.4111 10.6191 5.2
      vertex 22.4111 10.6191 0
    endloop
  endfacet
  facet normal 0.684479 0.729032 -0
    outer loop
      vertex 22.9602 10.0344 0
      vertex 22.6673 10.3094 5.2
      vertex 22.9602 10.0344 5.2
    endloop
  endfacet
  facet normal 0.684479 0.729032 0
    outer loop
      vertex 22.6673 10.3094 5.2
      vertex 22.9602 10.0344 0
      vertex 22.6673 10.3094 0
    endloop
  endfacet
  facet normal -0.904824 0.425785 0
    outer loop
      vertex 27.8042 10.9584 0
      vertex 27.9753 11.322 5.2
      vertex 27.9753 11.322 0
    endloop
  endfacet
  facet normal -0.904824 0.425785 0
    outer loop
      vertex 27.9753 11.322 5.2
      vertex 27.8042 10.9584 0
      vertex 27.8042 10.9584 5.2
    endloop
  endfacet
  facet normal 0.770521 0.637415 0
    outer loop
      vertex 22.6673 10.3094 5.2
      vertex 22.4111 10.6191 0
      vertex 22.4111 10.6191 5.2
    endloop
  endfacet
  facet normal 0.770521 0.637415 0
    outer loop
      vertex 22.4111 10.6191 0
      vertex 22.6673 10.3094 5.2
      vertex 22.6673 10.3094 0
    endloop
  endfacet
  facet normal -0.481814 0.876274 0
    outer loop
      vertex 26.7146 9.79815 0
      vertex 26.3625 9.60455 5.2
      vertex 26.7146 9.79815 5.2
    endloop
  endfacet
  facet normal -0.481814 0.876274 0
    outer loop
      vertex 26.3625 9.60455 5.2
      vertex 26.7146 9.79815 0
      vertex 26.3625 9.60455 0
    endloop
  endfacet
  facet normal 0.904824 0.425785 0
    outer loop
      vertex 22.1958 10.9584 5.2
      vertex 22.0247 11.322 0
      vertex 22.0247 11.322 5.2
    endloop
  endfacet
  facet normal 0.904824 0.425785 0
    outer loop
      vertex 22.0247 11.322 0
      vertex 22.1958 10.9584 5.2
      vertex 22.1958 10.9584 0
    endloop
  endfacet
  facet normal -0.770521 0.637415 0
    outer loop
      vertex 27.3327 10.3094 0
      vertex 27.5889 10.6191 5.2
      vertex 27.5889 10.6191 0
    endloop
  endfacet
  facet normal -0.770521 0.637415 0
    outer loop
      vertex 27.5889 10.6191 5.2
      vertex 27.3327 10.3094 0
      vertex 27.3327 10.3094 5.2
    endloop
  endfacet
  facet normal -0.684611 -0.728908 0
    outer loop
      vertex 27.0398 14.9656 0
      vertex 27.3327 14.6905 5.2
      vertex 27.0398 14.9656 5.2
    endloop
  endfacet
  facet normal -0.684611 -0.728908 -0
    outer loop
      vertex 27.3327 14.6905 5.2
      vertex 27.0398 14.9656 0
      vertex 27.3327 14.6905 0
    endloop
  endfacet
  facet normal -0.844358 -0.53578 0
    outer loop
      vertex 27.8042 14.0416 0
      vertex 27.5889 14.3809 5.2
      vertex 27.5889 14.3809 0
    endloop
  endfacet
  facet normal -0.844358 -0.53578 0
    outer loop
      vertex 27.5889 14.3809 5.2
      vertex 27.8042 14.0416 0
      vertex 27.8042 14.0416 5.2
    endloop
  endfacet
  facet normal -0.951045 0.309052 0
    outer loop
      vertex 27.9753 11.322 0
      vertex 28.0995 11.7042 5.2
      vertex 28.0995 11.7042 0
    endloop
  endfacet
  facet normal -0.951045 0.309052 0
    outer loop
      vertex 28.0995 11.7042 5.2
      vertex 27.9753 11.322 0
      vertex 27.9753 11.322 5.2
    endloop
  endfacet
  facet normal -0.368299 -0.929707 0
    outer loop
      vertex 25.9889 15.5434 0
      vertex 26.3625 15.3954 5.2
      vertex 25.9889 15.5434 5.2
    endloop
  endfacet
  facet normal -0.368299 -0.929707 -0
    outer loop
      vertex 26.3625 15.3954 5.2
      vertex 25.9889 15.5434 0
      vertex 26.3625 15.3954 0
    endloop
  endfacet
  facet normal 0.368149 0.929767 -0
    outer loop
      vertex 24.0111 9.45662 0
      vertex 23.6375 9.60455 5.2
      vertex 24.0111 9.45662 5.2
    endloop
  endfacet
  facet normal 0.368149 0.929767 0
    outer loop
      vertex 23.6375 9.60455 5.2
      vertex 24.0111 9.45662 0
      vertex 23.6375 9.60455 0
    endloop
  endfacet
  facet normal 0.481814 -0.876274 0
    outer loop
      vertex 23.2854 15.2018 0
      vertex 23.6375 15.3954 5.2
      vertex 23.2854 15.2018 5.2
    endloop
  endfacet
  facet normal 0.481814 -0.876274 0
    outer loop
      vertex 23.6375 15.3954 5.2
      vertex 23.2854 15.2018 0
      vertex 23.6375 15.3954 0
    endloop
  endfacet
  facet normal 0.998032 0.0627036 0
    outer loop
      vertex 21.8252 12.0989 5.2
      vertex 21.8 12.5 0
      vertex 21.8 12.5 5.2
    endloop
  endfacet
  facet normal 0.998032 0.0627036 0
    outer loop
      vertex 21.8 12.5 0
      vertex 21.8252 12.0989 5.2
      vertex 21.8252 12.0989 0
    endloop
  endfacet
  facet normal 0.248654 0.968592 -0
    outer loop
      vertex 24.4004 9.35668 0
      vertex 24.0111 9.45662 5.2
      vertex 24.4004 9.35668 5.2
    endloop
  endfacet
  facet normal 0.248654 0.968592 0
    outer loop
      vertex 24.0111 9.45662 5.2
      vertex 24.4004 9.35668 0
      vertex 24.0111 9.45662 0
    endloop
  endfacet
  facet normal -0.125339 0.992114 0
    outer loop
      vertex 25.5996 9.35668 0
      vertex 25.2009 9.30631 5.2
      vertex 25.5996 9.35668 5.2
    endloop
  endfacet
  facet normal -0.125339 0.992114 0
    outer loop
      vertex 25.2009 9.30631 5.2
      vertex 25.5996 9.35668 0
      vertex 25.2009 9.30631 0
    endloop
  endfacet
  facet normal -0.125413 -0.992105 0
    outer loop
      vertex 25.2009 15.6937 0
      vertex 25.5996 15.6433 5.2
      vertex 25.2009 15.6937 5.2
    endloop
  endfacet
  facet normal -0.125413 -0.992105 -0
    outer loop
      vertex 25.5996 15.6433 5.2
      vertex 25.2009 15.6937 0
      vertex 25.5996 15.6433 0
    endloop
  endfacet
  facet normal 0 -1 0
    outer loop
      vertex 24.7991 15.6937 0
      vertex 25.2009 15.6937 5.2
      vertex 24.7991 15.6937 5.2
    endloop
  endfacet
  facet normal 0 -1 -0
    outer loop
      vertex 25.2009 15.6937 5.2
      vertex 24.7991 15.6937 0
      vertex 25.2009 15.6937 0
    endloop
  endfacet
  facet normal 0.125413 -0.992105 0
    outer loop
      vertex 24.4004 15.6433 0
      vertex 24.7991 15.6937 5.2
      vertex 24.4004 15.6433 5.2
    endloop
  endfacet
  facet normal 0.125413 -0.992105 0
    outer loop
      vertex 24.7991 15.6937 5.2
      vertex 24.4004 15.6433 0
      vertex 24.7991 15.6937 0
    endloop
  endfacet
  facet normal 0.125339 0.992114 -0
    outer loop
      vertex 24.7991 9.30631 0
      vertex 24.4004 9.35668 5.2
      vertex 24.7991 9.30631 5.2
    endloop
  endfacet
  facet normal 0.125339 0.992114 0
    outer loop
      vertex 24.4004 9.35668 5.2
      vertex 24.7991 9.30631 0
      vertex 24.4004 9.35668 0
    endloop
  endfacet
  facet normal 0.481814 0.876274 -0
    outer loop
      vertex 23.6375 9.60455 0
      vertex 23.2854 9.79815 5.2
      vertex 23.6375 9.60455 5.2
    endloop
  endfacet
  facet normal 0.481814 0.876274 0
    outer loop
      vertex 23.2854 9.79815 5.2
      vertex 23.6375 9.60455 0
      vertex 23.2854 9.79815 0
    endloop
  endfacet
  facet normal 0.904824 -0.425785 0
    outer loop
      vertex 22.0247 13.678 5.2
      vertex 22.1958 14.0416 0
      vertex 22.1958 14.0416 5.2
    endloop
  endfacet
  facet normal 0.904824 -0.425785 0
    outer loop
      vertex 22.1958 14.0416 0
      vertex 22.0247 13.678 5.2
      vertex 22.0247 13.678 0
    endloop
  endfacet
endsolid OpenSCAD_Model
